<?xml version="1.0" encoding="UTF-8"?>
<svg id="Layer_1" xmlns="http://www.w3.org/2000/svg" version="1.1" viewBox="0 0 334.69 114.57">
  <!-- Generator: Adobe Illustrator 30.6.0, SVG Export Plug-In . SVG Version: 2.1.4 Build 109)  -->
  <path d="M.06,54.83h4.86c2.02,0,3.46.72,4.25,2.41.64,1.33.7,4.49.7,4.99,0,3.37-.31,5.32-.96,6.37-.85,1.35-2.45,2.04-5.21,2.04H.06v-15.8ZM2.07,68.88h1.91c2.8,0,3.83-1.05,3.83-4.72v-3.2c0-3.19-.98-4.38-3.08-4.38h-2.65v12.3Z"/>
  <polygon points="13.39 70.63 13.39 54.83 21.53 54.83 21.53 56.58 15.4 56.58 15.4 61.66 21.09 61.66 21.09 63.41 15.4 63.41 15.4 68.88 21.66 68.88 21.66 70.63 13.39 70.63"/>
  <path d="M24.59,70.63v-15.79h4.69c2.12,0,4.4.78,4.4,4.5s-2.8,4.34-4.42,4.34h-2.65v6.95h-2.01ZM26.6,61.92h2.21c.83,0,2.8-.22,2.8-2.69s-1.8-2.65-2.23-2.65h-2.78v5.34Z"/>
  <path d="M38.97,54.83h2.56l5.14,15.81h-2.26l-1.13-3.77h-6.11l-1.18,3.77h-2.04l5.01-15.81ZM40.2,56.69h-.04l-2.47,8.42h5.06l-2.54-8.42Z"/>
  <path d="M50.75,63.37v7.26h-2.01v-15.8h5.45c2.8,0,3.78,1.97,3.78,3.94,0,1.86-1.03,3.28-2.89,3.61v.04c1.82.28,2.47.9,2.58,4.07.02.68.24,3.15.55,4.14h-2.1c-.57-1.09-.44-3.16-.62-5.25-.16-1.93-1.71-2.01-2.38-2.01h-2.36ZM50.75,61.61h3.02c1.44,0,2.14-1.25,2.14-2.62,0-1.14-.57-2.41-2.12-2.41h-3.04v5.04Z"/>
  <polygon points="69.81 54.83 69.81 56.58 65.65 56.58 65.65 70.63 63.64 70.63 63.64 56.58 59.48 56.58 59.48 54.83 69.81 54.83"/>
  <polygon points="73.79 70.63 71.91 70.63 71.91 54.83 75.17 54.83 79.15 68.09 79.2 68.09 83.22 54.83 86.55 54.83 86.55 70.63 84.54 70.63 84.54 56.58 84.49 56.58 80.07 70.63 78.17 70.63 73.84 56.58 73.79 56.58 73.79 70.63"/>
  <polygon points="90.12 70.63 90.12 54.83 98.26 54.83 98.26 56.58 92.13 56.58 92.13 61.66 97.82 61.66 97.82 63.41 92.13 63.41 92.13 68.88 98.39 68.88 98.39 70.63 90.12 70.63"/>
  <polygon points="112 54.83 112 70.63 109.24 70.63 103.01 56.93 102.96 56.93 102.96 70.63 101.17 70.63 101.17 54.83 104.01 54.83 110.16 68.36 110.21 68.36 110.21 54.83 112 54.83"/>
  <polygon points="124.52 54.83 124.52 56.58 120.36 56.58 120.36 70.63 118.35 70.63 118.35 56.58 114.19 56.58 114.19 54.83 124.52 54.83"/>
  <path d="M131.39,64.85v-5.19c0-3.15,1.62-5.17,4.97-5.17s4.97,2.02,4.97,5.17v5.19c0,4.38-1.62,6.11-4.97,6.11s-4.97-1.73-4.97-6.11M139.27,64.94v-5.34c0-3.31-2.28-3.42-2.91-3.42s-2.91.11-2.91,3.42v5.34c0,3.46,1.01,4.33,2.91,4.33s2.91-.87,2.91-4.33"/>
  <polygon points="144.67 70.63 144.67 54.83 152.51 54.83 152.51 56.58 146.69 56.58 146.69 61.66 152.2 61.66 152.2 63.41 146.69 63.41 146.69 70.63 144.67 70.63"/>
  <path d="M166.36,59.19c.02-.9-.04-1.8-.46-2.3-.42-.5-1.35-.68-1.77-.68-1.66,0-2.32,1.01-2.39,1.23-.06.18-.46.57-.46,3.28v4.23c0,3.87,1.27,4.33,2.82,4.33.62,0,2.48-.22,2.5-3.31h2.08c.09,4.99-3.43,4.99-4.46,4.99-1.97,0-4.99-.13-4.99-6.26v-4.46c0-4.47,1.97-5.74,5.07-5.74s4.33,1.63,4.14,4.69h-2.08Z"/>
  <path d="M171.5,54.83h2.01v10.11c0,3.45,1.05,4.33,2.96,4.33s2.95-.88,2.95-4.33v-10.11h2.02v10.02c0,4.38-1.62,6.11-4.97,6.11s-4.97-1.73-4.97-6.11v-10.02Z"/>
  <polygon points="184.94 70.63 184.94 54.83 186.95 54.83 186.95 68.88 192.75 68.88 192.75 70.63 184.94 70.63"/>
  <polygon points="202.21 54.83 202.21 56.58 198.05 56.58 198.05 70.63 196.04 70.63 196.04 56.58 191.88 56.58 191.88 54.83 202.21 54.83"/>
  <path d="M204.22,54.83h2.01v10.11c0,3.45,1.05,4.33,2.96,4.33s2.96-.88,2.96-4.33v-10.11h2.01v10.02c0,4.38-1.62,6.11-4.97,6.11s-4.97-1.73-4.97-6.11v-10.02Z"/>
  <path d="M219.63,63.37v7.26h-2.01v-15.8h5.45c2.81,0,3.79,1.97,3.79,3.94,0,1.86-1.03,3.28-2.89,3.61v.04c1.82.28,2.47.9,2.58,4.07.02.68.24,3.15.54,4.14h-2.1c-.57-1.09-.44-3.16-.62-5.25-.16-1.93-1.71-2.01-2.38-2.01h-2.36ZM219.63,61.62h3.02c1.45,0,2.15-1.25,2.15-2.63,0-1.14-.57-2.41-2.12-2.41h-3.04v5.04Z"/>
  <polygon points="229.83 70.63 229.83 54.83 237.97 54.83 237.97 56.58 231.84 56.58 231.84 61.66 237.53 61.66 237.53 63.41 231.84 63.41 231.84 68.88 238.1 68.88 238.1 70.63 229.83 70.63"/>
  <path d="M112.44,80.43h2.57l5.15,15.84h-2.26l-1.13-3.77h-6.12l-1.18,3.77h-2.04l5.02-15.84ZM113.67,82.3h-.04l-2.48,8.44h5.07l-2.55-8.44Z"/>
  <polygon points="133.23 80.44 133.23 96.27 130.47 96.27 124.22 82.54 124.17 82.54 124.17 96.27 122.38 96.27 122.38 80.44 125.23 80.44 131.39 93.99 131.44 93.99 131.44 80.44 133.23 80.44"/>
  <path d="M136.94,80.43h4.87c2.02,0,3.46.73,4.26,2.42.63,1.34.7,4.5.7,5,0,3.37-.31,5.32-.97,6.38-.86,1.36-2.46,2.04-5.22,2.04h-3.64v-15.84ZM138.96,94.52h1.91c2.81,0,3.84-1.05,3.84-4.73v-3.2c0-3.21-.99-4.39-3.09-4.39h-2.66v12.33Z"/>
  <polygon points="164.04 80.44 164.04 82.19 159.88 82.19 159.88 96.27 157.86 96.27 157.86 82.19 153.69 82.19 153.69 80.44 164.04 80.44"/>
  <path d="M166.07,90.48v-5.2c0-3.16,1.62-5.18,4.97-5.18s4.98,2.02,4.98,5.18v5.2c0,4.38-1.62,6.12-4.98,6.12s-4.97-1.73-4.97-6.12M173.96,90.57v-5.35c0-3.31-2.28-3.42-2.92-3.42s-2.92.11-2.92,3.42v5.35c0,3.46,1.01,4.34,2.92,4.34s2.92-.88,2.92-4.34"/>
  <path d="M179.46,80.44h2.02v10.14c0,3.46,1.06,4.34,2.96,4.34s2.96-.88,2.96-4.34v-10.14h2.02v10.04c0,4.39-1.62,6.12-4.98,6.12s-4.98-1.73-4.98-6.12v-10.04Z"/>
  <path d="M194.9,88.99v7.28h-2.02v-15.83h5.46c2.81,0,3.8,1.97,3.8,3.95,0,1.86-1.03,3.29-2.9,3.62v.04c1.82.28,2.48.9,2.59,4.08.02.68.24,3.16.55,4.15h-2.11c-.57-1.1-.44-3.16-.62-5.26-.16-1.93-1.71-2.02-2.39-2.02h-2.37ZM194.9,87.24h3.03c1.44,0,2.14-1.25,2.14-2.63,0-1.14-.57-2.41-2.13-2.41h-3.05v5.05Z"/>
  <rect x="205.38" y="80.44" width="2.02" height="15.83"/>
  <path d="M212.77,91.56v.46c0,2.15,1.36,2.83,2.66,2.83,1.6,0,2.83-.68,2.83-2.57,0-3.51-7.11-3.11-7.11-7.87,0-2.81,2-4.3,4.65-4.3,2.9,0,4.52,1.41,4.38,4.63h-2.11c.02-1.73-.53-2.87-2.43-2.87-1.21,0-2.43.61-2.43,2.32,0,3.48,7.11,2.98,7.11,8,0,3.33-2.31,4.41-4.91,4.41-4.67.05-4.67-3.53-4.63-5.04h2Z"/>
  <polygon points="225.31 96.27 223.43 96.27 223.43 80.44 226.69 80.44 230.69 93.73 230.73 93.73 234.77 80.44 238.1 80.44 238.1 96.27 236.08 96.27 236.08 82.19 236.04 82.19 231.61 96.27 229.7 96.27 225.36 82.19 225.31 82.19 225.31 96.27"/>
  <path d="M9.04,34.88c0,.35.15.52.45.52h1.22v1.92h-1.48c-.63,0-1.14-.21-1.53-.63-.39-.42-.58-1.02-.58-1.81l-.03-8.11c-.45.22-.97.5-1.57.83s-1.16.73-1.68,1.2c-.52.47-.97,1.01-1.34,1.63-.37.62-.56,1.32-.56,2.11,0,1.09.33,1.85,1,2.28.67.43,1.71.71,3.14.83l-.15,1.93c-1.25-.07-2.27-.29-3.05-.63-.78-.34-1.38-.76-1.8-1.24-.42-.48-.71-1-.85-1.55-.14-.55-.22-1.09-.22-1.61,0-1.36.36-2.54,1.08-3.54.72-1,1.56-1.84,2.53-2.54.98-.69,1.97-1.24,2.98-1.65,1.01-.41,1.83-.7,2.45-.87v10.93ZM4.78,20.85c0,.34-.13.64-.37.89-.25.25-.54.37-.89.37s-.64-.12-.89-.37c-.24-.24-.37-.54-.37-.89s.13-.64.37-.89c.24-.24.54-.37.89-.37s.64.12.89.37c.24.25.37.55.37.89M8.96,20.85c0,.34-.12.64-.37.89-.24.25-.54.37-.89.37s-.64-.12-.89-.37c-.25-.24-.37-.54-.37-.89s.12-.64.37-.89c.24-.24.54-.37.89-.37s.64.12.89.37c.25.25.37.55.37.89"/>
  <path d="M15.69,37.33h-4.99c-.37,0-.68-.11-.92-.33-.25-.22-.37-.43-.37-.63s.12-.4.37-.63c.24-.22.55-.33.92-.33h4.99v1.92Z"/>
  <path d="M15.69,37.33c-.37,0-.68-.11-.93-.33-.25-.22-.37-.43-.37-.63s.12-.4.37-.63c.24-.22.55-.33.93-.33h9.71c-.25-.49-.44-1.14-.58-1.95-.13-.8-.24-1.83-.32-3.09-.07-.91-.22-1.63-.44-2.15-.22-.52-.49-.9-.82-1.17-.32-.26-.67-.42-1.04-.49-.37-.08-.74-.11-1.11-.11-.87,0-1.75.29-2.67.88l-1.19-1.51c.47-.34,1.04-.65,1.71-.91.67-.26,1.39-.39,2.19-.39,1.63,0,2.87.48,3.74,1.43.87.95,1.38,2.38,1.55,4.28.15,1.68.3,2.89.45,3.63.14.74.47,1.19.96,1.33l1.04.3-.07,1.85h-13.11Z"/>
  <polygon points="31.5 37.33 31.5 17.88 33.43 17.88 33.43 35.4 35.1 35.4 35.1 37.33 31.5 37.33"/>
  <path d="M38.4,37.33h-3.3c-.37,0-.68-.11-.93-.33-.24-.22-.37-.43-.37-.63s.13-.4.37-.63c.25-.22.55-.33.93-.33h3.3v1.92Z"/>
  <path d="M38.4,37.33c-.37,0-.68-.12-.93-.34-.24-.22-.37-.43-.37-.63s.12-.41.37-.63c.25-.22.56-.33.93-.33h5v-9.45h1.92v9.45h1.67v1.93h-8.59ZM40.55,42.59c-.35,0-.64-.12-.89-.37-.25-.25-.37-.54-.37-.89s.12-.64.37-.89c.24-.24.54-.37.89-.37s.64.12.89.37c.25.25.37.55.37.89s-.12.64-.37.89c-.24.25-.54.37-.89.37M44.32,42.59c-.34,0-.64-.12-.89-.37-.25-.25-.37-.54-.37-.89s.12-.64.37-.89c.24-.24.54-.37.89-.37s.64.12.89.37c.25.25.37.55.37.89s-.12.64-.37.89c-.24.25-.54.37-.89.37"/>
  <path d="M51.08,37.33h-4.05c-.37,0-.68-.11-.93-.33-.24-.22-.37-.43-.37-.63s.13-.4.37-.63c.25-.22.55-.33.93-.33h4.05v1.92Z"/>
  <path d="M66.67,35.4v1.92h-15.59c-.37,0-.68-.11-.93-.33-.24-.22-.37-.43-.37-.63s.13-.4.37-.63c.25-.22.56-.33.93-.33h.52c.82,0,1.3-.09,1.46-.28.16-.19.24-.49.24-.91v-8.41h1.92v9.6h3.07v-9.6h1.93v9.6h2.78v-9.6h2v9.6h1.67Z"/>
  <path d="M73.34,37.33h-6.67c-.37,0-.68-.11-.93-.33-.24-.22-.37-.43-.37-.63s.13-.4.37-.63c.25-.22.55-.33.93-.33h6.67v1.92Z"/>
  <path d="M75,17.77h1.92v19.56h-3.59c-.37,0-.68-.11-.93-.33-.25-.22-.37-.43-.37-.63,0-.19.12-.4.37-.63.24-.22.55-.33.93-.33h1.66v-17.63Z"/>
  <rect x="79.89" y="17.88" width="1.93" height="19.45"/>
  <path d="M93.6,38.29c0,.89-.07,1.75-.18,2.59-.12.84-.36,1.59-.71,2.25-.35.65-.85,1.18-1.5,1.59-.65.41-1.52.62-2.61.62v-1.92c.77,0,1.35-.16,1.78-.47.42-.31.73-.73.92-1.25.2-.52.32-1.12.35-1.81.04-.68.06-1.39.06-2.14v-.41h-1.04c-2,0-3.56-.44-4.67-1.33-1.11-.89-1.66-2.07-1.66-3.56,0-1.03.23-2.01.68-2.92.46-.92,1.09-1.73,1.92-2.42.82-.7,1.8-1.28,2.93-1.73,1.13-.44,2.37-.73,3.73-.85v13.78ZM91.67,35.4v-8.6c-1.64.44-2.96,1.16-3.93,2.14-.98.98-1.48,2.11-1.48,3.42,0,.94.37,1.68,1.12,2.22.74.54,1.92.82,3.54.82h.75Z"/>
  <path d="M111.15,34.88c0,.35.15.52.45.52h1.22v1.92h-1.48c-.63,0-1.14-.21-1.53-.63-.39-.42-.58-1.02-.58-1.81l-.04-8.11c-.45.22-.97.5-1.56.83-.6.33-1.16.73-1.68,1.2s-.97,1.01-1.34,1.63c-.38.62-.56,1.32-.56,2.11,0,1.09.33,1.85,1,2.28s1.72.71,3.15.83l-.15,1.93c-1.26-.07-2.27-.29-3.05-.63s-1.38-.76-1.8-1.24c-.42-.48-.71-1-.85-1.55-.15-.55-.22-1.09-.22-1.61,0-1.35.36-2.54,1.08-3.53.72-1,1.56-1.85,2.54-2.54.98-.69,1.97-1.24,2.98-1.65,1.01-.41,1.83-.7,2.45-.87v10.93ZM106.9,20.85c0,.34-.12.64-.37.89s-.54.37-.89.37-.64-.12-.89-.37c-.24-.24-.37-.54-.37-.89s.13-.64.37-.89.54-.37.89-.37.64.12.89.37c.24.25.37.54.37.89M111.08,20.85c0,.34-.12.64-.37.89-.25.25-.54.37-.89.37s-.64-.12-.89-.37-.37-.54-.37-.89.12-.64.37-.89c.25-.25.54-.37.89-.37s.64.12.89.37c.25.25.37.54.37.89"/>
  <path d="M117.81,37.33h-4.98c-.37,0-.68-.11-.93-.33-.25-.22-.37-.43-.37-.63s.12-.4.37-.63c.24-.22.55-.33.93-.33h4.98v1.92Z"/>
  <path d="M117.81,37.33c-.37,0-.68-.11-.93-.33-.25-.22-.37-.43-.37-.63s.12-.4.37-.63c.24-.22.55-.33.93-.33h3.7c-1.6-1.09-2.41-2.63-2.41-4.63,0-.94.18-1.77.54-2.5.36-.73.87-1.35,1.54-1.85.67-.51,1.46-.89,2.37-1.15.92-.26,1.92-.39,3.03-.39.42,0,.79.02,1.11.04.32.03.72.07,1.18.15v12.26h-11.07ZM121.03,30.83c0,1.22.48,2.22,1.45,3.01.97.79,2.46,1.33,4.47,1.6v-8.63h-.14c-.06,0-.09,0-.12-.02-.02-.02-.06-.02-.11-.02-.67,0-1.34.06-2.01.17-.67.11-1.27.32-1.79.62-.52.29-.94.7-1.26,1.23s-.48,1.2-.48,2.05M127.07,20.33c0,.34-.12.64-.37.89-.24.25-.54.37-.89.37s-.64-.12-.89-.37c-.25-.25-.37-.54-.37-.89s.12-.64.37-.89c.24-.25.54-.37.89-.37s.64.12.89.37c.25.24.37.54.37.89"/>
  <polygon points="131.85 37.33 131.85 17.88 133.77 17.88 133.77 35.4 135.44 35.4 135.44 37.33 131.85 37.33"/>
  <path d="M142.11,37.33h-6.67c-.37,0-.68-.11-.93-.33-.24-.22-.37-.43-.37-.63s.13-.4.37-.63c.24-.22.55-.33.93-.33h6.67v1.92Z"/>
  <path d="M142.11,37.33c-.37,0-.68-.11-.93-.33-.25-.22-.37-.43-.37-.63s.12-.41.37-.63c.24-.23.55-.33.93-.33h2.67c-.42-.57-.75-1.23-1-1.97-.24-.74-.37-1.53-.37-2.37s.13-1.68.39-2.45c.26-.76.62-1.44,1.07-2.01.46-.58.99-1.04,1.61-1.38.62-.33,1.27-.5,1.96-.5s1.34.17,1.95.5c.6.33,1.13.79,1.59,1.38.46.58.82,1.25,1.08,2.01.26.77.38,1.58.38,2.45s-.12,1.63-.37,2.37c-.25.74-.58,1.39-1,1.96h2.67v1.92h-12.63ZM147.59,21.24c0,.35-.12.64-.37.88-.24.24-.54.36-.89.36s-.64-.12-.89-.36c-.25-.24-.37-.53-.37-.88s.12-.65.37-.9c.24-.25.54-.38.89-.38s.64.13.89.38c.25.26.37.55.37.9M145.33,31.05c0,1.11.26,2.08.78,2.9.52.82,1.16,1.3,1.92,1.45h.78c.77-.15,1.4-.64,1.92-1.45.52-.82.78-1.79.78-2.9,0-.6-.08-1.16-.24-1.69-.16-.54-.38-1-.67-1.4-.28-.39-.61-.71-.98-.95-.37-.23-.77-.36-1.18-.36s-.82.12-1.2.36c-.38.24-.72.55-1,.95-.29.4-.51.86-.67,1.4-.16.53-.24,1.09-.24,1.69M151.77,21.24c0,.35-.12.64-.37.88-.25.24-.54.36-.89.36s-.64-.12-.89-.36c-.24-.24-.37-.53-.37-.88s.12-.65.37-.9c.25-.24.54-.38.89-.38s.64.13.89.38c.25.26.37.55.37.9"/>
  <path d="M158.04,37.33h-3.3c-.37,0-.68-.11-.93-.33-.25-.22-.37-.43-.37-.63s.12-.4.37-.63c.24-.22.55-.33.93-.33h3.3v1.92Z"/>
  <path d="M158.04,37.33c-.37,0-.68-.11-.93-.33-.24-.22-.37-.43-.37-.63s.12-.4.37-.63c.25-.22.56-.33.93-.33h5v-9.45h1.92v9.45h1.67v1.92h-8.59ZM160.18,23.88c-.35,0-.64-.12-.89-.37-.25-.24-.37-.54-.37-.89s.12-.64.37-.89c.24-.24.54-.37.89-.37s.64.12.89.37c.25.25.37.54.37.89s-.12.64-.37.89c-.24.25-.54.37-.89.37M163.34,19.59c0,.35-.13.65-.37.91-.25.26-.54.39-.89.39s-.64-.13-.89-.39c-.24-.26-.37-.56-.37-.91s.13-.63.37-.87c.25-.23.54-.35.89-.35s.64.12.89.35c.24.24.37.53.37.87M163.96,23.88c-.34,0-.64-.12-.89-.37-.25-.24-.37-.54-.37-.89s.12-.64.37-.89c.24-.25.54-.37.89-.37s.64.12.89.37.37.54.37.89-.12.64-.37.89-.55.37-.89.37"/>
  <path d="M173.33,37.33h-6.67c-.37,0-.68-.11-.93-.33-.25-.22-.37-.43-.37-.63s.12-.4.37-.63c.24-.22.55-.33.93-.33h6.67v1.92Z"/>
  <path d="M175,17.77h1.92v19.56h-3.59c-.37,0-.68-.11-.93-.33-.25-.22-.37-.43-.37-.63s.12-.4.37-.63c.24-.22.55-.33.93-.33h1.66v-17.63Z"/>
  <rect x="179.89" y="17.88" width="1.92" height="19.45"/>
  <path d="M199.3,37.33h-2.04c-.64,0-1.36-.09-2.17-.26-.8-.17-1.55-.46-2.26-.85-.7-.39-1.3-.92-1.77-1.57-.48-.65-.73-1.46-.73-2.43,0-.89.17-1.7.52-2.42.34-.73.79-1.38,1.33-1.96.54-.58,1.15-1.09,1.84-1.54.68-.44,1.35-.82,2.02-1.13.67-.31,1.29-.55,1.87-.74.58-.18,1.04-.31,1.39-.39v13.3ZM197.37,35.33v-8.59c-.44.19-.96.46-1.55.78s-1.15.71-1.67,1.17c-.52.46-.96.98-1.33,1.57s-.55,1.26-.55,2c0,.57.16,1.05.48,1.44.32.4.73.72,1.23.97.49.24,1.02.42,1.59.52.57.1,1.1.15,1.59.15h.22ZM195.37,20.85c0,.34-.12.64-.37.89-.24.25-.54.37-.89.37s-.64-.12-.89-.37-.37-.54-.37-.89.13-.64.37-.89c.25-.25.54-.37.89-.37s.65.12.89.37.37.54.37.89M199.56,20.85c0,.34-.12.64-.37.89-.24.25-.54.37-.89.37s-.64-.12-.89-.37c-.25-.24-.37-.54-.37-.89s.12-.64.37-.89c.24-.25.54-.37.89-.37s.64.12.89.37c.25.25.37.54.37.89"/>
  <path d="M204.56,38.18c0,.82-.05,1.64-.15,2.49-.1.84-.32,1.6-.67,2.3-.35.69-.85,1.25-1.52,1.69s-1.57.65-2.7.65v-1.93c.72,0,1.28-.15,1.7-.44.42-.3.73-.68.94-1.17.21-.48.34-1.03.39-1.64.05-.62.07-1.26.07-1.93v-12.26h1.93v9.48h1.66v1.92h-1.66v.85Z"/>
  <path d="M209.53,37.33h-3.3c-.37,0-.68-.11-.93-.33-.24-.22-.37-.43-.37-.63s.12-.41.37-.63c.25-.22.55-.33.93-.33h3.3v1.92Z"/>
  <path d="M214.51,37.33h-4.98c-.37,0-.68-.11-.93-.33-.25-.22-.37-.43-.37-.63s.12-.41.37-.63c.24-.22.55-.33.93-.33h4.98v1.92Z"/>
  <path d="M218.21,25.92h1.93v11.4h-5.64c-.37,0-.68-.11-.92-.33-.25-.22-.37-.43-.37-.63s.12-.41.37-.63c.24-.22.55-.33.92-.33h3.71v-9.48ZM220.55,21.34c-.57-.25-1.1-.37-1.59-.37-.32,0-.58.06-.78.19-.19.12-.29.34-.29.67,0,.47.18.82.55,1.03.37.21.83.32,1.37.32h.93v.96h-4.96v-.96h1.59c-.1-.05-.2-.21-.3-.48-.1-.28-.14-.57-.14-.87,0-.67.21-1.15.63-1.43.42-.27.88-.41,1.37-.41.67,0,1.34.14,2,.41l-.37.94Z"/>
  <rect x="223.14" y="17.88" width="1.92" height="19.45"/>
  <path d="M227.59,26.29c.49-.42,1.13-.82,1.89-1.19.77-.37,1.68-.55,2.75-.55.99,0,1.85.21,2.59.61.74.41,1.35.95,1.84,1.61s.85,1.43,1.09,2.27c.24.85.36,1.73.36,2.61,0,.67-.05,1.31-.16,1.92-.11.62-.24,1.18-.4,1.67-.16.49-.32.92-.49,1.28-.17.36-.3.63-.4.8h-9.17v-1.92h7.96c.14-.37.31-.86.48-1.49.18-.62.26-1.36.26-2.26,0-.69-.09-1.35-.28-1.98-.18-.63-.44-1.18-.78-1.65s-.75-.85-1.26-1.13c-.5-.28-1.07-.43-1.69-.43-.52,0-1.05.09-1.59.28-.54.19-1.16.53-1.85,1.02l-1.15-1.48Z"/>
  <path d="M303.06,48.27c.6.77-.13,1.97-.66,2.8.24-1.14.38-2.03.66-2.8M287,42.18c.53-1.91,1.6-3,1.97-4.1-1.92,1.36-2.31,3.44-1.97,4.1M299.13,57.78c1.16-1.43,1.76-3.08,1.27-4.76-1.04,1.62-1.06,3.26-1.27,4.76M302.71,45.04c-.82.18-.52,3.42-.54,3.41-.01-.04,1.25-2.21.54-3.41M286.49,50.69c-.45,1.91,1.46,3.74,1.47,3.77,0,.02,0-2.26-1.47-3.77M286.47,53.79c-.07.34.22,1.39.59,2.01.66,1.1,1.17,1.61,1.68,2.13-.81-1.24-1.46-3.52-2.27-4.14M302.08,40.11c-.12.97,1.01,3.2,1.06,3.38.02-.16.65-2.02-1.06-3.38M284.71,44.66c-.14-.94,1.02-1.8.62-3.31-1.16,1.31-.93,2.54-.62,3.31M287.85,47.11c-.03.81-.02,1.56-.21,2.44-.54-.13-.8-.5-1.19-.84.32,1.08,1.66,2.33,1.87,2.64.19-1.47.25-3.25-.47-4.25M294.64,28.72c.36.36,1.49.84,2.13,1.43-.09-.97-.94-1.5-2.13-1.43M298.09,36.74c0-.73-.23-2-1.88-2.24-.1.86,1.35,1.38,1.88,2.24M291.16,28.18s.13.23.08.62c-.06.4-.23.77-.82.9-.61.15-1.26-.24-1.28-.89,0-.17.04-.39.11-.54-.2.02-.21.17-.41.43-.12.15-.32.14-.6.33,0-.38.42-.98.88-1.19.69-.31,3.09-.41,4.79.47-.59-.11-1.12-.07-1.68-.1-.69-.03-1.06-.03-1.06-.03M290.86,28.19c-.08-.04-.61-.03-.67.08-.06.11.33.28.45.32.08.03.19-.01.24-.12.06-.11.05-.23-.02-.28M293.22,28.7c.53.65,1.08,1.21,2.01,1.14-.67-.79-1.56-1.07-2.01-1.14M302.11,52.15c-.76,1.02-.97,3.32-1.2,4.08.27-.24,1.65-3.51,1.2-4.08M297.59,31.84c-.05-.21-.59-.97-1.74-1.21.31.29.5.82.62,1.01-.22.12-.83.18-1.03.21.41.29,1.19.36,2.15-.01M297.44,39.07c-.77.83-.05,2.48.39,3.96.41-.72.89-3.18-.39-3.96M301.51,42.85c-.44,2.03-1.32,2.8-1.32,2.8,0,0-.7-.57-1.3-1.36-.03,1.65,1.37,3.23,1.34,3.22,0-.01,1.72-1.38,1.28-4.67M299.34,35.83c-.16.92,1.32,2.31,1.31,2.32,0,0,.2-1.76-1.31-2.32M296.28,33.63c.38.38,1.59.67,2.27,1.3-.1-1.04-1.16-1.69-2.27-1.3M316.82,45.09c-.33,3.43-.59,4.13-.93,4.73-.29-.21-.52-.91-.52-.91-.1.62.04,1.57.54,2.08.67-.89,1.15-2.8.92-5.89M285.36,50.56c-.26-1.62-.15-2.71-.94-4.14-.26,1.71.77,3.88.94,4.14M310.81,54.26s-.53-1.3.7-5.21c-1.8,3.99-1.56,5.06-1.16,6.42.77-.58,1.07-.97,1.25-1.87-.29.45-.78.67-.78.67M309.61,50.87s-.43-.88.67-4.28c-2.01,3.23-1.13,5.49-1.13,5.49,0,0,1.06-.56,1.33-1.78-.3.41-.87.57-.87.57M318.37,53.1s.87-1.44.42-3.86c-.11,2.28-.62,3.12-.62,3.12,0,0-.31-.22-.38-.38-.02.7.57,1.12.57,1.12M316.57,50.81c-.05.79.6,1.29.6,1.29,0,0,1.05-1.6.64-4.37-.21,2.59-.75,3.48-.75,3.48,0,0-.42-.21-.49-.39M316.19,42.79c-.51,3.83-1.08,4.71-1.48,5.36-.29-.24-.56-1.18-.56-1.18-.13.69-.02,1.76.51,2.35.78-.97,1.65-3.05,1.53-6.54M301.01,65.28s-.01-.6-.21-.82c-.16.75-1.15,2.32-.93,4.15.45-1.63,1.71-1.97,2.04-3.48.27.19.52.26.79.29-.15-.6-.59-1.22-.74-2.47-.14.42-.3,1.65-.95,2.34M315.26,41.37c-.49,3.17-1.34,4.51-1.77,5.14-.34-1.05-.26-2.08-.26-2.08-.49,1.5-.34,2.74.16,3.36.84-.91,2.04-3.77,1.88-6.42M312.18,44.32c-.24-1.08-.11-2.7-.11-2.7-.62,1.45-.54,3.42-.1,4.09.91-.84,2.17-3.31,2.26-5.97-.78,3.12-1.56,3.99-2.05,4.57M296.37,50.43s1.47-1.37,1.6-4.19c-.82,1.39-1.74,2.17-1.73,2.17,0,0-.79-.53-1.44-1.33,0,1.79,1.58,3.35,1.56,3.35M274.42,46.5c-.43-.62-1.27-1.96-1.77-5.14-.15,2.65,1.04,5.51,1.88,6.42.5-.63.65-1.86.16-3.36,0,0,.09,1.03-.26,2.08M277.09,54.26s-.49-.22-.78-.67c.16.91.48,1.3,1.24,1.87.4-1.36.64-2.43-1.15-6.42,1.23,3.91.69,5.21.69,5.21M275.72,44.32c-.49-.58-1.26-1.46-2.04-4.57.09,2.65,1.34,5.13,2.25,5.97.44-.67.52-2.64-.1-4.09,0,0,.12,1.62-.11,2.7M287.3,29.01c-.1.07-.19.39.18.4.3,0,.37-.33.37-.33,0,0-.39-.16-.55-.07M272.01,49.81c-.34-.59-.6-1.3-.93-4.73-.23,3.1.24,5,.92,5.89.5-.5.64-1.46.53-2.08,0,0-.24.7-.52.91M269.73,52.37s-.5-.85-.61-3.13c-.45,2.43.42,3.87.42,3.87,0,0,.59-.42.58-1.12-.07.16-.38.38-.38.38M270.85,51.2s-.54-.89-.76-3.48c-.41,2.77.64,4.37.64,4.37,0,0,.65-.5.6-1.29-.07.19-.49.4-.49.4M273.2,48.16c-.4-.65-.97-1.53-1.48-5.36-.12,3.49.74,5.56,1.53,6.54.53-.59.66-1.66.51-2.35,0,0-.27.94-.56,1.18M287.76,68.49c.22-1.83-.77-3.4-.92-4.15-.2.22-.21.82-.21.82-.66-.69-.81-1.92-.96-2.34-.15,1.25-.59,1.86-.74,2.47.28-.03.52-.11.8-.29.33,1.52,1.59,1.85,2.04,3.48M278.29,50.87s-.57-.16-.87-.57c.27,1.22,1.33,1.78,1.33,1.78,0,0,.88-2.25-1.14-5.49,1.1,3.4.68,4.28.68,4.28M296.31,60.29c.34-.79,1.21-2.25,1.03-3.95-.75.64-1.1,2.94-1.03,3.95M296.21,65.49c.36-.85,1.11-1.68,1.08-4.39-.81.81-1.16,3.35-1.08,4.39M296.61,52.78c-.32,1.14-.83,1.89-1.67,2.74-.36-.33-.72-.72-1.2-1.7-.19,1.9.89,3,1.51,3.41.39-.32,1.65-2.11,1.36-4.46M294.61,66.53c.42-1.09.39-2.45-.07-3.04-.37,1.17-.39,2.2.07,3.04M293.4,63.27c.41-1.25.31-2.76-.22-3.43-.36,1.27-.34,2.44.22,3.43M329.36,90.65c-2.59,5.09-5.82,8.26-10.22,11.07-6.44,4.08-13.15,3.1-15.34,1.84,0,0,.18.42.23.57.07.15.16.39.21.53.86,2.33.28,4.73-2.88,5.09-.83.09-1.76.13-2.85.64-.76.36-1.61.94-2.55,1.9-.39.41-1.21,1.46-1.61,2.27h0s0,0,0,0c-.4-.81-1.22-1.86-1.61-2.27-.94-.97-1.78-1.54-2.55-1.9-1.09-.51-2.02-.55-2.85-.64-3.14-.36-3.72-2.77-2.87-5.1.05-.13.14-.37.21-.51l.23-.57c-1.59.92-5.55,1.64-10.16.39-.11-.03-.34-.09-.45-.12-3.7-.98-6.99-2.82-9.76-5.44-3.36-3.15-5.19-6.56-5.88-7.84-6.12-12.67-5.26-31.47-5.29-33.47-.21-21.7,4.61-33.87,8.73-39.76-1.24-1.64-2-2.63-2.05-2.68-.42-.42-1.13-1.07-2.6-1.27-.4-2.85-1.46-6.22-1.46-6.22,0,0,2.84,2.05,5.49,3.2-.2,1.43.17,2.31.53,2.82.05.08.65.87,1.64,2.18,1.83-2.28,3.77-3.93,6.83-5.7.73-.42,1.52-.82,2.37-1.21-.05-1.16.34-2.24,1.11-3.02.03-.67.59-1.51,1.27-1.76h0c.7-.19,1.75.14,2.27.63,1.16.17,2.25.77,3.07,1.67,2.52-.54,5.37-.93,8.65-1.14.38-1.59,1.42-2.75,2.69-3.38.33-.69,1.29-1.39,2.11-1.43h0c.82.04,1.79.74,2.11,1.43,1.27.63,2.31,1.79,2.7,3.38,3.28.2,6.14.6,8.65,1.14.81-.91,1.92-1.51,3.07-1.67.52-.49,1.57-.82,2.28-.63.68.25,1.24,1.09,1.27,1.76.76.78,1.17,1.86,1.11,3.03.85.38,1.63.78,2.37,1.2,3.06,1.76,5.19,3.69,6.96,5.78,1.09-1.45,1.75-2.33,1.81-2.4.36-.52.73-1.39.53-2.82,2.65-1.15,5.49-3.2,5.49-3.2,0,0-1.06,3.38-1.47,6.22-1.46.2-2.17.86-2.59,1.26-.06.07-.93,1.2-2.33,3.05,4.1,5.93,8.85,18,8.64,39.56.03,1.72.85,20.89-5.27,33.56M327.41,22.48c-2.45.56-4.19.54-5.15.51-.66,1.41-1.19,2.73-1.15,5.14-.98-.29-1.66-.69-2.2-1.22-.78,1.03-1.58,2.1-2.4,3.18,5.36,12.82,6.2,23.52,6.32,26.68,8.72-4.97,9.98-6.39,10.4-7.02-.63-11.27-2.23-19.92-5.83-27.27M315.53,55.75c-.15,1.26-.15,2.32.15,3.48.56-.78.93-1.51,1.34-2.87,0,1.09.31,2.3.53,2.8.74-1.15,1.16-5.76,1.16-5.76,0,0,.03.11.41.26.39-1.65.18-5.03-.15-6.62-.58-2.8-1.61-6.2-4.82-10.23-1.66-2.07-3.06-1.14-4.45.49-2.25,2.62-2.73,3.77-5.44,4.29-.27.05-.07.19.46.19,3.25-.06,4.27-2.35,5.24-3.5.64-.77,1.48-1.45,2.17-1.02.26.16,1.15,1.26.23,3.96,0-.62-.22-1.15-.34-1.29-.42,1.79-.99,3.23-1.66,4.46-.09-.3-.15-.58-.2-.96-.32,2.19-2.16,4.47-2.43,7.59-.2-.34-.37-.56-.38-1.36-1.39,2.73-2.83,7.63-1.94,10.08-.03-2.5,1.41-6.09,2.15-7.22-.96,3.21-2.06,7.18-1.11,9.57.07-2.04,1.17-5.38,1.96-6.77-1.32,5.27-1.86,7.96-.39,9.99-.26-1.97.5-4.97,1.53-7.42-.68,4.12-1.66,7.71.15,9.52-.27-2.7.7-6.28,1.23-7.55-.58,3.89-1.09,7.65.01,9.6.02-.63.09-1.32.19-2.11.44-3.27,1.09-5.28,1.09-5.28,0,0-.38,2.78-.58,6.16-.2,3.3.35,4.83.72,5.48.33-4.49.82-8.36,1.38-10.16,0,0-.48,4.2-.8,10.62-.49,9.78.74,12.86,1.11,13.76,0,0-.08-.18-.11-1.36-.02-1-.03-.93.08-2.06.03-.33-.77-2.03-.66-4.31.31-6.43,1.1-12.73,1.78-15.67-.07,1.17-1.2,14.94-1.11,16.7.08,1.85.58,2.67.58,2.95-.1,3.6.24,5.05.82,6.41,0,0,.35-1.28.62-2.9-.06.09-.17.27-.34.32-.42-1.17-.64-3.22-.36-5.33.05-.38-.47-.86-.43-2.55.1-4.26,1.26-12.49,1.76-14.91.05.31-1.11,13.88-1.12,14.76-.03,1.78.42,2.32.39,2.64-.1,1.27-.06,3.65.11,4.24.16-.53.25-1.5.25-1.5,0,0,1.07-8.27,1.85-17.69.38-4.65.87-10.43,1.01-12.99-.06-.05-.1-.08-.1-.08,0,0-.43,4.94-1.66,6.67-.33-.32-.73-2.17-.71-2.79-.28.97-1.4,2.29-1.4,2.29,0,0-.39-.97-.33-2.59-.38.58-.71,1.03-1.27,1.35-.23-.57-.52-1.22-.48-2.82-.2.29-.55.71-1.14,1.08-.15-.38-.98-1.77.52-6.92-.59,4.76-.24,5.31-.12,5.69.29-.13.59-.39.77-.55.06-.86.2-1.94.45-3.35-.21,3.79.07,4.97.34,5.71.35-.27.85-.97,1.5-2.62M303.49,63.24s0-.1.03-.12c0,0,.02-.02.03-.02.02,0,.04,0,.04,0,.08,0,.17.05.34.16.09.06.2.13.35.2-.2-.44-.24-1.1-.29-1.85-.04-.75-.09-1.6-.32-2.36,0,0,0,.01-.01.02,0-.02-.01-.05-.02-.07-.13.38-.39.72-.67,1.07-.39.51-.79,1.04-.9,1.75l-.02.14-.11-.1c-.13-.12-.29-.29-.42-.48-.04-.06-.08-.11-.11-.18h0s-.02-.03-.03-.04c-.29,1.11-2.2,3.51-2.64,4.01h0c-.06.09-.79,1.17-1.07,3.86-.27,2.53,0,4.09,0,4.09l.68-.73s.02.7-.06,1.52c-.07.64-.27,1.13-.27,1.13,0,0,1.33.23,2.37-1.02l.18.49c.17.49.3,1.06-.08,1.36-.06.05-.71.61-.62,1.17.03.2.14.38.38.54l.02.02v.03c.03.31.26.48.42.56-.06-.26-.02-.42.01-.52.14-.36.39-.46.59-.47.15,0,.27.03.27.03h.04s0,.04,0,.04c0,.01.15,1.51.29,2.14.11.56.26,1.27.35,2.07.01.18.03.36.06.54.06.52.37.57.64.61.14.02.5,0,.66,0h.02s-.04.02-.04.02c-.4.11-.37.27-.36.32.05.23.19.52.04,1.01l.05.06c.61-.33.6-.89.54-1.38v-.04s.03-.02.03-.02c.46-.27.35-1.19-.31-2.59-.31-.65-.43-1.75-.24-1.86.01,0,.03,0,.04-.01.11-.02.23,0,.54.45.22.32.43.59.71.93.26.32.44.62.43.89,0,.1-.02.17-.08.21-.04.03-.1.05-.2.06-.13.01-.3,0-.43-.03.15.16.7.79.87.6.42-.49.03.29.78.38.47.02.81-.29.83-.87,0-.2-.03-.34-.06-.51-.09-.54-.51-1.08-.72-1.29l-.17-.18c-1.23-1.36-1.12-1.65-1.05-1.78.12-.21.23-.28.56-.29.48,0,1,.06,1.03.07.49.1,1.31.22,1.28.49,0,.04-.06.11-.12.14-.17.07-.45.17-.49.11.04.07.22.2.47.32.21.1,1.05.34,1.31-.06l.09-.18c.15,0,.56-.07.65-.35.08-.26-.26-.63-.62-.81-.29-.15-1.13-.48-1.83-.68-.27-.09-.62-.15-.88-.23l-1.47-.39s-.81-.26-1.1-.39c-.14-.07-.26-.11-.32-.15-.25-.14-.43-.29-.62-.54-.17-.23-.32-.84-.5-1.49.18.1.63.4,1.17.48-.04-.22-.09-.95-.05-1.33.23-2.44.28-3.85.28-3.85,0,0,.42.44.49.51.08-.42-.07-1.44-.15-2.47-.06-.69-.26-1.85-.48-2.85M305.25,74.87l1.15.3c.17.05.35.09.55.13.2-.55.29-1.11.27-1.67-.02-.63,1.43.71,2.4,1.68.4.41.48.23.25-.09-.97-1.33-2.88-2.58-3.43-2.91-.92-.58-1.38-.43-1.07.08.36.58.28,1.51-.12,2.49M306.5,84.38c1.04,1.25,2.68,3.58,3.31,4.21,1.36,1.36,1.94,1.51,2.98,1.57-.33-.93-.7-1.8-2.28-4.21-.81-1.24-2.19-3.03-3.28-4.44-.02.06-.05.11-.08.16-.1.17-.23.32-.39.44-.25.17-.55.24-.84.22-.3-.03-.55-.14-.73-.34-.18.02-.35-.03-.53-.14.06.52-.04.91-.28,1.18,0,.31-.06.97-.57,1.46.05.07.08.11.08.11.36.64.2.96.03,1.16-.15.18-1.88,2.1-2.26,2.45-.46.41-.95-.06-.95-.06l-.28-.24s-.44.45-.8.8c.03.03.07.06.09.09h0c.57.52,1.25.9,1.95,1.2.72.31,2.07.79,3.49,1.38h0c-.32-.75-.75-1.88-1.14-3.26.4.57,1.51,2.49,2.22,3.73h0c.11.05,1.11.53,1.49.73.27.13,1.22.64,1.42.76-.07-.61-.21-1.07-.21-1.07,0,0-.88-.86-1.46-1.66-1.21-1.65-1.98-3.37-2.36-4.52,1.36,1.96,1.71,2.52,2.25,3.21,1.71,2.2,3.54,3.16,4.24,3.18-.24-1.22-.69-1.5-.69-1.5,0,0-.88-.7-1.8-1.91-.79-1.04-1.74-2.6-2.62-4.66M302.03,96.25c2.44.3,7.66.23,9.54-.49-.7-.58-3.69-2.48-8.24-4.31-.94-.4-2.16-.84-2.98-1.43-.51-.37-.86-.63-1.36-1.09-1.5-1.38-5.45-5.49-6.14-6.26l-2.62,2.42s6.94,6.77,8.69,7.73c2.23,1.21,8.63,2.66,8.63,2.66,0,0-4.91-.37-8.64-1.88-2.24-.91-9.35-7.91-9.35-7.91l-1.72,1.59c.88.97,2.78,3.11,5.88,5.63,2.16,1.75,4.76,2.91,8.3,3.35M295.97,95.46c-.44-.22-.88-.48-1.31-.76h0l.39.8c.29.59.65,1.07.96,1.4.03-.06.07-.13.1-.19.15-.3.28-.64.4-.99-.13-.07-.36-.18-.53-.26M283.36,85.98c-.38,1.15-1.16,2.86-2.36,4.52-.58.81-1.46,1.66-1.46,1.66,0,0-.09.29-.16.71.17-.09.34-.17.51-.26.79-.43,1.69-.83,2.57-1.2.75-1.27,1.8-3,2.16-3.52-.35,1.25-.78,2.32-1.12,3.1,1.18-.46,2.2-.83,2.7-1.07.82-.37,1.19-.68,1.51-.92.06-.04.18-.15.33-.3.01.02-.84-.84-.84-.84l-.29.24s-.49.47-.95.06c-.39-.35-2.12-2.27-2.27-2.44-.17-.2-.37-.54.03-1.16,0,0,.01,0,.03-.03-.55-.49-.62-1.17-.61-1.49-.25-.27-.34-.67-.28-1.18-.17.1-.35.16-.53.14-.18.19-.42.31-.72.34h-.11c-.29,0-.56-.09-.77-.24-.98,1.28-2.07,2.72-2.76,3.77-1.58,2.41-1.95,3.28-2.29,4.21,1.04-.07,1.63-.22,2.98-1.57.63-.63,2.27-2.97,3.32-4.21-.88,2.06-1.83,3.62-2.62,4.66-.93,1.21-1.8,1.91-1.8,1.91,0,0-.46.28-.7,1.5.71-.01,2.53-.97,4.25-3.17.54-.69.89-1.24,2.25-3.2M281.67,78.94l-.16.18c-.2.21-.62.75-.72,1.29-.03.18-.06.31-.06.51.02.58.37.89.84.87.73-.08.36-.86.77-.38.17.2.73-.44.88-.59-.13.02-.29.04-.43.03-.09,0-.16-.02-.2-.06-.05-.04-.08-.11-.08-.22,0-.27.17-.56.43-.89.28-.34.49-.6.7-.92.31-.46.43-.46.54-.45h.04c.18.15.08,1.22-.23,1.87-.66,1.4-.77,2.33-.31,2.59l.04.02v.04c-.07.49-.07,1.05.53,1.38l.06-.06c-.15-.49-.01-.78.03-1.01,0-.05.04-.21-.36-.32h-.04s.02-.02.02-.02c.16.01.51.03.66,0,.27-.04.58-.09.64-.61.01-.18.03-.36.05-.54.09-.8.23-1.52.35-2.07.13-.64.29-2.13.29-2.14v-.03s.04,0,.04,0c0,0,.12-.04.28-.03.19.01.45.11.59.47.04.1.07.27.02.52.16-.08.39-.25.41-.56v-.03l.02-.02c.24-.16.35-.35.37-.54.09-.55-.56-1.12-.61-1.17-.39-.3-.26-.87-.09-1.36l.22-.58c.19.23.45.47.75.64.89.63,1.78.48,1.78.48,0,0-.2-.49-.27-1.13-.09-.81-.06-1.52-.06-1.52l.67.73s.4-1.34.14-3.88c-.3-2.93-.92-4.08-1.05-4.49-.21-.66-.58-1.31-.58-1.31,0,0-.06.35-.53.76-.57-.7-1.57-2.1-1.82-3.04-.15.28-.38.52-.56.69l-.11.1-.02-.14c-.11-.7-.51-1.23-.9-1.75-.27-.36-.54-.7-.67-1.07-.23.76-.28,1.6-.33,2.36-.04.75-.09,1.41-.29,1.85.14-.08.26-.15.35-.21.17-.1.26-.16.33-.16h.06s.02.03.02.03c.03.03.03.08.03.12-.22,1-.42,2.15-.49,2.85-.08,1.02,0,1.92.08,2.34.07-.08.76-.44.76-.44,0,0-.45,1.47-.22,3.91.04.39,0,1.12-.04,1.34.46-.07.85-.29,1.07-.42-.18.65-.33,1.25-.5,1.47-.19.26-.38.4-.62.54-.07.03-.18.08-.32.15-.29.13-1.06.38-1.09.39l-1.48.39c-.26.08-.55.14-.83.2-.54.12-1.59.57-1.88.71-.36.18-.7.55-.62.81.09.28.5.35.65.35l.09.18c.27.39,1.11.16,1.32.06.24-.11.41-.25.46-.32-.04.07-.32-.03-.5-.1-.07-.03-.12-.1-.12-.14-.03-.27.79-.39,1.29-.49.03,0,.55-.08,1.03-.07.32,0,.44.08.56.29.08.13.18.43-1.05,1.78M282.27,72.34c.32-.51-.14-.65-1.07-.08-.55.34-2.46,1.59-3.42,2.92-.23.32-.16.49.25.09.96-.97,2.42-2.31,2.39-1.68-.02.57.08,1.14.28,1.69.16-.03.3-.07.44-.11l1.26-.33c-.4-.98-.49-1.92-.12-2.5M280.33,52.5c.75,1.14,2.19,4.73,2.15,7.22.89-2.45-.55-7.35-1.94-10.08,0,.8-.18,1.02-.37,1.36-.26-3.13-2.11-5.4-2.43-7.59-.06.39-.12.66-.2.96-.68-1.23-1.25-2.67-1.67-4.46-.12.14-.34.67-.34,1.29-.91-2.71-.03-3.8.23-3.96.69-.43,1.53.25,2.17,1.02.97,1.15,1.99,3.44,5.24,3.5.53,0,.73-.13.47-.19-2.71-.52-3.19-1.68-5.44-4.29-1.4-1.62-2.8-2.56-4.45-.49-3.22,4.04-4.26,7.43-4.83,10.23-.33,1.59-.55,4.97-.15,6.62.38-.14.4-.26.4-.26,0,0,.42,4.61,1.17,5.76.21-.49.52-1.7.52-2.8.41,1.36.78,2.09,1.34,2.87.3-1.15.3-2.22.16-3.47.65,1.65,1.15,2.34,1.49,2.62.28-.74.55-1.92.33-5.71.26,1.4.39,2.49.45,3.35.19.17.49.42.78.55.12-.39.47-.94-.12-5.69,1.49,5.15.67,6.54.51,6.92-.58-.37-.93-.79-1.13-1.08.04,1.6-.24,2.25-.48,2.82-.57-.32-.89-.77-1.27-1.35.05,1.61-.34,2.59-.34,2.59,0,0-1.13-1.32-1.4-2.29.03.62-.37,2.46-.7,2.79-1.24-1.73-1.66-6.67-1.66-6.67,0,0-.04.03-.1.08.14,2.56.64,8.35,1.02,12.99.77,9.42,1.85,17.69,1.85,17.69,0,0,.09.97.25,1.5.17-.59.22-2.97.11-4.24-.02-.32.42-.86.39-2.64-.01-.88-1.18-14.45-1.12-14.76.5,2.41,1.66,10.65,1.76,14.91.04,1.69-.49,2.17-.44,2.55.29,2.11.07,4.15-.36,5.33-.17-.06-.28-.23-.34-.32.27,1.61.61,2.9.61,2.9.59-1.35.93-2.81.83-6.41,0-.29.49-1.09.57-2.95.09-1.76-1.05-15.53-1.11-16.7.68,2.94,1.47,9.24,1.79,15.67.11,2.28-.69,3.98-.67,4.31.11,1.14.1,1.07.08,2.06-.03,1.19-.11,1.37-.11,1.37.37-.9,1.59-3.98,1.11-13.76-.32-6.42-.8-10.62-.8-10.62.56,1.79,1.05,5.67,1.37,10.16.38-.65.92-2.18.72-5.48-.2-3.38-.58-6.16-.58-6.16,0,0,.65,2.01,1.09,5.28.1.79.17,1.48.19,2.11,1.11-1.95.59-5.72.02-9.6.52,1.27,1.49,4.85,1.23,7.55,1.81-1.81.82-5.4.14-9.52,1.03,2.45,1.78,5.45,1.53,7.42,1.46-2.04.92-4.72-.39-9.99.79,1.39,1.9,4.73,1.96,6.77.96-2.39-.15-6.36-1.11-9.57M315.8,27c-6.44-6.35-15.65-6.79-18.05-6.61-.57.04-1.21.49-.5,1.42-.52.24-2.49.06-3.22-.63-.74.69-2.71.87-3.23.63.71-.93.08-1.38-.49-1.42-2.42-.18-12.11.77-17.97,6.48,3.23,4.26,9.97,13.17,10.11,13.34.13.17.46.39.87.39.06,0,.11,0,.16,0,.35-.01.68-.25,1.03-.64.7-.76,1.05-1.19,1.74-1.89,1.32-1.35,2.57-2.38,2.78-2.57.56-.52.74-.93.76-1.36-.04-.49-.42-.68-.65-.98-.01.04-.09.12-.12.17-.21-.17-.46-.92-.46-.92l-.13.35s-.49-1.19-1.28-1.08c-1.08.14-1.78-.32-1.86-.35-.06-.02-.1.35-.08.77-.01,0-.03,0-.04-.02-.74-.62-.97-2.24.46-3.29.88-.64,1.04-.62,1.71-.94.29-.13.5-.41.58-.49.45-.56,1.36-.87,1.88-1,.66-.18,2.22-.39,3.78-.31.87.05,1.7.25,2.29.49.47.19,1.8,1.17,2.54,2.14.49.64,1.32,2.44,1.78,3.59.99,2.4.87,2.14,1.54,3.73.76,1.82,1.22,2.83,1.95,3.86.25.35.52.49,1.02.52.37.02.73-.05,1.06-.25.29-.18.36-.29.44-.42,2.26-3.28,6.47-8.55,9.62-12.71M298.06,65.21s.86-.82,1.17-3.5c.16.2.47.39.56.78.54-.66,1.62-4.26,1.74-5.48.36.16.04.08.45.28.29-.52.91-2.57,1.18-5.41.13.04.37.04.46.16.19-1.3.38-3.38.43-4.84.05-1.25.01-3.84-.52-5.31-.54-1.48-.79-2.27-1.65-3.63,0,0-.3.15-.46.36-.24-.72-.89-2.44-1.21-3.08-.82-1.58-1.2-2.61-2.05-3.14.39.02.54.11,1.02.09-.55-.52-.76-.88-1.38-1.36.2-.14.56-.13,1.15-.02-.84-.77-1.12-1.93-3.27-2.74.38-.07.68.06,1.19.05-.27-.42-.92-1.12-2-1.44-2.2-.43-5.24-.5-6.67,1.18-.1.12-.49.2-.83.32-.24.09-.34.16-.41.21-.25.18-.29.42.18,1.1-.62-.09-.78-.68-.88-.62-.23.14-.43.33-.66.67-.2.31-.39.96-.34,1.24.07.06.59.3.69-.31.04-.21,1-.3,1.34-.3.48,0,.93.12,1.54.09-.22.08-.9.28-1.14.35-.28.08-.3.37-.04.39.28.03.4-.09.68-.15.12.08,0,.38.1.55,1.77-.41,1.91,1.5,3.8,1.13-.89-.69-1.65-1.86-2.35-2.21,1.86.29,2.88,1.97,4.89,2.05q-.07-.19-.24-.54c.69,0,1.18.53,1.38.51-.26.28-.84.5-1.61.6.13.26.89.31,1.15.35-.41.37-.88.55-1.78.37-.3.28-.7.9-2.02,1.7q.02-.32.07-.62c-.87.5-1.44,1.42-2.09,1.67.19-.32.35-.88.49-1.17-2.27,2.05-4.45,4.03-5.26,5.52-.92,1.66-1.2,3.38-1.09,6.21.09,1.51.73,5.81.85,6.66.19-.08.32-.15.47-.21.55,3.15,2.18,7.58,3.03,9.02.16-.35.25-.49.5-.67.13.85.58,1.8,1.27,2.41-.02-.57.23-.9.29-1.09.2.61.08,2.5,1.17,3.55-.06-.52.12-.97.28-1.66.19.6.23,1.37.52,1.98.34.72.77,1.44,1.16,1.62-.05-1.49.19-1.41.23-2.03.02.13.59.67.87,2.55,1.11-.85,1.53-3.63,1.53-3.63,0,0,.31.28.55,1.05.96-1,1.26-2.33,1.55-3.33.1.7.12,1.39.04,1.74M299.18,79.93c1.33-.01,1.67,0,2.19-.09-.03-.16-.07-.3-.09-.42-.01-.1-.03-.2-.04-.31,0,0-.02,0-.03,0-.46.1-1.34.37-2.52.16-.57-.11-.59-.13-1.03-.26-.4-.12-1.04.54-1.54,1.07-.42.45-.98,1.09-1.23,1.36-.04.04-.04.09,0,.13.45.41,5.93,5.42,6.27,5.73.09.08.15.09.26-.02.24-.25.6-.64.96-.99,0,0-5.42-5.09-5.5-5.17-.09-.08-.1-.19-.06-.23.04-.05.28-.29.32-.34.04-.05.17-.06.24.03.08.09,1.78,1.67,1.78,1.67l2.33,2.08,1.47,1.3c.2-.22.18-.17.24-.24.22-.24.16-.4-.58-1.12-.21-.2-3.79-3.79-3.79-3.79-.37-.42-.09-.56.33-.56M290.73,81.08c-.09.08-5.5,5.17-5.5,5.17.35.35.71.74.96.99.11.11.17.1.26.02.34-.31,5.82-5.31,6.27-5.73.05-.04.06-.09.01-.13-.25-.27-.81-.9-1.24-1.36-.49-.52-1.13-1.18-1.53-1.07-.44.13-.47.14-1.04.26-1.17.2-2.04-.06-2.51-.16-.04,0-.08-.02-.12-.04,0,.14-.03.26-.04.39-.02.11-.04.23-.08.36.58.11.88.09,2.28.1.42,0,.7.14.32.56,0,0-3.58,3.58-3.79,3.79-.75.7-.79.88-.58,1.12.05.07.03.02.24.23l1.46-1.3,2.34-2.07s1.7-1.58,1.77-1.66c.08-.09.2-.09.25-.03.04.05.28.29.32.33.04.04.03.15-.06.23M291.26,68.3s0-.32-.2-.74c-.11-.22-.47-.49-.64-.7-.14-.18-.17-.28-.17-.28-.04.2.05.69.11.89.06.22.21.45.47.61.27.18.42.21.42.21M291.21,78.7s.4.39.48.47c.09-.56.36-2.42.25-2.6-.63,1.2-.71,2.02-.72,2.14M289.02,78.57c.2-.07.73-.3,1-.38.07-.02.18-.04.21-.04.16-.56.42-1.42.6-1.82-.17-.04-1.54,1.85-1.82,2.23M293.06,80.57c-.03-.74-.06-1.54-.11-1.9-.23.33-.38.83-.48,1.28.06.06.53.56.59.62M293.41,75.67s-.13-.94-.83-1.25c.03.68.83,1.25.83,1.25M293.97,74.11s0-.01,0-.03c0,0,0,.01,0,.03,0,0,.11-.26.5-.55.25-.19,1.79-1.11,2.08-1.51s.42-.96.42-.96c0,0-.27.44-.88.79-.52.29-1.72,1.05-1.94,1.41-.11.19-.15.34-.17.47,0-.11-.04-.22-.1-.36-.37-.78-1.48-1.09-2.14-1.86-.44-.5-.46-.7-.46-.7-.01.52.09.91.3,1.19.19.25.74.73,1.48,1.22.75.49.9.85.9.85M293.25,71.34c0-1.21-1.34-1.36-1.64-2.56-.16,1.7,1.02,1.73,1.64,2.56M293.87,76.19s.17-.07.55-.3c.34-.2.63-.43.8-.76.18-.35.15-.65.12-.85,0,0-.08.32-.52.73-.2.18-.46.44-.61.63-.23.29-.35.55-.35.55M295.04,76.9c.12.73.22,2.43.25,2.98h0c.2-.2.41-.41.61-.62-.04-.26-.28-1.61-.86-2.35M293.95,81.34s.44-.53.65-.75c0-.01.02-.02.03-.04-.13-.93-.34-2.11-.65-2.55-.07.44-.05,2.09-.03,3.33M293.95,81.84c0,.41.01.73.02.88.03-.04.43-.46.43-.46,0,0-.33-.29-.45-.43M294.24,83.29c.76.8,1.78,1.86,2.45,2.53.44-.43.71-.69.71-.69l-2.62-2.41c-.1.12-.29.31-.54.58M297.34,86.43c.57.56,1.2,1.2,1.7,1.7.29-.32.54-.59.73-.81l-1.72-1.59s-.27.27-.72.7M297.85,78.31c-.27-.36-1-1.33-1.63-1.89.43,1.01.62,1.65.68,1.9h0s.07-.04.1-.06c.1-.05.22-.08.33-.08.1,0,.22.04.36.08,0,0,.1.03.15.05M297.21,68.43c-.34.55-.62.85-1.05,1.24.14-.4.17-.84.17-.85-.2.42-.69,1.01-1.01,1.33-.78.78-.93,1.54-.93,1.54,0,0,.21-.28,1.15-.84.99-.58,1.36-1.48,1.67-2.42M284.97,57.83c0,.95.67,2.27,1.57,2.79-.54-1.46-.96-1.93-1.57-2.79M316.28,26.36c.22-.29.44-.58.66-.87-2.95-2.6-7.31-5.23-12.1-6.27-3.24-.7-5.83-.76-7.45-.74-1.34.02-2.2.53-2.2,1.37-.83-.15-1.06-1.2-1.16-1.39-.08.44-.49,1.29-1.15,1.39,0-.84-.86-1.35-2.2-1.37-1.63-.02-4.2.04-7.45.74-4.88,1.06-9.09,3.46-12.03,6.1.21.29.43.58.65.86,2.64-2.49,6.16-4.45,9.91-5.55,3.11-.91,6.93-1.23,8.69-1.15,1.57.07,1.79.96,1.61,1.45.7.07,1.74-.54,1.96-.95.17.31,1.12,1.01,1.98.95-.19-.49.04-1.38,1.61-1.45,1.75-.08,5.58.24,8.69,1.15,3.67,1.07,7.34,3.3,9.98,5.73M318.04,23.18c.33,1.15.68,2.43,1.65,3.2.13.1.28.2.44.29h.02c-.02-2.18.72-3.37,1.3-4.66h0c.82.1,1.88.41,4.07.01-2.07-1.39-1.62-2.96-3.16-4.67-.17-.18-.35-.37-.57-.55-.55-.39-.96-.53-1.26-.54-.38-.01-.59.19-.71.31-.2.22-2.35,2.53-3.77,4.13,1.27-.03,1.61,1.14,1.98,2.48M319.46,15.52c-1.45-1.43-3.74-3.01-6.5-4.21-7.19-3.16-16.32-3.17-18.93-3.17h0s0,0-.01,0c-2.61,0-11.73.01-18.92,3.17-2.75,1.2-5.05,2.78-6.5,4.21,0,0,3.26,3.65,4.09,4.64.45.52.59.96.33,1.73,5-3.35,10.68-5.02,20.8-5.08h.46c9.95.09,15.8,1.77,20.74,5.08-.25-.78-.11-1.21.33-1.73.84-.99,4.09-4.64,4.09-4.64M268.24,16.59h0c-.2-.23-.71-.68-1.97.22-2.23,1.93-1.51,3.68-3.8,5.22.82.15,1.48.2,2.04.2.37,0,.68-.02.97-.06.43-.05.77-.12,1.07-.16h0c.58,1.29,1.3,2.47,1.28,4.66,2.68-1.42,1.59-6.01,4.08-5.95-1.41-1.58-3.44-3.88-3.68-4.13M269.97,25.83c1.97,2.62,3.45,4.59,3.75,5,.68.94,3.04,3.77,3.02,3.4-.01-.21-1.45-2.22-2.36-3.46-1.33-1.79-2.72-3.65-4.07-5.45-.13.19-.24.36-.34.51M280,43.19c0,1.85.35,3.21.95,5.47.07-2.39-.39-4.82-.95-5.47M278.77,41.09c-.13.86-.11,1.93.08,2.73.13.56.38,1.08.58,1.57.09-1.66-.32-3.47-.66-4.31M283.38,57.31c.3-1.02.66-7.56-1.77-10.38.63,2.53,1.42,5.49,1.77,10.38M276.06,95.8c1.88.73,7.1.8,9.53.49,3.11-.39,5.51-1.33,7.51-2.75-.52-.44-1.16-1.03-1.82-1.66-1.05.85-1.98,1.52-2.57,1.75-3.73,1.51-8.64,1.88-8.64,1.88,0,0,6.41-1.45,8.63-2.66.42-.22,1.15-.79,2-1.53-.83-.79-1.64-1.59-2.24-2.2-.41.37-.74.61-1.18.93-.82.59-2.04,1.02-2.98,1.43-4.55,1.83-7.53,3.73-8.24,4.3M291.7,95.48s.11.38.24.67c.03.06.29.66.33.72.3-.33.66-.79.94-1.36l.66-1.35s-.02,0-.02-.02c-.04.03-.4.29-.59.43-.29.19-.57.37-.86.54-.11.07-.54.29-.64.35-.02,0-.03.02-.06.03M304.42,57.31c.35-4.89,1.15-7.85,1.77-10.38-2.43,2.82-2.07,9.35-1.77,10.38M305,46.42c.77-2.31.12-3.48-.33-3.71-.01,1.07.27,1.56.33,3.71M306.97,48.75c.59-2.26.94-3.62.94-5.47-.55.65-1.01,3.08-.94,5.47M308.49,45.49c.2-.49.45-1.01.58-1.57.19-.8.21-1.87.09-2.73-.34.84-.75,2.64-.66,4.3M314.65,30.68c.28-.39,1.64-2.2,3.47-4.64-.13-.16-.26-.32-.36-.49-1.26,1.68-2.54,3.41-3.77,5.07-.91,1.24-2.35,3.24-2.36,3.46-.02.36,2.33-2.46,3.02-3.4M325.23,18.56c-.21.28-.66.88-.66.88.57,1.03,1.18,2.1,2.8,2.95-.65-1.31-1.36-2.59-2.14-3.82M323.73,17.67c.05.08.25.43.3.52,3.72-4.96,7.14-9.49,7.14-9.49,0,0-1.44,1.02-3.52,1.99.2,1.12-.5,2.52-.77,2.86-.11.14-1.35,1.74-3.15,4.12M275.68,4.7h0c-.32.17-.62.62-.62,1.13-.75.76-1.16,1.83-.74,3.09-3.91,1.61-7.39,4.09-9.99,7.33.18.23.37.49.56.74,2.78-3.57,6.49-6.11,10.96-7.79-.36-.53-.86-1.69.45-2.97h0c1.94.24,2.42,1.41,2.54,2.01,3.49-.95,7.62-1.52,12.24-1.69.16-3.19,2.42-3.95,2.42-3.95,0,0,.04-.6.53-.8h0c.49.2.52.8.52.8,0,0,2.26.77,2.42,3.95,4.61.17,8.75.74,12.24,1.69.12-.6.6-1.77,2.53-2.01h0c1.31,1.27.8,2.44.45,2.97,4.47,1.68,8.3,4.32,11.08,7.88.2-.26.39-.52.58-.76-2.6-3.21-6.23-5.81-10.12-7.41.42-1.27,0-2.33-.74-3.09,0-.51-.29-.95-.62-1.12h0c-.37-.05-.93.12-1.31.51-1.13.17-2.23.75-2.83,1.94-2.89-.69-6.14-1.16-10.3-1.37-.1-1.91-1.21-3.09-2.57-3.77-.29-.67-.87-1.04-1.35-1.16-.49.12-1.07.49-1.36,1.16-1.36.68-2.47,1.85-2.57,3.77-4.16.21-7.41.68-10.3,1.37-.6-1.19-1.7-1.77-2.83-1.94-.38-.39-.94-.57-1.31-.52M264.11,18.03c.11-.21.23-.37.32-.49-1.69-2.22-2.83-3.7-2.94-3.83-.27-.34-.97-1.75-.77-2.86-2.08-.97-3.52-1.99-3.52-1.99,0,0,3.27,4.34,6.9,9.18M260.63,22.43c.31-.19,1.38-.86,2.04-1.78.33-.47.58-.92.79-1.34-.02-.03-.71-.91-.71-.91-.78,1.31-1.48,2.65-2.13,4.03M254.79,49.65c.42.63,1.67,2.05,10.4,7.02.12-3.17.96-13.94,6.38-26.83-.78-1.03-1.54-2.04-2.29-3.03-.56.59-1.27.99-2.33,1.31.04-2.41-.48-3.73-1.15-5.14-.96.02-2.6.06-5.19-.49-3.44,7.35-5.18,15.9-5.82,27.15M285.85,101.27l.04-.1c.26-.7,1.79-4.32,1.79-4.32-.07,0-.12.02-.19.03-.68.12-1.38.22-2.08.29-.4.04-6.47.97-10.87-1.09.65-.46,1.98-1.56,3.79-2.62.02-.19.06-.38.1-.56-1.01.54-1.97.63-2.71.6-.07-.63.11-1.45.45-2.38-.96.2-1.69-.02-1.69-.02,0,0,.63-1.94,2-4.28,1.07-1.82,2.49-3.66,3.82-5.28-.08-.18-.13-.38-.14-.6,0-.26.05-.47.07-.63.15-.81.79-1.5.87-1.58.04-.04.23-.25.26-.29-.18-.16-.36-.3-.52-.43-.17.19-.31.28-.43.33-.51.23-.81.31-1.08.33-.56.02-.88-.09-1.08-.37l-.04-.07c-.41-.11-.69-.36-.79-.68-.02-.07-.03-.14-.03-.21-.31.1-.53.12-.8-.11-.39-.34.15-2.03,2-3.79,1.29-1.23,2.52-1.94,3.65-2.44.88-.38,1.39.37.97.88-.52.61-.91,1.7-.39,2.83.53-.18.74-.26.82-.29.21-.08.46-.15.73-.51.02-.03.06-.1.09-.2l-.77.1c.39-.97-.21-3.35.19-4.9-.1.08-.38.26-.53.31-.29-1.4-.24-3.63-.13-4.72-.02-.29-.45-.82-1.04-1.4-.42.78-1.07,1.62-2.08,2.94-.89,1.17-2.5,2.23-3.33,5.98,0,0,0,.02,0,.02-.04.15-.07.3-.11.44h0c-.05.16-.1.32-.16.48-.04.1-.08.2-.11.31-.06.16-.13.32-.2.49-.54,1.18-.5,1.88-.5,1.88h0c.06,2.35-.04,7.26-.58,10-.48,2.41-1.27,3.63-1.27,3.63l-.13-.11c-.21.82-.57,2.25-1.45,3.38,0,0-.76-1.6-2.13-13.83-1.5-13.46-2.27-27.51-2.27-27.51h0c-.14-2.49.34-5.41,1.05-7.52,1.17-3.42,3.36-6.67,4.67-8.03.35-.36.77-.67,1.26-.81,0,0,.29-.08.44-.09-.95-1.27-1.91-2.54-2.85-3.79-5.93,14.62-6,26.26-6,26.38l-.06,1.38-1.17-.68c-6.65-3.67-8.77-5.22-10.48-6.71-.07,1.45-.21,6.2-.21,6.2,0,.09,0,1.12,0,2.99,0,5.7,1.02,19.7,5.67,29.31.65,1.2,2.39,4.41,5.53,7.36,2.38,2.24,5.16,3.84,8.24,4.83.18.06.54.18.72.24,3.56,1.13,7.42.89,11.22-1.01M285.59,105.23c.7-.59,1.81-1.02,3.19-.45.11-2.24.49-5.32.93-7.49-.11.1-.36.28-.46.35-.09.07-.29.19-.36.22-.02,0-.03,0-.03,0s-.01,0-.02,0c-.04-.02-.13-.15-.15-.19-.49,1.18-3.07,7.51-3.09,7.57M299.1,106.46c.09-1.99-.85-7.81-1.25-10.2h0c-.14-.05-.28-.1-.42-.16-.11.32-.24.66-.4.98-.29.61-.75,1.25-.83,1.23-.08,0-1.29-.83-2.06-2.43-.78,1.58-1.97,2.39-2.05,2.4-.09,0-.54-.63-.84-1.24-.16-.34-.29-.68-.41-1.02-.01.02-.03.05-.05.07-.38,2.44-1.25,8.38-1.17,10.37-2.63-1.75-4.23,0-3.69,1.21.05.1.11.2.18.29.32.42.73.65,1.31.69.85.06,1.97.14,3.25.74,1.16.55,2.42,1.45,3.69,3.05,1.28-1.6,2.53-2.5,3.7-3.05,1.27-.59,2.4-.68,3.25-.74.57-.05.98-.31,1.3-.69.07-.08.12-.18.18-.29.54-1.22-1.06-2.96-3.69-1.21M303.13,105.23c-.01-.05-2.77-6.81-3.07-7.54,0,0,0,0,0,0-.03.05-.08.11-.12.14-.01,0-.02.01-.03.01,0,0-.02,0-.04,0-.13-.06-.53-.31-1-.75.51,1.94.96,5.1,1.08,7.68,1.37-.57,2.48-.14,3.19.45M333.55,57.68c-.03-1.92-.14-4.78-.21-6.22-1.7,1.48-3.83,3.04-10.48,6.71l-1.17.68-.06-1.39c0-.11-.07-11.68-5.94-26.24-.92,1.21-1.84,2.43-2.76,3.66.02,0,.04,0,.06,0,.08.02.15.05.23.07.44.18.83.44,1.16.79,1.3,1.36,3.43,4.64,4.66,8.03.67,2.13,1.19,5.04,1.06,7.52h0s-.77,14.04-2.27,27.5c-1.37,12.23-2.12,13.83-2.12,13.83-.88-1.12-1.24-2.56-1.45-3.37l-.13.11s-.8-1.22-1.28-3.63c-.54-2.74-.64-7.65-.59-10.01h0s.03-.68-.5-1.86c-.25-.56-.45-1.11-.59-1.71,0,0,0-.01-.01-.03-.83-3.76-2.44-4.82-3.32-5.98-1.12-1.46-1.81-2.34-2.21-3.19-.65.62-1.16,1.26-1.18,1.61.22,2.27.43,3.88.09,5.03-.14-.07-.35-.29-.48-.39.15,1.5-.56,3.23-.1,4.61l-.89-.12c.04.1.07.18.1.22.12.17.24.27.45.39.04.02.22.1.29.13.08.04.29.12.91.32.51-1.13.12-2.21-.39-2.82-.42-.51.09-1.26.97-.88,1.13.5,2.35,1.21,3.65,2.44,1.85,1.76,2.39,3.46,2,3.79-.3.26-.54.2-.9.08,0,.07,0,.13-.03.2-.1.33-.38.57-.79.68l-.04.07c-.2.28-.52.38-1.08.37-.48-.01-1.01-.29-1.08-.33-.09-.05-.22-.12-.37-.27-.17.13-.34.27-.52.43,0,.01.2.22.2.22.12.12.72.78.86,1.57,0,0,.04.25.05.37,1.54,1.83,3.34,4.05,4.62,6.24,1.36,2.33,2,4.28,2,4.28,0,0-.73.22-1.68.02.34.93.52,1.75.45,2.38-.74.02-1.7-.06-2.71-.6.06.31.11.64.15.95,1.37.88,2.38,1.71,2.92,2.09-4.4,2.06-10.77,1.12-10.9,1.1-.37-.05-.69-.1-.97-.14,0,0-.19-.04-.19-.04,0,0,1.57,3.73,1.85,4.34,2.79,1.28,5.39,2.12,9.4,1.45,0,0,.68-.07,2.39-.64,1.75-.59,5.04-2.51,7.56-4.88,3.14-2.95,5.05-6.05,5.66-7.26,4.87-9.51,5.67-23.62,5.67-29.31,0-1.87,0-2.88,0-2.96M298.55,53.76s1.96-1.88,1.89-4.24c-.56,1.58-1.88,2.25-1.89,2.25,0,0-.74-.46-1.07-1.49-.26,2.38,1.09,3.49,1.07,3.48M294.62,38.35c-1.17,1.26-.45,2.32-.45,2.31,0-.01,1.41-1.53.45-2.31M294.19,42.67c-1.31,1.95,0,3.99,0,3.98,0-.01.89-2.72,0-3.98M291.08,39.86c-1.91,1.44-1,2.78-.67,3.51.4-1.4.56-1.78.67-3.51M291.55,57.58c-.24-.06-1.39-1.13-1.74-1.8.18,1.07,1.65,3.19,2.35,3.61.23-.39,1.09-2.09.34-4.8-.32,1.65-.65,2.47-.95,2.99M290.13,44.24c-1.29,1.6.69,3.6.69,3.63-.01-.01.16-3.03-.69-3.63M292.2,52.74c.33-.71,1.25-2.08.78-4.35-.17,1.71-1.26,2.47-1.25,2.47,0,0-.62-.34-1.11-1.37.16,2.08.94,2.69,1.58,3.26M291.21,63.48c-.19-.62-.52-2.69-1.31-3.58-.31,1.5.67,2.94,1.31,3.58M315.1,13.74c-.58-.17-1.17-.33-1.36-.61.25-.2.6.08.78.23.13-.12.2-.18.35-.32-.6-.49-1.55-.2-1.75.3.17.09.44.19.53.3-.2.06-.57.26-.73.37.93-.08,1.79.15,2.18-.28M313.5,14.52c-.68.3-.8.49-1.12,1.22-.37.88-.7,1.76-1.14,2.55.26.1.61-.11.86-.27,1.15-.7,1.97-2.65,2.43-3.8,0-.04-.68.14-1.03.29M311.46,15.25c-.19.64-.66,1.02-.95,1.41-1.6-.62-5.15-1.52-7.1-1.72-.52.58-1.31,1.35-2.14,1.55-1.21-.15-1.99-.47-2.83-.82.46.02.61.02.94.01,1.2-.03,2.26-.41,3.03-.88-1.69-.26-2.09-.72-1.27-1.8.38-.49.99-1.37,1.89-1.14.7.18.88,1.18.8,1.93,1.98.25,4.51.92,6.43,1.58.13-.55-.23-.82-.46-1.22.29-.31.73-.67,1.07-.89.49.27.77,1.36.59,1.98M302.11,12.73s-.34.19-.51.53c.15.24.45.33.9.39.06.01.18.02.24.02.21-.49-.23-1.09-.64-.95M304.75,15.55c-.37.18-.79.44-1.07.61.29.29.5.51.81.81.43-.23.63-.35,1.1-.59-.32-.31-.52-.53-.85-.83M297.26,9.5c-.36-.27-.6-.46-.98-.71-.33.22-.7.53-.95.73.33.25.58.44.94.7.39-.29.56-.42.99-.72M280.97,16.74c.39.17.68.3,1.1.49.3-.36.43-.53.77-.91-.42-.19-.7-.32-1.14-.49-.26.29-.54.67-.73.91M298.79,14.2c-4.69-.26-13.86.23-18.37,1.46,0,0-.48-1.17-.87-1.59-1.2-1.28-1.7.11-1.7.28,1.51.08,1.77.86,1.77.86-.36.66-.63.87-1.46,1.45-.27.18-1.24.78-2.57.89-2.84.14-2.06-2.82-.34-4.02-.22.27-1.24,1.82-.61,2.61.71.88,3.33.16,3.96-.63-.36-.33-.98-.42-1.92-.34.05-.46.25-1.66,1.62-2.82.49.11,1.87.86,2.36,2.04,4.14-1.11,11.73-1.43,12.1-1.44-.09-.72-.34-3.43-.35-3.59-.04-.45.26-.65.55-.83.31.56.6.8,1.31,1.06-.27.33-.53.47-.84.71.04.54.09,1.54.1,1.93.68-.29,1.62-.69,2.77-.96.41-.1.93-.16,1.25-.11.4.05.88.26,1.1.47.2.17.44.48.45.87,0,.67-.13,1.25-.3,1.72M297.82,12.44c-.58-.96-2.76-.1-4.14.48.8,0,1.48-.04,2.34-.02.35,0,1.25.01,1.85.03.05-.18.08-.29-.05-.49M278.26,17.51c-.27-.09-.51-.16-.84-.25-.21.31-.45.72-.59.98.42.13.72.23,1.17.37.18-.28.28-.45.43-.68.27.08.51.16.82.26.25-.39.35-.57.63-.98-.44-.14-.74-.25-1.2-.37-.14.2-.29.45-.41.67"/>
</svg>