<?xml version="1.0" encoding="UTF-8"?>
<svg id="Layer_1" xmlns="http://www.w3.org/2000/svg" version="1.1" xmlns:xlink="http://www.w3.org/1999/xlink" viewBox="0 0 210.88 100.53">
  <!-- Generator: Adobe Illustrator 30.6.0, SVG Export Plug-In . SVG Version: 2.1.4 Build 109)  -->
  <defs>
    <style>
      .st0 {
        fill: none;
      }

      .st1 {
        fill: #030304;
      }

      .st2 {
        clip-path: url(#clippath-1);
      }

      .st3 {
        clip-path: url(#clippath);
      }
    </style>
    <clipPath id="clippath">
      <rect class="st0" x="0" y="0" width="210.88" height="100.53"/>
    </clipPath>
    <clipPath id="clippath-1">
      <rect class="st0" x="0" y="0" width="210.88" height="100.53"/>
    </clipPath>
  </defs>
  <g class="st3">
    <rect class="st1" x="52.92" width="8.41" height="61.33"/>
    <rect class="st1" x="42.33" width="8.41" height="61.33"/>
  </g>
  <g class="st2">
    <path class="st1" d="M21.17,61.33h0C21.17,59.02,23.05,0,25.37,0s4.2,59.02,4.2,61.33h-8.41Z"/>
    <path class="st1" d="M31.75,61.33h0C31.75,59.02,33.63,0,35.96,0s4.2,59.02,4.2,61.33h-8.41Z"/>
    <polygon class="st1" points="0 61.33 4.2 0 8.41 61.33 0 61.33"/>
    <polygon class="st1" points="10.58 61.33 14.79 0 18.99 61.33 10.58 61.33"/>
    <path class="st1" d="M78.24,84.86h-2.34l-.5,1.97h-1.24l2.32-8.4h1.17l2.32,8.4h-1.23l-.5-1.97ZM77.95,83.77l-.9-3.53-.89,3.53h1.78Z"/>
    <path class="st1" d="M85.95,84.38c0,1.32-.85,2.46-2.45,2.46h-2.39v-8.4h2.21c1.7,0,2.45,1.1,2.45,2.25,0,.72-.29,1.35-.93,1.72.73.4,1.11,1.15,1.11,1.97M82.28,79.52v2.45h.99c.87,0,1.32-.5,1.32-1.23s-.45-1.22-1.32-1.22h-.99ZM84.78,84.38c0-.76-.54-1.32-1.33-1.32h-1.17v2.69h1.17c.79,0,1.33-.52,1.33-1.37"/>
    <path class="st1" d="M89.24,83.24h-.8v3.59h-1.16v-8.4h2.25c1.8,0,2.6,1.18,2.6,2.41,0,.99-.53,1.96-1.69,2.28l1.96,3.71h-1.37l-1.79-3.59ZM88.44,82.15h1.1c.93,0,1.41-.53,1.41-1.31s-.47-1.32-1.41-1.32h-1.1v2.64Z"/>
    <path class="st1" d="M97.03,84.86h-2.34l-.5,1.97h-1.24l2.32-8.4h1.17l2.32,8.4h-1.23l-.5-1.97ZM96.74,83.77l-.9-3.53-.88,3.53h1.78Z"/>
    <polygon class="st1" points="104.58 78.44 104.58 86.83 103.42 86.83 103.42 83.06 100.8 83.06 100.8 86.83 99.64 86.83 99.64 78.44 100.8 78.44 100.8 81.96 103.42 81.96 103.42 78.44 104.58 78.44"/>
    <path class="st1" d="M109.55,84.86h-2.34l-.5,1.97h-1.24l2.32-8.4h1.17l2.32,8.4h-1.23l-.5-1.97ZM109.27,83.77l-.9-3.53-.88,3.53h1.78Z"/>
    <polygon class="st1" points="117.21 78.44 117.21 86.83 116.08 86.83 116.08 80.79 114.74 83.75 114.52 83.75 113.19 80.82 113.19 86.83 112.06 86.83 112.06 78.44 113.1 78.44 114.63 81.86 116.17 78.44 117.21 78.44"/>
    <polygon class="st1" points="121.48 79.53 121.48 85.75 123.11 85.75 123.11 86.83 118.69 86.83 118.69 85.75 120.32 85.75 120.32 79.53 118.69 79.53 118.69 78.44 123.11 78.44 123.11 79.53 121.48 79.53"/>
    <path class="st1" d="M129.7,84.45c0,1.43-.93,2.55-2.51,2.55s-2.47-1.13-2.47-2.57v-3.63c0-1.42.92-2.55,2.47-2.55s2.48,1.1,2.48,2.51v.25h-1.16v-.26c0-.78-.5-1.39-1.32-1.39s-1.3.64-1.3,1.47v3.62c-.01.83.46,1.48,1.3,1.48s1.35-.65,1.35-1.47v-.35h1.16v.35Z"/>
    <polygon class="st1" points="138.86 79.52 138.86 81.96 141.83 81.96 141.83 83.06 138.86 83.06 138.86 86.83 137.7 86.83 137.7 78.43 142.06 78.43 142.06 79.52 138.86 79.52"/>
    <path class="st1" d="M147.13,84.86h-2.34l-.5,1.97h-1.24l2.32-8.4h1.17l2.32,8.4h-1.23l-.5-1.97ZM146.85,83.77l-.9-3.53-.89,3.53h1.78Z"/>
    <polygon class="st1" points="154.79 78.44 154.79 86.83 153.66 86.83 153.66 80.79 152.32 83.75 152.1 83.75 150.77 80.82 150.77 86.83 149.64 86.83 149.64 78.44 150.68 78.44 152.21 81.86 153.75 78.44 154.79 78.44"/>
    <polygon class="st1" points="159.06 79.53 159.06 85.75 160.69 85.75 160.69 86.83 156.27 86.83 156.27 85.75 157.9 85.75 157.9 79.53 156.27 79.53 156.27 78.44 160.69 78.44 160.69 79.53 159.06 79.53"/>
    <polygon class="st1" points="164.1 85.75 167.22 85.75 167.22 86.83 162.95 86.83 162.95 78.43 164.1 78.43 164.1 85.75"/>
    <polygon class="st1" points="171.59 85.75 173.08 85.75 173.08 86.83 168.95 86.83 168.95 85.75 170.44 85.75 170.44 82.73 167.94 78.43 169.29 78.43 171 81.49 172.71 78.43 174.09 78.43 171.59 82.63 171.59 85.75"/>
    <polygon class="st1" points="186 78.44 186 86.83 184.84 86.83 184.84 83.06 182.22 83.06 182.22 86.83 181.06 86.83 181.06 78.44 182.22 78.44 182.22 81.96 184.84 81.96 184.84 78.44 186 78.44"/>
    <path class="st1" d="M192.37,80.82v3.64c0,1.44-.97,2.57-2.58,2.57s-2.58-1.12-2.58-2.57v-3.64c0-1.43.97-2.56,2.58-2.56s2.58,1.13,2.58,2.56M188.36,80.81v3.65c0,.83.52,1.48,1.43,1.48s1.43-.65,1.43-1.48v-3.65c0-.84-.52-1.47-1.43-1.47s-1.43.63-1.43,1.47"/>
    <path class="st1" d="M198.54,78.44v5.99c0,1.47-.96,2.57-2.48,2.57s-2.47-1.1-2.47-2.57v-5.99h1.16v6c0,.85.47,1.46,1.31,1.46s1.32-.61,1.31-1.46v-6h1.17Z"/>
    <path class="st1" d="M203.53,80.55c0-.73-.57-1.21-1.24-1.21-.6,0-1.12.38-1.12,1.09,0,.75.46,1.12,1.15,1.42l.72.34c.98.45,1.76,1.1,1.76,2.51s-1.19,2.33-2.46,2.33-2.48-.91-2.48-2.47v-.41h1.16v.4c0,.84.57,1.39,1.32,1.39s1.3-.45,1.3-1.19c0-.84-.52-1.24-1.18-1.54l-.73-.33c-1.03-.45-1.73-1.06-1.73-2.39s.96-2.25,2.29-2.25,2.4.93,2.4,2.29v.5h-1.16v-.48Z"/>
    <polygon class="st1" points="207.63 79.52 207.63 81.96 210.69 81.96 210.69 83.05 207.63 83.05 207.63 85.75 210.88 85.75 210.88 86.83 206.47 86.83 206.47 78.43 210.88 78.43 210.88 79.52 207.63 79.52"/>
    <path class="st1" d="M79.11,65.2v4.45c0,.75.26,1.14,1.11,1.14.09,0,.13.04.13.12v.86c0,.09-.04.14-.13.14-.74,0-1.27-.21-1.63-.62-.34.19-.65.32-.94.44-.35.13-.71.19-1.1.19-1.49,0-2.52-.96-2.52-2.4,0-1.04.54-2.25,2.22-3.03.49-.22,1.09-.39,1.8-.49v-.8h1.06ZM75.09,69.43c0,.85.57,1.36,1.49,1.36.31,0,.62-.04.92-.1.21-.05.44-.13.66-.22-.08-.26-.11-.57-.11-.91v-2.55c-.35.06-.67.14-.98.24-1.22.4-1.97,1.17-1.97,2.18M77.04,62.4l.95.92.93-.92.95.95-.95.94-.93-.91-.94.91-.95-.94.93-.95Z"/>
    <path class="st1" d="M83.15,67.29c0,.84-.04,1.52-.1,2.06-.04.29-.09.54-.15.77.27.2.56.36.86.47.34.13.7.19,1.07.19.09,0,.12.04.12.12v.86c0,.09-.04.14-.12.14-.81,0-1.58-.32-2.31-.97-.2.27-.46.5-.79.66-.41.21-.91.31-1.52.31-.09,0-.13-.05-.13-.14v-.86c0-.09.04-.12.13-.12.86,0,1.35-.21,1.61-.66.3-.5.34-1.25.34-2.83h.98ZM81.38,72.88l.95.91.94-.91.95.94-.95.95-.94-.92-.94.92-.95-.95.94-.94Z"/>
    <path class="st1" d="M90.39,67.97l.36,1.23c.32,1.19.66,1.59,1.21,1.59.09,0,.13.04.13.12v.86c0,.09-.04.14-.13.14-.6,0-1.02-.25-1.37-.66-.06-.06-.11-.14-.16-.21l-.22.87c-.86,0-1.62-.06-2.28-.19-.55-.11-1.01-.26-1.37-.46-.16.13-.32.24-.49.34-.35.2-.74.31-1.22.31-.09,0-.13-.05-.13-.14v-.86c0-.09.04-.12.13-.12.35,0,.66-.05.92-.15l.07-.03-.03-.02c-.11-.21-.17-.44-.17-.69,0-1.4,1.04-3.81,2.73-3.81,1.01,0,1.63.57,2.02,1.87M90.16,70.5c-.13-.29-.24-.61-.35-.96l-.31-.97c-.29-.94-.64-1.35-1.18-1.35-.66,0-1.41.9-1.81,2.73.66.37,1.45.66,2.64.79.34.04.72.05,1.14.05l-.13-.29Z"/>
    <path class="st1" d="M94.91,67.29c0,.84-.04,1.52-.1,2.06-.04.29-.09.54-.15.77.27.2.56.36.86.47.34.13.7.19,1.07.19.09,0,.12.04.12.12v.86c0,.09-.04.14-.12.14-.81,0-1.58-.32-2.31-.97-.2.27-.46.5-.79.66-.41.21-.91.31-1.52.31-.09,0-.13-.05-.13-.14v-.86c0-.09.04-.12.13-.12.86,0,1.35-.21,1.61-.66.3-.5.34-1.25.34-2.83h.99ZM93.14,72.88l.95.91.94-.91.95.94-.95.95-.94-.92-.94.92-.95-.95.94-.94Z"/>
    <path class="st1" d="M99.58,63.55c3.73,0,5.84,1.9,5.84,4.59,0,.71-.24,1.79-.68,2.95l-1.06.99c-.7,0-1.37-.08-2.03-.21-.49-.11-.99-.25-1.51-.42-.42.15-.88.26-1.4.32-.71.1-1.42.15-2.15.15-.09-.01-.13-.06-.13-.14v-.86c0-.09.04-.12.13-.12.46,0,.9-.01,1.3-.04l.42-.04c-.19-.15-.36-.32-.51-.51-.36-.46-.54-.99-.54-1.58,0-1.56,1.16-2.76,2.68-2.76s2.68,1.16,2.68,2.74c0,.57-.19,1.09-.55,1.55-.16.21-.36.41-.59.6.02,0,.05,0,.06.01.86.13,1.47.19,2.15.19.39-.84.64-1.91.64-2.71,0-1.8-1.44-3.57-4.78-3.57v-1.12ZM101.57,68.69c0-1-.66-1.71-1.65-1.71-.9,0-1.58.66-1.58,1.71,0,.44.14.84.41,1.19.26.34.63.6,1.11.76.57-.16,1-.41,1.29-.75.29-.35.42-.75.42-1.2"/>
    <rect class="st1" x="106.86" y="62.87" width="1.06" height="9.05"/>
    <path class="st1" d="M111.23,66.42c.1.74.21,1.62.27,2.53l.04.46.05.31c.1.95.69,1.06,1.32,1.06.09,0,.13.04.13.12v.86c0,.09-.04.14-.13.14-.52,0-.92-.15-1.2-.44l-.08-.1v.21c0,1.96-1.27,3.01-3.16,3.01v-1.02c1.24,0,2.15-.67,2.15-2.03s-.17-3.08-.46-5.12h1.06Z"/>
    <path class="st1" d="M115.1,65.86c.26,1.83.37,2.83.37,3.67,0,1.46-.83,2.38-2.54,2.38-.09,0-.13-.05-.13-.14v-.86c0-.09.04-.12.13-.12,1.1,0,1.52-.41,1.52-1.3,0-.74-.11-1.6-.41-3.63h1.06ZM114.15,72.87l.96.94-.93.95-.96-.95.94-.94Z"/>
    <path class="st1" d="M121.53,62.24v2.96c0,.64-.09,1.22-.26,1.76-.05.16-.11.31-.18.47l.63.56c.76.7,1.11,1.3,1.11,1.98,0,1.04-.67,1.94-2.26,1.94h-3.92l-.49-1.12c1.41-.84,2.5-1.57,3.21-2.43.19-.21.34-.44.47-.66l-3.46-3.14.05-.13h1.32l2.51,2.27c.14-.45.2-.95.2-1.5v-2.96h1.06ZM119.16,69.83c-.42.34-.91.65-1.46.96h3.11c.61,0,.96-.32.96-.79,0-.36-.24-.79-.64-1.15l-.56-.5s-.05.09-.09.13c-.35.47-.79.92-1.32,1.35M121.23,74.36l-.22.75h-2.02c-.29,0-.5.01-.94.15v-.72c.21-.08.37-.13.5-.15.1-.01.22-.02.37-.02l-.11-.14c-.13-.18-.19-.36-.19-.57,0-.65.51-1.11,1.17-1.11.35,0,.65.1.95.24v.72c-.39-.14-.57-.19-.79-.19-.36,0-.62.22-.62.54,0,.14.06.26.17.36.1.09.21.14.35.15h1.37Z"/>
    <rect class="st1" x="124.14" y="62.87" width="1.06" height="9.05"/>
    <path class="st1" d="M132.87,65.2v4.45c0,.75.26,1.14,1.11,1.14.09,0,.13.04.13.12v.86c0,.09-.04.14-.13.14-.74,0-1.27-.21-1.63-.62-.34.19-.65.32-.94.44-.35.13-.71.19-1.1.19-1.49,0-2.52-.96-2.52-2.4,0-1.04.54-2.25,2.22-3.03.49-.22,1.09-.39,1.8-.49v-.8h1.06ZM128.85,69.43c0,.85.57,1.36,1.49,1.36.31,0,.62-.04.92-.1.21-.05.44-.13.66-.22-.08-.26-.11-.57-.11-.91v-2.55c-.35.06-.67.14-.98.24-1.22.4-1.97,1.17-1.97,2.18M130.81,62.4l.95.92.93-.92.95.95-.95.94-.93-.91-.94.91-.95-.94.93-.95Z"/>
    <path class="st1" d="M136.47,62.86v6.63c0,.89.4,1.3,1.48,1.3.09,0,.12.04.12.12v.86c0,.09-.04.14-.12.14-.86,0-1.5-.21-1.92-.64l-.15-.17-.13.14c-.42.4-.92.67-1.77.67-.09,0-.13-.05-.13-.14v-.86c0-.09.04-.12.13-.12.35,0,.66-.06.94-.17.21-.09.4-.19.56-.32-.05-.24-.08-.49-.08-.76v-6.66h1.06Z"/>
    <path class="st1" d="M141.1,65.86c.26,1.83.37,2.83.37,3.67,0,1.46-.83,2.38-2.55,2.38h-.97c-.09,0-.13-.05-.13-.14v-.86c0-.09.04-.12.13-.12h.97c1.08,0,1.51-.41,1.51-1.3,0-.74-.1-1.6-.4-3.63h1.06ZM142.07,64.28l-.27.91h-1.56c-.41,0-.72.03-1.32.21v-.87c.3-.1.49-.16.68-.2l.07-.03-.05-.04c-.15-.19-.22-.4-.22-.64,0-.66.5-1.2,1.31-1.2.25,0,.57.08.91.24v.84c-.36-.11-.6-.16-.85-.16-.34,0-.6.17-.6.46,0,.16.06.27.2.36.11.06.28.1.46.11h1.25Z"/>
    <path class="st1" d="M143.98,62.86v6.63c0,.89.4,1.3,1.48,1.3.09,0,.12.04.12.12v.86c0,.09-.04.14-.12.14-1.71,0-2.55-.92-2.55-2.38v-6.66h1.06Z"/>
    <path class="st1" d="M152.07,68.11c0,.7-.33,1.52-1.05,2.25-.1.1-.2.19-.31.27.22.04.45.08.66.1.44.04.92.06,1.46.06.09,0,.13.04.13.12v.86c0,.09-.04.14-.13.14-.84,0-1.56-.08-2.18-.24-.39-.1-.74-.21-1.06-.35l-.54.19c-1.05.31-2.02.4-3.58.4-.09-.01-.13-.06-.13-.14v-.86c0-.09.04-.12.13-.12.6,0,1.15-.01,1.66-.04.41-.03.79-.06,1.15-.13-.14-.25-.27-.47-.4-.69-.4-.65-.79-1.16-1.17-1.6-.15-.18-.3-.35-.46-.51-.14.06-.27.14-.41.21v-1c.99-.69,2.41-1.19,3.54-1.19,1.56,0,2.7.98,2.7,2.25M151,68.37c0-.85-.69-1.39-1.78-1.39-.46,0-.99.1-1.57.29-.16.05-.33.1-.49.16.34.34.67.75,1.01,1.24.37.54.75,1.15,1.12,1.83.14-.06.27-.13.4-.21.76-.53,1.31-1.3,1.31-1.92"/>
    <path class="st1" d="M155.38,62.86v6.66c0,1.46-.84,2.38-2.55,2.38-.09,0-.13-.05-.13-.14v-.86c0-.09.04-.12.13-.12,1.09,0,1.48-.41,1.48-1.3v-6.63h1.06Z"/>
    <rect class="st1" x="157.32" y="62.87" width="1.06" height="9.05"/>
    <path class="st1" d="M169.72,67.29c0,.86-.04,1.56-.12,2.12-.06.36-.14.67-.24.96l.12.07c.46.25.86.34,1.42.34.09,0,.13.04.13.12v.86c0,.09-.04.14-.13.14-.46,0-.89-.09-1.26-.25-.24-.11-.49-.26-.74-.47-.15.17-.32.32-.54.44-.29.16-.62.25-1,.29h-3.26c-2,0-3.16-1-3.16-2.86,0-.59.13-1.53.38-2.63h1c-.21,1.05-.31,1.73-.31,2.37,0,1.38.62,2,2.34,2h2.81c.61,0,1.04-.23,1.26-.67.23-.49.32-1.24.32-2.82h.97ZM165.09,64.37l.95.92.94-.92.95.95-.95.94-.94-.91-.94.91-.95-.94.94-.95Z"/>
    <path class="st1" d="M173.85,67.29c0,.84-.04,1.52-.1,2.06-.04.29-.09.54-.15.77.27.2.56.36.86.47.34.13.7.19,1.07.19.09,0,.12.04.12.12v.86c0,.09-.04.14-.12.14-.81,0-1.58-.32-2.31-.97-.2.27-.46.5-.79.66-.41.21-.91.31-1.52.31-.09,0-.13-.05-.13-.14v-.86c0-.09.04-.12.13-.12.86,0,1.35-.21,1.61-.66.3-.5.34-1.25.34-2.83h.99ZM172.07,72.88l.95.91.94-.91.95.94-.95.95-.94-.92-.94.92-.95-.95.94-.94Z"/>
    <path class="st1" d="M177.71,65.86c.26,1.83.37,2.83.37,3.67,0,1.46-.83,2.38-2.54,2.38-.09,0-.13-.05-.13-.14v-.86c0-.09.04-.12.13-.12,1.1,0,1.52-.41,1.52-1.3,0-.74-.11-1.6-.41-3.63h1.06ZM176.76,72.87l.96.94-.93.95-.96-.95.94-.94Z"/>
    <path class="st1" d="M74.92,99.27c-.14-.43-.25-.84-.32-1.23-.08-.39-.11-.77-.11-1.15,0-.44.06-.86.17-1.28.11-.41.29-.83.54-1.25-.12,0-.22-.01-.33-.02-.1-.01-.21-.03-.31-.05-.11-.02-.22-.05-.33-.08-.11-.03-.23-.08-.36-.12.06-.16.11-.32.17-.48.06-.16.11-.32.17-.49.19.06.35.1.49.13.14.03.28.05.42.07.14.02.28.03.42.03.15,0,.32,0,.52,0h1.72c.28,0,.55.03.83.09.27.06.52.18.74.36.22.17.39.4.53.71.14.3.2.7.2,1.18v4.55h-1.15v-4.42c0-.27-.02-.5-.05-.69-.03-.19-.1-.34-.2-.45-.1-.11-.23-.19-.4-.24-.17-.05-.38-.07-.65-.07h-1.3c-.25.34-.42.72-.52,1.13-.1.42-.15.84-.15,1.29,0,.36.03.71.08,1.06.05.35.13.68.21.99l.22.71c0,.11-.02.23-.03.34,0,.11-.03.23-.05.36h-2.62v-.99h1.45Z"/>
    <path class="st1" d="M84.28,93.37v2.15c0,.24,0,.44,0,.6,0,.16-.01.3-.02.44-.01.13-.03.26-.05.39-.02.12-.05.26-.08.41l-1.12-.17c.02-.13.04-.25.06-.36.02-.11.03-.23.05-.35.01-.12.02-.26.03-.42,0-.15,0-.34,0-.56v-1.11h-1.52v-1.01h2.66Z"/>
    <path class="st1" d="M85.93,100.32c.07-.44.13-.82.19-1.14.06-.32.11-.61.15-.86.04-.25.08-.48.12-.68.03-.2.07-.4.1-.59.03-.19.07-.39.1-.59.03-.2.07-.43.11-.69.02-.22.03-.41,0-.56-.02-.15-.05-.3-.11-.44-.06-.14-.14-.3-.25-.46-.11-.16-.24-.36-.39-.61.09-.05.17-.1.24-.14.07-.04.14-.09.22-.13.08-.04.15-.09.24-.14.09-.05.19-.11.32-.18.1.14.19.26.26.37.07.11.14.2.19.3.06.09.11.18.15.27.05.09.09.18.13.28.18-.17.36-.33.53-.46.17-.14.34-.25.52-.34.18-.09.36-.16.56-.21.2-.05.42-.07.66-.07.58,0,1.07.15,1.46.45.39.3.65.77.78,1.4.04.18.06.4.08.66.01.26.02.53.03.81,0,.28,0,.55,0,.82,0,.27,0,.5,0,.69,0,.31-.01.6-.02.88,0,.28-.02.51-.03.69,0,.1-.02.2-.03.31,0,.11-.02.22-.04.33h-3.27v-1.01h2.22c0-.07,0-.16.02-.24,0-.09.01-.21.01-.35,0-.15,0-.34,0-.58,0-.24,0-.54,0-.91,0-.17,0-.34,0-.51,0-.17,0-.34-.02-.5,0-.16-.02-.31-.04-.45-.01-.14-.03-.26-.06-.37-.04-.16-.09-.31-.15-.45-.06-.14-.14-.25-.24-.34-.1-.09-.21-.17-.34-.22-.13-.05-.29-.08-.47-.08-.19,0-.38.03-.56.09-.18.06-.35.14-.51.25-.16.1-.32.22-.47.36-.15.14-.3.28-.43.42-.08.49-.15.92-.21,1.3-.06.38-.11.71-.16,1.01-.05.3-.09.57-.13.8-.04.23-.07.45-.11.65-.04.2-.07.4-.1.59-.03.19-.06.39-.1.6h-1.15Z"/>
    <path class="st1" d="M95.97,94.38c-.19,0-.37,0-.52,0-.16,0-.3-.02-.45-.03-.14-.02-.29-.05-.43-.08-.15-.04-.3-.09-.48-.16.06-.16.11-.32.17-.48.06-.16.11-.32.17-.49.18.06.35.1.49.13.14.03.28.05.41.07s.28.02.42.03c.15,0,.32,0,.52,0h1.29c.28,0,.55.03.82.09.27.06.51.18.73.36.21.17.39.4.52.71.13.31.2.7.2,1.18v4.55h-1.15v-4.42c0-.28-.02-.51-.06-.7-.04-.19-.11-.33-.21-.45-.1-.11-.24-.19-.41-.24-.17-.05-.4-.07-.67-.07h-1.38ZM94.19,98.18c0-.2,0-.37,0-.52,0-.15.01-.29.02-.43.01-.14.03-.27.05-.41.02-.14.05-.29.09-.46.19.03.37.05.56.08.19.03.38.06.56.08-.03.16-.05.3-.07.43-.02.13-.03.25-.05.38-.01.13-.02.26-.02.4,0,.14,0,.3,0,.49v2.05h-1.15v-2.08Z"/>
    <path class="st1" d="M103.25,94.38c-.2,0-.37,0-.52,0-.16,0-.31-.02-.45-.03-.14-.02-.29-.05-.43-.08-.15-.04-.31-.09-.48-.15.06-.16.11-.32.17-.48.06-.16.11-.32.17-.49.19.06.35.1.49.13.14.03.28.05.41.07.14.02.28.02.42.03s.32,0,.52,0h.62c.28,0,.55.03.82.09.27.06.52.18.73.35.21.17.39.41.52.72.14.31.2.7.2,1.18v4.55h-1.15v-4.42c0-.27-.02-.5-.06-.69-.04-.19-.11-.34-.21-.45-.1-.11-.24-.19-.41-.24-.17-.05-.39-.07-.66-.07h-.72Z"/>
    <path class="st1" d="M110.25,94.38c-.2,0-.37,0-.52,0-.15,0-.3-.02-.45-.03-.14-.02-.29-.05-.44-.08-.14-.04-.31-.09-.48-.15.06-.16.11-.32.17-.48.05-.16.11-.32.17-.49.18.06.35.1.49.13.14.03.28.05.41.07.14.02.28.02.42.03.15,0,.32,0,.52,0h.19c.28,0,.55.03.82.09.27.06.51.18.73.35.21.17.38.4.52.7.13.3.2.68.2,1.16v3.58h1.22v1.01h-6.28v-1.01h3.91v-3.41c0-.27-.02-.5-.06-.69-.04-.19-.11-.34-.21-.45-.1-.11-.24-.19-.41-.24-.17-.05-.39-.07-.66-.07h-.29Z"/>
    <path class="st1" d="M115.51,100.32c0-.12,0-.26,0-.42,0-.16,0-.33,0-.51,0-.18,0-.37.01-.57v-.58c.02-.33.05-.63.08-.88.04-.26.1-.49.17-.71.08-.21.17-.41.28-.59.11-.18.25-.36.4-.54-.15-.22-.29-.42-.39-.6-.11-.18-.2-.35-.26-.5-.07-.16-.13-.31-.18-.47-.05-.16-.09-.31-.13-.44.16-.07.33-.14.52-.2.19-.06.37-.11.56-.15.02.05.03.1.05.15.01.05.03.1.05.16.04.14.09.28.15.43.06.14.13.29.22.46.09.17.2.35.34.56.13.2.3.43.51.69.07.09.14.18.21.26.07.08.15.17.24.28.09.11.21.24.34.39.14.16.32.36.53.61l.03.03c.16-.12.29-.24.39-.36.1-.13.19-.27.26-.41.07-.15.14-.31.19-.48.06-.17.11-.35.17-.55.05-.17.1-.35.14-.52.05-.17.09-.35.14-.52l-.97-.18.18-.93,1.86.32.03.85c-.04.21-.1.45-.17.7-.07.25-.14.49-.2.7-.08.28-.16.52-.24.72-.08.2-.16.39-.26.55-.1.16-.21.32-.35.46-.13.14-.3.29-.5.44l1.58,1.86-.81.72-3.54-4.09c-.14.17-.24.36-.3.58-.06.22-.11.45-.14.7-.03.25-.04.5-.04.76s0,.52,0,.78c0,.14,0,.29,0,.46s0,.37,0,.6h-1.15Z"/>
    <path class="st1" d="M125.18,94.38c-.19,0-.37,0-.52,0-.16,0-.3-.02-.45-.03-.14-.02-.29-.05-.43-.08-.15-.04-.3-.09-.48-.16.06-.16.11-.32.17-.48.06-.16.11-.32.17-.49.18.06.35.1.49.13.14.03.28.05.41.07s.28.02.42.03c.15,0,.32,0,.52,0h1.29c.28,0,.55.03.82.09.27.06.51.18.73.36.21.17.39.4.52.71.13.31.2.7.2,1.18v4.55h-1.15v-4.42c0-.28-.02-.51-.06-.7-.04-.19-.11-.33-.21-.45-.1-.11-.24-.19-.41-.24-.17-.05-.4-.07-.67-.07h-1.38ZM123.41,98.18c0-.2,0-.37,0-.52,0-.15.01-.29.02-.43.01-.14.03-.27.05-.41.02-.14.05-.29.09-.46.19.03.37.05.56.08.19.03.38.06.56.08-.03.16-.05.3-.07.43-.02.13-.03.25-.05.38-.01.13-.02.26-.02.4,0,.14,0,.3,0,.49v2.05h-1.15v-2.08Z"/>
    <path class="st1" d="M136.5,94.38c-.19,0-.37,0-.52,0-.16,0-.3-.02-.45-.03-.14-.02-.29-.05-.43-.08-.15-.04-.3-.09-.48-.16.06-.16.11-.32.17-.48.06-.16.11-.32.17-.49.18.06.35.1.49.13.14.03.28.05.41.07s.28.02.42.03c.15,0,.32,0,.52,0h1.29c.28,0,.55.03.82.09.27.06.51.18.73.36.21.17.39.4.52.71.13.31.2.7.2,1.18v4.55h-1.15v-4.42c0-.28-.02-.51-.06-.7-.04-.19-.11-.33-.21-.45-.1-.11-.24-.19-.41-.24-.17-.05-.4-.07-.67-.07h-1.38ZM134.73,98.18c0-.2,0-.37,0-.52,0-.15.01-.29.02-.43.01-.14.03-.27.05-.41.02-.14.05-.29.09-.46.19.03.37.05.56.08.19.03.38.06.56.08-.03.16-.05.3-.07.43-.02.13-.03.25-.05.38-.01.13-.02.26-.02.4,0,.14,0,.3,0,.49v2.05h-1.15v-2.08Z"/>
    <path class="st1" d="M142.36,96.57c0-.22,0-.42,0-.6,0-.18.02-.36.05-.53.03-.17.06-.35.11-.52.05-.18.11-.37.2-.57-.15-.02-.29-.05-.44-.08-.15-.04-.31-.09-.49-.16.06-.16.11-.32.17-.48.05-.16.11-.32.17-.49.19.06.35.1.49.13.14.03.28.05.41.07.14.01.28.02.43.03.15,0,.32,0,.52,0h1.64c.28,0,.55.03.82.09.27.06.52.18.73.35.22.17.39.4.52.7.13.29.2.68.2,1.16v4.59h-1.15v-4.42c0-.28-.02-.52-.06-.7-.04-.19-.11-.34-.21-.45-.1-.11-.24-.19-.41-.24-.17-.05-.39-.07-.65-.07h-1.58c-.09.18-.16.37-.2.55s-.08.36-.1.54c-.02.18-.03.35-.03.52,0,.17,0,.34,0,.5v3.77h-1.15v-3.69Z"/>
    <path class="st1" d="M150.95,93.07c.09.02.21.04.36.07.15.03.32.06.5.1.18.04.37.08.57.12.2.04.39.09.57.13.19.05.35.09.51.13.15.04.28.08.37.12.24.09.43.2.59.33.15.13.27.27.36.43.09.16.15.34.18.54.03.2.05.4.05.63v3.29c0,.1,0,.2-.01.29,0,.1-.02.19-.03.3-.02.1-.04.21-.06.33-.02.12-.05.25-.09.39h-5.47v-1h4.53v-3.44c0-.23-.01-.41-.04-.56-.03-.15-.08-.27-.16-.36-.08-.1-.18-.17-.3-.23-.13-.06-.29-.11-.49-.17-.19-.05-.39-.1-.61-.14-.22-.05-.42-.09-.62-.14l-.75,1.7,1.33.79-.54.87-2.19-1.3,1.42-3.21Z"/>
    <path class="st1" d="M157.23,96.63c-.03-.42-.06-.77-.08-1.06s-.04-.53-.06-.75c-.03-.22-.06-.41-.11-.59-.05-.18-.11-.37-.2-.57.15-.09.32-.17.49-.24.17-.07.34-.14.51-.2.08.16.15.31.21.46.06.15.1.31.14.48.03.17.06.37.09.59.02.22.04.48.07.79l.28,3.71c.16.01.31.02.46.02.75,0,1.41-.11,1.97-.34.56-.23,1.03-.55,1.4-.97.37-.42.65-.91.83-1.48.18-.57.27-1.2.27-1.89,0-.19,0-.38-.02-.56-.01-.19-.03-.37-.05-.56.19-.05.37-.09.55-.13.18-.04.37-.07.58-.1.04.19.06.39.08.59.02.2.03.42.03.64,0,.97-.13,1.82-.4,2.55-.26.73-.65,1.35-1.15,1.83-.5.49-1.11.86-1.82,1.11s-1.52.37-2.42.37c-.22,0-.44,0-.66-.02-.22-.01-.45-.03-.69-.06l-.29-3.61ZM161.25,93.22c.06.21.09.42.09.63,0,.13,0,.26-.03.39-.02.13-.05.26-.08.4-.06.22-.14.44-.23.66-.09.22-.18.44-.29.67l-.73,1.61-.98-.43.72-1.61c.12-.28.22-.51.29-.69.07-.18.13-.34.16-.49.03-.13.05-.27.05-.41s-.01-.31-.04-.51l1.06-.21Z"/>
    <path class="st1" d="M166.09,100.32c.07-.44.13-.82.19-1.14.06-.32.11-.61.15-.86.04-.25.08-.48.12-.68.03-.2.07-.4.1-.59.03-.19.07-.39.1-.59.03-.2.07-.43.11-.69.02-.22.03-.41,0-.56-.02-.15-.05-.3-.11-.44-.06-.14-.14-.3-.25-.46-.11-.16-.24-.36-.39-.61.09-.05.17-.1.24-.14.07-.04.14-.09.22-.13.08-.04.15-.09.24-.14.09-.05.19-.11.32-.18.1.14.19.26.26.37.07.11.14.2.2.3.06.09.11.18.15.27.05.09.09.18.13.28.18-.17.36-.33.53-.46.17-.14.34-.25.52-.34.18-.09.36-.16.56-.21.2-.05.42-.07.66-.07.58,0,1.07.15,1.46.45.39.3.65.77.78,1.4.04.18.06.4.08.66.01.26.02.53.03.81,0,.28,0,.55,0,.82,0,.27,0,.5,0,.69,0,.31-.01.6-.02.88-.01.28-.02.51-.03.69,0,.1-.02.2-.03.31,0,.11-.02.22-.04.33h-3.27v-1.01h2.22c0-.07,0-.16.02-.24,0-.09.01-.21.01-.35,0-.15,0-.34,0-.58,0-.24,0-.54,0-.91,0-.17,0-.34,0-.51,0-.17,0-.34-.02-.5,0-.16-.02-.31-.04-.45-.01-.14-.03-.26-.06-.37-.04-.16-.09-.31-.15-.45-.06-.14-.14-.25-.24-.34-.1-.09-.21-.17-.34-.22-.13-.05-.29-.08-.47-.08-.19,0-.38.03-.56.09-.18.06-.35.14-.51.25-.17.1-.32.22-.47.36-.15.14-.3.28-.43.42-.08.49-.15.92-.21,1.3-.06.38-.11.71-.16,1.01-.05.3-.09.57-.13.8-.04.23-.07.45-.11.65-.04.2-.07.4-.1.59-.03.19-.06.39-.1.6h-1.15Z"/>
    <path class="st1" d="M176.13,94.38c-.19,0-.37,0-.52,0-.16,0-.3-.02-.45-.03-.14-.02-.29-.05-.43-.08-.15-.04-.3-.09-.48-.16.06-.16.11-.32.17-.48.06-.16.11-.32.17-.49.18.06.35.1.49.13.14.03.28.05.41.07.14.02.28.02.42.03.15,0,.32,0,.52,0h1.29c.28,0,.55.03.82.09.27.06.51.18.73.36.21.17.39.4.52.71.13.31.2.7.2,1.18v4.55h-1.15v-4.42c0-.28-.02-.51-.06-.7-.04-.19-.11-.33-.21-.45-.1-.11-.24-.19-.41-.24-.17-.05-.4-.07-.67-.07h-1.38ZM174.35,98.18c0-.2,0-.37,0-.52,0-.15.01-.29.02-.43.01-.14.03-.27.05-.41.02-.14.05-.29.09-.46.19.03.37.05.56.08.19.03.38.06.56.08-.03.16-.05.3-.07.43-.02.13-.03.25-.05.38-.01.13-.02.26-.02.4,0,.14,0,.3,0,.49v2.05h-1.15v-2.08Z"/>
    <path class="st1" d="M186.52,99.27c-.14-.43-.25-.84-.32-1.23-.08-.39-.11-.77-.11-1.15,0-.44.06-.86.17-1.28.11-.41.29-.83.54-1.25-.12,0-.22-.01-.33-.02-.1-.01-.21-.03-.31-.05-.11-.02-.22-.05-.33-.08-.11-.03-.23-.08-.36-.12.06-.16.11-.32.17-.48.06-.16.11-.32.17-.49.19.06.35.1.49.13.14.03.28.05.42.07.14.02.28.03.42.03.15,0,.32,0,.52,0h1.72c.28,0,.55.03.83.09.27.06.52.18.74.36.22.17.39.4.53.71.14.3.2.7.2,1.18v4.55h-1.15v-4.42c0-.27-.02-.5-.05-.69-.03-.19-.1-.34-.2-.45-.1-.11-.23-.19-.4-.24-.17-.05-.38-.07-.65-.07h-1.3c-.25.34-.42.72-.52,1.13-.1.42-.15.84-.15,1.29,0,.36.03.71.08,1.06.05.35.13.68.21.99l.22.71c0,.11-.02.23-.03.34,0,.11-.03.23-.05.36h-2.62v-.99h1.45Z"/>
    <path class="st1" d="M195.87,93.37v2.15c0,.24,0,.44,0,.6,0,.16-.01.3-.02.44-.01.13-.03.26-.05.39-.02.12-.05.26-.08.41l-1.12-.17c.02-.13.04-.25.06-.36.02-.11.03-.23.05-.35.01-.12.02-.26.03-.42,0-.15,0-.34,0-.56v-1.11h-1.52v-1.01h2.66Z"/>
    <path class="st1" d="M199.77,94.38c-.2,0-.37,0-.52,0-.15,0-.3-.02-.45-.03-.14-.02-.29-.05-.44-.08-.14-.04-.31-.09-.48-.15.06-.16.11-.32.17-.48.05-.16.11-.32.17-.49.18.06.35.1.49.13.14.03.28.05.41.07.14.02.28.02.42.03.15,0,.32,0,.52,0h.19c.28,0,.55.03.82.09.27.06.51.18.73.35.21.17.38.4.52.7.13.3.2.68.2,1.16v3.58h1.22v1.01h-6.28v-1.01h3.91v-3.41c0-.27-.02-.5-.06-.69-.04-.19-.11-.34-.21-.45-.1-.11-.24-.19-.41-.24-.17-.05-.39-.07-.66-.07h-.29Z"/>
  </g>
</svg>