<svg id="logo" width="122.72727" height="200" version="1.1" viewBox="0 0 122.72727 200" xmlns="http://www.w3.org/2000/svg">
<g id="Symbols" transform="matrix(2.9188892,0,0,2.9188892,-15.90909,-15.909091)" fill="none" fill-rule="evenodd">
<g id="Components--Navigation--L--Secondary--Hover-" transform="translate(-18,-18)">
<g id="ADNOC-Primary-Brand-Mark-Artwork">
<g id="g883" transform="translate(18,18)" fill="currentColor">
<g id="g1137">
<path id="Fill-4" d="m36.734437 47.496274h10.433137c1.978431-10.492959-5.143539-21.716636-16.801103-24.137451 2.380376 0.634615 12.891854 5.349211 10.252935 17.324227-0.58689 2.663467-1.984311 4.954487-3.884969 6.813224"/>
<path id="Fill-5" d="m5.4503922 5.4503922v42.0413708l4.4456042 0.0017c2.6975476-0.0065 3.3216416 0.05534 4.7960316-0.17779 6.359604-0.934569 12.175211-6.151999 12.803014-10.762587 0.940776-5.459345-2.006335-10.242862-7.663601-11.430562-0.100679-0.02113-0.210442-0.05328-0.327807-0.09366-0.201357 0.0026-2.959163 0.0286-5.084346-0.543467-0.02633 0.02244-1.220562 0.974763-0.730335 2.801275 0 0-2.833454-2.980187-1.03274-6.985613 0 0 0.87236-1.889141 3.834118-3.821093 0.02281-0.02748 0.04561-0.0544 0.06823-0.08188 0.793004-0.947842 2.693098-2.619558 5.450533-3.939433 1.407086-0.638064 3.822252-1.552442 6.526845-1.786131 12.336149-1.1566656 18.960334 8.357648 18.960334 8.357648v-13.5797778h-42.045881"/>
<path id="Fill-6" d="m35.841892 15.776696c5.306528 0.580079 9.930882 3.760558 11.654382 5.476326l-0.0015 3.663056s-6.030027-8.48992-17.332482-8.152135c0.107858 0.404065 0.125279 0.832961 0.03466 1.26277-0.334137 1.581932-2.006303 2.577578-3.73388 2.22336-1.291328-0.264568-2.247592-1.208542-2.509083-2.32853-1.77817 0.626456-2.931062 1.279934-2.931062 1.278473 3.924577-2.692972 8.900859-4.200774 14.818951-3.42332"/>
</g>
<g id="g1144">
<path id="Fill-7" d="m8.5281715 65.404706h1.6307155l3.07778 8.564902h-1.837439l-0.654777-1.979282h-2.870873l-0.6547765 1.979282h-1.7684093zm1.7684095 5.1101-0.9990105-3.070956-0.9876579 3.070956z"/>
<path id="Fill-8" d="m14.015294 65.404706h3.047183c1.247733 0 2.219789 0.355915 2.916168 1.067744 0.696197 0.712021 1.044296 1.767525 1.044296 3.166512 0 0.712212-0.09717 1.335875-0.290962 1.871755-0.194156 0.535689-0.474018 0.98742-0.839039 1.355192-0.365386 0.368155-0.810108 0.643936-1.335076 0.827535-0.525151 0.184173-1.118902 0.276164-1.78089 0.276164h-2.76168zm2.796253 7.041411c0.441083 0 0.817568-0.06598 1.129638-0.198134 0.31207-0.131771 0.565001-0.321681 0.759157-0.56954 0.193975-0.247859 0.336635-0.541618 0.4278-0.881659 0.09135-0.339849 0.137019-0.721774 0.137019-1.145582 0-0.415776-0.03985-0.793493-0.119733-1.133725-0.0797-0.339658-0.20744-0.625385-0.382308-0.85737-0.175232-0.231985-0.401414-0.411951-0.679275-0.540088-0.277678-0.127945-0.618316-0.191631-1.021368-0.191631h-1.346722v5.517729z"/>
<polyline id="Fill-9" points="22.580196 65.404706 24.218915 65.404706 27.814775 71.018759 27.814775 65.404706 29.587843 65.404706 29.587843 73.969608 27.961214 73.969608 24.35346 68.40356 24.35346 73.969608 22.580196 73.969608 22.580196 65.404706"/>
<path id="Fill-10" d="m35.049737 73.969608c-0.611036 0-1.156531-0.09887-1.6374-0.296779-0.480869-0.197732-0.889443-0.483405-1.225357-0.856654-0.336097-0.372886-0.593509-0.822243-0.772968-1.347524-0.179276-0.525281-0.268914-1.119021-0.268914-1.781403s0.08964-1.256305 0.268914-1.781586c0.179459-0.525281 0.438879-0.974273 0.77881-1.347341 0.339566-0.37325 0.749965-0.65874 1.231016-0.856836 0.480869-0.197549 1.022713-0.296779 1.625899-0.296779 0.61067 0 1.156531 0.09923 1.637217 0.296779 0.481051 0.198096 0.887434 0.483586 1.219515 0.856836 0.332263 0.373068 0.586024 0.82206 0.761466 1.347341 0.175808 0.525281 0.263438 1.119204 0.263438 1.781586s-0.08562 1.256122-0.257413 1.781403c-0.171974 0.525281-0.423909 0.974638-0.75599 1.347524-0.331898 0.373249-0.738464 0.658922-1.219332 0.856654-0.481051 0.197913-1.030746 0.296779-1.648901 0.296779m-0.0115-1.461683c0.717469 0 1.251829-0.243432 1.603261-0.730842 0.350519-0.487227 0.526509-1.183839 0.526509-2.089835 0-0.898167-0.17599-1.59314-0.526509-2.084191-0.351432-0.490869-0.885792-0.736486-1.603261-0.736486-0.717651 0-1.252193 0.245617-1.603078 0.736486-0.351249 0.491051-0.526691 1.186024-0.526691 2.084191 0 0.905996 0.175442 1.602608 0.526691 2.089835 0.350885 0.48741 0.885427 0.730842 1.603078 0.730842"/>
<path id="Fill-11" d="m47.496274 70.94337c-0.04118 0.434063-0.149834 0.835716-0.325947 1.20496-0.176507 0.369245-0.41832 0.688965-0.725833 0.958979-0.307513 0.270561-0.684844 0.481948-1.131797 0.633979-0.446756 0.152213-0.965488 0.22832-1.555803 0.22832-0.664448 0-1.248879-0.102689-1.752902-0.308432-0.504416-0.205378-0.926854-0.494511-1.267118-0.867761-0.340461-0.373067-0.596787-0.824063-0.768783-1.353349-0.172191-0.528923-0.258091-1.113377-0.258091-1.752818 0-0.662382 0.09394-1.256305 0.282606-1.781586 0.188665-0.525281 0.459308-0.974273 0.811928-1.347341 0.352228-0.37325 0.778981-0.658558 1.279278-0.856836 0.499904-0.197549 1.066097-0.296779 1.697596-0.296779 0.557564 0 1.043348 0.06482 1.457549 0.19409 0.414005 0.129454 0.762703 0.316079 1.045505 0.559511 0.282802 0.243977 0.510691 0.536933 0.682686 0.879413 0.171996 0.342661 0.299472 0.727382 0.38145 1.153615l-1.820563 0.216849c-0.09021-0.479398-0.264563-0.85629-0.522655-1.130674-0.258287-0.27402-0.666408-0.411121-1.223972-0.411121-0.70524 0-1.240446 0.245799-1.605225 0.73685-0.365172 0.490869-0.547169 1.185842-0.547169 2.084009 0 0.905996 0.194157 1.602608 0.584039 2.089835 0.389294 0.48741 0.911949 0.730842 1.568355 0.730842 0.565801 0 0.982159-0.135098 1.248487-0.405477 0.266132-0.270015 0.43244-0.656556 0.49814-1.159078h1.968239"/>
</g>
<path id="Fill-12" d="m14.572136 60.047916v-7.101249h1.77904v8.564902h-7.4159977c-1.183171 0-2.0596504-0.240096-2.6296286-0.719929-0.5703588-0.479834-0.8551575-1.211571-0.8551575-2.195033 0-0.543704 0.1191737-1.023537 0.3573309-1.4395 0.2383476-0.415784 0.5892059-0.743545 1.0529556-0.983462 0.4637498-0.240096 1.0192596-0.376066 1.6655775-0.407912l0.2046514 1.427513c-0.5701685 0.04008-0.9789003 0.169785-1.2254339 0.389843-0.2471048 0.2197-0.3702764 0.557837-0.3702764 1.013518 0 0.503807 0.1380207 0.871644 0.4148237 1.10351 0.2764223 0.231866 0.7127583 0.347799 1.3084368 0.347799zm-1.650157-3.636143v0.563741h-2.271536v-0.563741h0.28042v-0.356387c0-0.288043 0.08529-0.510069 0.255482-0.665898 0.170193-0.15583 0.41292-0.233655 0.727417-0.233655 0.30631 0 0.533807 0.06172 0.682679 0.185528 0.149062 0.124342 0.24482 0.334202 0.287654 0.629759l-0.574357 0.0721c-0.01713-0.135791-0.0514-0.229718-0.102421-0.28196-0.05102-0.05188-0.135926-0.078-0.2551-0.078-0.264048 0-0.395787 0.139907-0.395787 0.420257v0.30826h1.365549z"/>
<path id="Fill-13" d="m32.551345 55.282549v4.843331h-9.67682v-1.835432c0-1.007062-0.23231-1.760144-0.696175-2.259053-0.463866-0.49891-1.172308-0.748846-2.125704-0.748846-0.902442 0-1.615225 0.266881-2.13797 0.800643-0.523311 0.533569-0.784872 1.25642-0.784872 2.168745 0 1.075996 0.327046 2.018167 0.98076 2.590247 0.653525 0.572465 1.596165 0.858602 2.827918 0.858602h0.227781v0.208537c0 0.697048-0.0853 1.099103-0.255522 1.329591l0.864699 1.387164c0.147765-0.09089 0.279867-0.197176 0.396494-0.318293 0.468205-0.486393 0.702591-1.591273 0.702591-2.606999h11.385083v-6.418237zm-11.385082 4.843331h-0.531426c-1.197973 0-1.796959-0.703403-1.796959-1.873943 0-0.481772 0.10134-0.852055 0.303833-1.110271 0.202493-0.258024 0.497646-0.387613 0.885836-0.387613 0.294964 0 0.522745 0.05006 0.683154 0.148845 0.16022 0.09897 0.276092 0.277664 0.347805 0.535687 0.07171 0.258216 0.107757 0.767909 0.107757 1.292813z"/>
<polygon id="Fill-14" points="32.702353 52.946667 32.702353 54.503922 34.259608 54.503922 34.259608 52.946667"/>
<path id="Fill-15" d="m42.660149 59.982906v-0.903929c0-0.768443-0.146654-1.336365-0.440153-1.704141-0.293308-0.367403-0.745824-0.551104-1.358119-0.551104-0.391268 0-0.824953 0.07512-1.300866 0.225562l-0.408006-1.4911c0.578057-0.183701 1.194346-0.275645 1.849059-0.275645 1.088397 0 1.923622 0.313394 2.506053 0.939623 0.582051 0.626602 0.873648 1.524551 0.873648 2.694034v2.595363h-8.564902v-1.528663h6.843286"/>
<path id="Fill-16" d="m47.496274 52.46412v0.482547h-2.335882v-0.482547h0.288707v-0.30496c0-0.246326 0.0871-0.436313 0.262283-0.569657 0.174985-0.133343 0.424545-0.200091 0.748093-0.200091 0.31513 0 0.54864 0.05297 0.702095 0.158757 0.152868 0.106552 0.251322 0.285823 0.295362 0.539037l-0.590528 0.0617c-0.01762-0.11635-0.05265-0.196571-0.105108-0.241427-0.05246-0.04424-0.13995-0.06659-0.262675-0.06659-0.27109 0-0.406734 0.119871-0.406734 0.359461v0.263778h1.404387"/>
<polygon id="Fill-17" points="45.160392 53.725294 45.160392 61.511569 46.717647 61.511569 46.717647 53.725294"/>
</g>
</g>
</g>
</g>
</svg>
