<?xml version="1.0" encoding="UTF-8"?>
<svg id="Layer_1" xmlns="http://www.w3.org/2000/svg" version="1.1" viewBox="0 0 246.19 99.86">
  <!-- Generator: Adobe Illustrator 30.6.0, SVG Export Plug-In . SVG Version: 2.1.4 Build 109)  -->
  <defs>
    <style>
      .st0 {
        fill: #0c0607;
      }
    </style>
  </defs>
  <g>
    <path class="st0" d="M0,68.98h0C0,66.37,2.11,0,4.71,0h0c2.61,0,4.71,66.37,4.71,68.98H0Z"/>
    <path class="st0" d="M11.9,68.98h0C11.9,66.37,14.01,0,16.62,0h0c2.61,0,4.71,66.37,4.71,68.98h-9.43Z"/>
  </g>
  <g>
    <path class="st0" d="M37.4,89.87v2.76h3.46v1.23h-3.46v3.04h3.67v1.23h-4.98v-9.49h4.98v1.23h-3.67Z"/>
    <path class="st0" d="M48.46,88.66v9.48h-1.28v-6.82l-1.51,3.34h-.25l-1.49-3.31v6.79h-1.28v-9.48h1.17l1.74,3.86,1.74-3.86h1.17Z"/>
    <path class="st0" d="M53.28,89.89v7.02h1.84v1.23h-4.99v-1.23h1.84v-7.02h-1.84v-1.23h4.99v1.23h-1.84Z"/>
    <path class="st0" d="M62.5,88.66v9.48h-1.17l-3.11-6.79v6.79h-1.31v-9.48h1.21l3.07,6.63v-6.63h1.31Z"/>
    <path class="st0" d="M65.69,89.87v2.76h3.46v1.23h-3.46v3.04h3.67v1.23h-4.98v-9.49h4.98v1.23h-3.67Z"/>
    <path class="st0" d="M76.65,88.66v9.48h-1.17l-3.11-6.79v6.79h-1.31v-9.48h1.21l3.07,6.63v-6.63h1.31Z"/>
    <path class="st0" d="M83.79,95.44c0,1.61-1.05,2.88-2.83,2.88s-2.79-1.28-2.79-2.9v-4.1c0-1.6,1.04-2.88,2.79-2.88s2.8,1.24,2.8,2.83v.28h-1.31v-.29c0-.88-.56-1.57-1.49-1.57s-1.47.72-1.47,1.66v4.08c-.01.93.52,1.67,1.47,1.67s1.52-.73,1.52-1.66v-.4h1.31v.4Z"/>
    <path class="st0" d="M86.91,89.87v2.76h3.46v1.23h-3.46v3.04h3.67v1.23h-4.98v-9.49h4.98v1.23h-3.67Z"/>
    <path class="st0" d="M103.47,95.91h-2.64l-.56,2.23h-1.4l2.62-9.49h1.32l2.62,9.49h-1.39l-.56-2.23ZM103.15,94.68l-1.01-3.99-1,3.99h2.02Z"/>
    <path class="st0" d="M112,88.66v9.48h-1.31v-4.26h-2.96v4.26h-1.31v-9.48h1.31v3.98h2.96v-3.98h1.31Z"/>
    <path class="st0" d="M119.19,88.66v9.48h-1.28v-6.82l-1.51,3.34h-.25l-1.49-3.31v6.79h-1.28v-9.48h1.17l1.74,3.86,1.74-3.86h1.17Z"/>
    <path class="st0" d="M122.28,89.87v2.76h3.46v1.23h-3.46v3.04h3.67v1.23h-4.98v-9.49h4.98v1.23h-3.67Z"/>
    <path class="st0" d="M130.42,88.65c1.83,0,2.9,1.15,2.9,2.76v3.95c0,1.62-1.07,2.78-2.9,2.78h-2.63v-9.49h2.63ZM129.08,96.91h1.33c.99,0,1.58-.61,1.58-1.55v-3.94c0-.95-.57-1.55-1.58-1.55h-1.33v7.03Z"/>
    <path class="st0" d="M143.49,89.87v2.76h3.46v1.23h-3.46v3.04h3.67v1.23h-4.98v-9.49h4.98v1.23h-3.67Z"/>
    <path class="st0" d="M150.93,96.91h3.52v1.23h-4.83v-9.49h1.31v8.26Z"/>
    <path class="st0" d="M160.58,93.28v1.15h-3.72v-1.15h3.72Z"/>
    <path class="st0" d="M168.85,89.89h-2.39v8.25h-1.31v-8.25h-2.4v-1.23h6.1v1.23Z"/>
    <path class="st0" d="M174.2,95.91h-2.64l-.56,2.23h-1.4l2.62-9.49h1.32l2.62,9.49h-1.39l-.56-2.23ZM173.88,94.68l-1.01-3.99-1,3.99h2.02Z"/>
    <path class="st0" d="M180.61,96.91h1.68v1.23h-4.67v-1.23h1.68v-3.4l-2.82-4.86h1.52l1.94,3.46,1.92-3.46h1.56l-2.82,4.74v3.52Z"/>
    <path class="st0" d="M185.93,89.87v2.76h3.46v1.23h-3.46v3.04h3.67v1.23h-4.98v-9.49h4.98v1.23h-3.67Z"/>
    <path class="st0" d="M197.06,95.36c0,1.5-.96,2.78-2.76,2.78h-2.7v-9.49h2.5c1.92,0,2.76,1.24,2.76,2.54,0,.81-.33,1.52-1.05,1.95.83.45,1.25,1.29,1.25,2.23ZM192.91,89.87v2.76h1.12c.99,0,1.5-.56,1.5-1.39s-.51-1.37-1.5-1.37h-1.12ZM195.74,95.36c0-.85-.61-1.49-1.51-1.49h-1.32v3.04h1.32c.89,0,1.51-.59,1.51-1.55Z"/>
    <path class="st0" d="M211.14,88.66v9.48h-1.28v-6.82l-1.51,3.34h-.25l-1.5-3.31v6.79h-1.28v-9.48h1.17l1.74,3.86,1.74-3.86h1.17Z"/>
    <path class="st0" d="M218.22,91.34v4.11c0,1.63-1.09,2.9-2.91,2.9s-2.91-1.27-2.91-2.9v-4.11c0-1.62,1.09-2.9,2.91-2.9s2.91,1.28,2.91,2.9ZM213.69,91.33v4.12c0,.93.59,1.67,1.61,1.67s1.62-.73,1.62-1.67v-4.12c0-.95-.59-1.66-1.62-1.66s-1.61.71-1.61,1.66Z"/>
    <path class="st0" d="M223.74,91.03c0-.83-.64-1.36-1.4-1.36-.68,0-1.27.43-1.27,1.23,0,.84.52,1.27,1.29,1.6l.81.39c1.11.51,1.99,1.24,1.99,2.83s-1.35,2.63-2.78,2.63-2.8-1.03-2.8-2.79v-.47h1.31v.45c0,.95.64,1.57,1.49,1.57s1.47-.51,1.47-1.35c0-.95-.59-1.4-1.33-1.74l-.83-.37c-1.16-.51-1.95-1.2-1.95-2.7s1.08-2.54,2.59-2.54,2.71,1.05,2.71,2.59v.56h-1.31v-.55Z"/>
    <path class="st0" d="M232.36,91.34v4.11c0,1.28-.68,2.35-1.87,2.74l1.05,1.67h-1.53l-.97-1.53c-1.56-.17-2.5-1.37-2.5-2.87v-4.11c0-1.62,1.09-2.9,2.91-2.9s2.91,1.28,2.91,2.9ZM231.07,91.33c0-.95-.59-1.66-1.62-1.66s-1.61.71-1.61,1.66v4.12c0,.93.59,1.67,1.61,1.67s1.62-.73,1.62-1.67v-4.12Z"/>
    <path class="st0" d="M239.33,88.66v6.77c0,1.66-1.08,2.9-2.8,2.9s-2.79-1.24-2.79-2.9v-6.77h1.31v6.78c0,.96.53,1.66,1.48,1.66s1.5-.69,1.48-1.66v-6.78h1.32Z"/>
    <path class="st0" d="M242.52,89.87v2.76h3.46v1.23h-3.46v3.04h3.67v1.23h-4.98v-9.49h4.98v1.23h-3.67Z"/>
  </g>
  <g>
    <path class="st0" d="M44.79,75.64c0,.95-.04,1.73-.14,2.35-.07.4-.15.75-.26,1.06l.14.08c.51.28.95.37,1.58.37.1,0,.14.04.14.14v.95c0,.1-.04.15-.14.15-.51,0-.98-.1-1.4-.28-.26-.12-.54-.29-.82-.53-.17.19-.36.36-.59.48-.32.18-.68.28-1.09.32h-3.62c-2.21,0-3.5-1.11-3.5-3.17,0-.65.14-1.7.41-2.92h1.11c-.24,1.16-.35,1.92-.35,2.63,0,1.53.69,2.21,2.58,2.21h3.21c.62-.01,1.06-.26,1.3-.75.25-.54.36-1.37.36-3.12h1.08ZM40.38,81.76l1.06,1.04-1.04,1.05-1.06-1.05,1.04-1.04Z"/>
    <path class="st0" d="M49.35,75.64c0,.93-.04,1.69-.11,2.28-.04.32-.1.59-.17.86.3.22.62.4.95.53.37.14.77.21,1.19.21.1,0,.14.04.14.14v.95c0,.1-.04.15-.14.15-.9,0-1.76-.36-2.56-1.08-.22.3-.51.55-.87.73-.46.23-1.01.35-1.69.35-.1,0-.14-.06-.14-.15v-.95c0-.1.04-.14.14-.14.95,0,1.49-.23,1.78-.73.33-.55.37-1.38.37-3.14h1.09ZM47.39,81.83l1.05,1.01,1.04-1.01,1.05,1.04-1.05,1.05-1.04-1.02-1.04,1.02-1.05-1.05,1.04-1.04Z"/>
    <path class="st0" d="M53.95,70.74v3.94c0,.48-.04,1.02-.14,1.63l-.17.98c.46-.54.88-1,1.26-1.4,1.7-1.81,2.65-2.29,3.76-2.29,1.64,0,2.87,1.24,2.87,2.94,0,2.49-2.21,4.22-5.56,4.22h-4.77c-.1,0-.14-.06-.14-.15v-.95c0-.1.04-.14.14-.14h.62l.94-1.16v-7.62h1.17ZM55.82,79.51c2.72,0,4.53-1.16,4.53-2.78,0-1.06-.82-1.89-1.85-1.89s-2.06.84-3.9,2.92l-1.53,1.76h2.75ZM60.27,78.78c.75.57,1.24.73,2.09.73.1,0,.14.04.14.14v.95c0,.1-.04.15-.14.15-1.04,0-1.8-.33-2.69-1.29l.61-.69Z"/>
    <path class="st0" d="M65.17,70.74v7.38c0,1.62-.93,2.64-2.82,2.64-.1,0-.14-.06-.14-.15v-.95c0-.1.04-.14.14-.14,1.2,0,1.64-.46,1.64-1.44v-7.34h1.17Z"/>
    <path class="st0" d="M68.49,70.74v10.02h-1.17v-10.02h1.17Z"/>
    <path class="st0" d="M71.9,79.11c1.15.33,1.74.4,2.5.4s1.45-.1,2.09-.29c-.14-.26-.26-.55-.36-.87-.33-1.05-.73-2.68-1.02-4.3h1.24c.22,1.44.55,3.14.88,4.13.32.94.79,1.33,1.62,1.33.1,0,.14.04.14.14v.95c0,.1-.04.15-.14.15-.7,0-1.3-.23-1.78-.72-.39.24-.79.4-1.2.53-.46.12-.94.19-1.47.19-.95,0-1.4-.1-2.5-.47v-1.17Z"/>
    <path class="st0" d="M85,76.39l.4,1.37c.36,1.31.73,1.76,1.34,1.76.1,0,.14.04.14.14v.95c0,.1-.04.15-.14.15-.66,0-1.13-.28-1.52-.73-.07-.07-.12-.15-.18-.24l-.25.97c-.95,0-1.8-.07-2.53-.21-.61-.12-1.12-.29-1.52-.51-.18.14-.36.26-.54.37-.39.22-.82.35-1.35.35-.1,0-.14-.06-.14-.15v-.95c0-.1.04-.14.14-.14.39,0,.73-.06,1.02-.17l.08-.03-.03-.03c-.12-.23-.19-.48-.19-.76,0-1.55,1.15-4.22,3.03-4.22,1.12,0,1.81.64,2.24,2.07ZM84.74,79.19c-.14-.32-.26-.68-.39-1.06l-.35-1.08c-.32-1.04-.71-1.49-1.31-1.49-.73,0-1.56,1-2,3.03.73.41,1.6.73,2.93.87.37.04.8.06,1.26.06l-.14-.32Z"/>
    <path class="st0" d="M94.83,77.08l-.32,1.17c-3.33.65-3.25,2.5-7.74,2.5-.1,0-.15-.06-.15-.15v-.95c0-.1.06-.14.15-.14,3.07,0,4.2-.95,5.8-1.66.21-.1.41-.18.65-.26-.4-.21-.75-.41-1.05-.62-1.09-.82-1.85-1.53-2.87-1.53-.54,0-1.06.12-1.66.33v-1.11c.43-.26,1.13-.47,1.73-.47,1.87,0,2.76,1.89,5.46,2.89Z"/>
    <path class="st0" d="M98.44,70.87l-.25.83h-2.24c-.32,0-.55.01-1.04.17v-.8c.24-.08.41-.14.55-.15l.41-.04-.11-.14c-.14-.21-.21-.41-.21-.65,0-.72.57-1.24,1.3-1.24.39,0,.72.12,1.05.28v.8c-.43-.17-.64-.21-.87-.21-.4,0-.69.22-.69.59,0,.15.06.29.18.4.11.1.25.15.4.17h1.51ZM97.32,72.46v8.29h-1.17v-8.29h1.17Z"/>
    <path class="st0" d="M110.09,77.88l-.64,1.37c-3.11-.04-4.89.14-4.89,1.92,0,.58.12,1.35.46,3.39h-1.17c-.33-2.11-.46-2.9-.46-3.55,0-2.27,2.16-2.92,4.57-2.96.33,0,.66,0,1,.01-.26-.46-.51-.86-.75-1.17-.9-1.26-1.52-1.59-2.1-1.59s-1.23.32-1.99.94v-1.11c.65-.66,1.41-1.08,2.14-1.08,1.3,0,2.28,1.11,3.83,3.83Z"/>
    <path class="st0" d="M112.37,70.74v7.34c0,.98.44,1.44,1.64,1.44.1,0,.14.04.14.14v.95c0,.1-.04.15-.14.15-1.89,0-2.82-1.02-2.82-2.64v-7.38h1.17Z"/>
    <path class="st0" d="M121.14,79.47l-.93,1.47c-.93,0-1.84-.08-2.72-.26-.82-.15-1.52-.37-2.14-.66l-.07.1c-.33.44-.7.65-1.27.65-.1-.01-.14-.07-.14-.15v-.95c0-.1.04-.14.14-.14.64,0,.8-.72,1.42-2.25.82-2,1.58-2.87,2.9-2.87,1.8,0,2.54,1.93,2.81,5.09ZM120.05,79.68c-.08-1.31-.28-2.31-.57-2.99-.32-.7-.72-1.05-1.22-1.05-.75,0-1.24.5-1.95,2.28l-.41.98c.59.28,1.26.47,1.98.59.75.12,1.47.18,2.17.18Z"/>
    <path class="st0" d="M127.85,70.04v3.28c0,.7-.1,1.35-.29,1.95-.06.18-.12.35-.19.53l.69.62c.84.77,1.23,1.44,1.23,2.2,0,1.15-.75,2.14-2.5,2.14h-4.34l-.54-1.24c1.56-.93,2.76-1.74,3.55-2.7.21-.23.37-.48.53-.73l-3.83-3.48.06-.14h1.46l2.78,2.52c.15-.5.22-1.05.22-1.66v-3.28h1.17ZM125.22,78.45c-.47.37-1.01.72-1.62,1.06h3.44c.68,0,1.06-.36,1.06-.87,0-.4-.26-.87-.7-1.27l-.62-.55s-.06.1-.1.14c-.39.53-.87,1.02-1.47,1.49ZM127.52,83.46l-.25.83h-2.24c-.32,0-.55.01-1.04.17v-.8c.24-.08.41-.14.55-.17.11-.01.25-.03.41-.03l-.12-.15c-.14-.19-.21-.4-.21-.64,0-.72.57-1.23,1.3-1.23.39,0,.72.11,1.05.26v.8c-.43-.15-.64-.21-.87-.21-.4,0-.69.25-.69.59,0,.15.07.29.19.4.11.1.24.15.39.17h1.52Z"/>
    <path class="st0" d="M131.91,70.74v10.02h-1.17v-10.02h1.17Z"/>
    <path class="st0" d="M135.32,79.11c1.15.33,1.74.4,2.5.4s1.45-.1,2.09-.29c-.14-.26-.26-.55-.36-.87-.33-1.05-.73-2.68-1.02-4.3h1.24c.22,1.44.55,3.14.88,4.13.32.94.79,1.33,1.62,1.33.1,0,.14.04.14.14v.95c0,.1-.04.15-.14.15-.7,0-1.3-.23-1.78-.72-.39.24-.79.4-1.2.53-.46.12-.94.19-1.47.19-.95,0-1.4-.1-2.5-.47v-1.17Z"/>
    <path class="st0" d="M150.35,77.08l-.32,1.17c-.23.04-.44.1-.64.15,0,.66.39,1.11,1.6,1.11.1,0,.14.04.14.14v.95c0,.1-.04.15-.14.15-.86,0-1.48-.19-1.88-.59-.36-.37-.55-.86-.58-1.47-.36.15-.69.3-1.01.48-1.3.75-2.24,1.58-5.24,1.58-.1,0-.15-.06-.15-.15v-.95c0-.1.06-.14.15-.14,3.07,0,4.2-.95,5.8-1.66.21-.1.41-.18.65-.26-.4-.21-.75-.41-1.05-.62-1.09-.82-1.85-1.53-2.87-1.53-.54,0-1.06.12-1.66.33v-1.11c.43-.26,1.13-.47,1.73-.47,1.87,0,2.76,1.89,5.46,2.89ZM145.81,81.81l1.06,1.04-1.04,1.05-1.06-1.05,1.04-1.04Z"/>
    <path class="st0" d="M153.7,75.64c0,.95-.04,1.73-.14,2.35-.07.41-.15.79-.28,1.11.24.12.5.21.79.28.37.1.7.14.98.14.83,0,1.19-.25,1.45-.75.25-.54.36-1.37.36-3.12h1.09c0,.95-.04,1.73-.14,2.35-.07.43-.17.82-.29,1.15.21.1.44.18.69.23.37.1.7.14.98.14.83,0,1.19-.25,1.45-.75.25-.54.36-1.37.36-3.12v-.97h1.09v.97c0,.95-.04,1.73-.14,2.35-.06.35-.12.66-.22.95.1.07.19.14.29.19.51.28.95.37,1.58.37.1,0,.14.04.14.14v.95c0,.1-.04.15-.14.15-.51,0-.98-.1-1.4-.28-.29-.14-.61-.35-.93-.62-.18.24-.41.43-.68.58-.39.21-.83.32-1.34.32-.39,0-.79-.07-1.19-.21-.33-.12-.69-.29-1.08-.53-.15.15-.33.29-.54.41-.39.21-.83.32-1.34.32-.39,0-.79-.07-1.19-.21-.35-.12-.73-.32-1.16-.57-.15.18-.35.33-.55.46-.36.21-.77.32-1.23.32-.1,0-.14-.06-.14-.15v-.95c0-.1.04-.14.14-.14.57,0,1-.21,1.26-.75.25-.54.36-1.37.36-3.12h1.09Z"/>
    <path class="st0" d="M170.75,79.47l-.93,1.47c-.93,0-1.84-.08-2.72-.26-.82-.15-1.52-.37-2.14-.66l-.07.1c-.33.44-.7.65-1.27.65-.1-.01-.14-.07-.14-.15v-.95c0-.1.04-.14.14-.14.64,0,.8-.72,1.42-2.25.82-2,1.58-2.87,2.9-2.87,1.8,0,2.54,1.93,2.81,5.09ZM169.65,79.68c-.08-1.31-.28-2.31-.57-2.99-.32-.7-.72-1.05-1.22-1.05-.75,0-1.24.5-1.95,2.28l-.41.98c.59.28,1.26.47,1.98.59.75.12,1.46.18,2.17.18Z"/>
  </g>
</svg>