<svg xmlns="http://www.w3.org/2000/svg" version="1.1" width="1000" height="467.52301" viewBox="0 0 1000 467.52301" id="svg2985" style="enable-background:new">
<g id="g3019" transform="matrix(5.7102722,0,0,5.7102722,-50.690086,-37.133759)">
<path id="path2989" d="M 66.092,6.508 20.8,71.201 l 23.797,0 12.862,-18.377 16.88,0.005 L 86.608,35.3 69.725,35.32 78.181,23.231 c 14.24,0 24.867,-8.243 33.286,-16.728 L 66.092,6.508 Z" fill="currentColor"/>
<polygon id="polygon2991" points="114.269,61.698 148.433,59.463 148.544,59.298 117.416,57.23 117.561,57.058 151.673,54.835 151.789,54.667 116.124,52.374 102.932,71.201 141.936,68.735 142.052,68.575 110.883,66.502 111.002,66.34 145.181,64.107 145.304,63.926 114.171,61.87 " fill="#ed1f24"/>
<polygon id="polygon2993" points="109.536,43.344 161.361,41.009 161.476,40.851 112.654,38.923 112.718,38.763 164.58,36.417 164.668,36.274 115.859,34.313 115.957,34.171 167.796,31.82 167.894,31.669 119.065,29.73 119.173,29.579 171.015,27.219 171.126,27.061 122.287,25.125 122.402,24.964 174.232,22.637 174.338,22.471 125.502,20.537 125.609,20.386 177.462,18.022 177.574,17.854 128.726,15.932 128.841,15.767 180.672,13.434 180.783,13.278 131.943,11.342 132.053,11.188 183.877,8.849 184,8.686 130.57,6.508 98.127,52.844 154.905,50.216 155.028,50.048 106.198,48.103 106.32,47.931 158.122,45.637 158.233,45.481 109.419,43.511 " fill="#ed1f24"/>
</g>
</svg>
