<?xml version="1.0" encoding="UTF-8"?>
<svg id="Layer_1" xmlns="http://www.w3.org/2000/svg" version="1.1" viewBox="0 0 284 99.66">
  <!-- Generator: Adobe Illustrator 30.6.0, SVG Export Plug-In . SVG Version: 2.1.4 Build 109)  -->
  <defs>
    <style>
      .st0 {
        fill: #49494a;
      }

      .st1 {
        fill: #7a764d;
      }
    </style>
  </defs>
  <g>
    <path class="st1" d="M5.1,81.08c-.14-.35-.34-.64-.59-.85-.24-.21-.52-.35-.84-.45-.32-.08-.66-.14-1.01-.14s-.68.05-1.01.14c-.32.1-.61.24-.85.45-.24.21-.43.5-.58.85-.14.35-.22.8-.22,1.34,0,.49.07.91.21,1.25.14.34.33.62.56.82.24.21.52.35.84.44.32.09.68.13,1.05.13s.73-.04,1.05-.13c.33-.09.61-.24.84-.44.24-.21.43-.48.56-.82.13-.34.2-.76.2-1.25,0-.54-.07-.99-.21-1.34ZM3.4,83.32c-.16.19-.41.28-.75.28-.32,0-.56-.09-.73-.28-.16-.19-.24-.5-.24-.97,0-.82.32-1.24.97-1.24s.98.41.98,1.24c0,.46-.08.78-.23.97ZM2.33,77.18h-1.2c-.08,0-.12.04-.12.12v1.2c0,.08.04.12.12.12h1.2c.08,0,.12-.05.12-.12v-1.2c0-.08-.04-.12-.12-.12ZM4.18,77.18h-1.21c-.08,0-.12.04-.12.12v1.2c0,.08.04.12.12.12h1.21c.08,0,.12-.05.12-.12v-1.2c0-.08-.04-.12-.12-.12ZM21.38,77.18h-1.51c-.08,0-.12.04-.12.12v1.2c0,.08.04.12.12.12h1.51c.08,0,.12-.05.12-.12v-1.2c0-.08-.05-.12-.12-.12ZM32.34,76.69h-1.46c-.08,0-.12.04-.12.13v8.04c0,.08.04.13.12.13h1.46c.08,0,.12-.04.12-.13v-8.04c0-.08-.04-.13-.12-.13ZM39.06,81.07c-.14-.36-.34-.64-.58-.84-.25-.21-.53-.35-.86-.45-.33-.08-.67-.14-1.02-.14s-.68.05-1,.15c-.32.1-.61.25-.86.48-.24.21-.44.5-.6.86-.15.35-.23.79-.23,1.31,0,.55.07.99.21,1.32.14.34.35.59.62.77.28.19.61.31.99.37.39.06.82.08,1.31.08h.51c0,.22-.03.41-.08.54-.06.13-.13.24-.22.31-.09.08-.21.12-.34.14-.14.02-.28.03-.44.03h-1.4c-.08,0-.12.05-.12.12v1.23c0,.08.04.12.12.12h1.79c.82,0,1.43-.18,1.82-.56.39-.37.59-.94.59-1.71v-2.84c0-.52-.07-.95-.21-1.3ZM37.57,83.51h-.94c-.3,0-.55-.08-.75-.23-.19-.15-.28-.45-.28-.9,0-.39.08-.7.25-.93.17-.23.43-.34.76-.34.64,0,.96.41.96,1.21v1.19ZM54.16,81.08c-.15-.35-.35-.64-.6-.85-.24-.21-.53-.35-.86-.45-.33-.08-.67-.14-1.02-.14s-.68.05-1.01.14c-.33.1-.61.24-.87.45-.25.21-.45.5-.61.85-.15.35-.22.8-.22,1.34,0,.46.06.82.19,1.1h-3.26c-.2,0-.35-.05-.44-.14-.09-.09-.14-.26-.14-.51v-2.11c0-.08-.03-.12-.12-.12h-1.48c-.08,0-.13.05-.13.12v2.69c0,.53.12.92.34,1.16.22.25.59.38,1.1.38h6.65c.39,0,.74-.04,1.07-.13.33-.08.61-.22.86-.42.24-.2.43-.46.56-.79.14-.33.21-.74.21-1.23,0-.54-.07-.99-.21-1.34ZM52.42,83.3c-.16.17-.41.26-.74.26s-.59-.09-.75-.26c-.17-.18-.25-.51-.25-.98,0-.8.34-1.2,1-1.2s.99.41.99,1.24c0,.46-.09.77-.25.95ZM52.47,77.18h-1.51c-.08,0-.12.04-.12.12v1.2c0,.08.04.12.12.12h1.51c.08,0,.12-.05.12-.12v-1.2c0-.08-.04-.12-.12-.12ZM63.58,77.18h-1.22c-.08,0-.12.04-.12.12v1.2c0,.08.04.12.12.12h1.22c.08,0,.12-.05.12-.12v-1.2c0-.08-.04-.12-.12-.12ZM65.47,77.18h-1.24c-.08,0-.12.04-.12.12v1.2c0,.08.04.12.12.12h1.24c.08,0,.12-.05.12-.12v-1.2c0-.08-.04-.12-.12-.12ZM73.09,81.07c-.14-.36-.34-.64-.57-.84-.25-.21-.53-.35-.86-.45-.33-.08-.67-.14-1.02-.14s-.68.05-1,.15c-.32.1-.61.25-.86.48-.25.21-.45.5-.6.86-.15.35-.23.79-.23,1.31,0,.55.07.99.21,1.32.14.34.35.59.62.77.28.19.61.31.99.37.39.06.82.08,1.31.08h.51c0,.22-.03.41-.08.54-.06.13-.13.24-.22.31-.1.08-.21.12-.34.14-.14.02-.28.03-.44.03h-1.4c-.08,0-.12.05-.12.12v1.23c0,.08.05.12.12.12h1.79c.82,0,1.43-.18,1.82-.56.39-.37.59-.94.59-1.71v-2.84c0-.52-.07-.95-.22-1.3ZM71.6,83.51h-.94c-.3,0-.55-.08-.75-.23-.19-.15-.28-.45-.28-.9,0-.39.08-.7.26-.93.16-.23.42-.34.75-.34.64,0,.96.41.96,1.21v1.19ZM78.77,76.9h-1.22c-.08-.05-.17-.14-.25-.24-.08-.11-.11-.23-.11-.38,0-.16.05-.29.14-.39.1-.1.23-.15.37-.15.22,0,.41.09.58.28.05.05.08.05.12,0l.36-.38s.04-.07.01-.11c-.1-.14-.25-.25-.44-.35-.19-.1-.42-.14-.68-.14-.24,0-.44.03-.61.1-.17.07-.31.16-.41.28-.11.12-.19.25-.24.39-.05.15-.08.3-.08.44,0,.13.01.24.05.35.03.11.07.21.12.3h-.44c-.05,0-.07.03-.07.08v.55c0,.06.02.08.07.08h2.71c.05,0,.08-.03.08-.08v-.55c0-.05-.03-.08-.08-.08ZM81.63,76.69h-1.49c-.09,0-.12.04-.12.13v6.04c0,.24-.05.42-.14.51-.1.09-.24.14-.44.14h-1.11v-4.97c0-.08-.05-.12-.12-.12h-1.5c-.08,0-.12.04-.12.12v4.97h-1.94c-.08,0-.12.04-.12.12v1.22c0,.08.05.13.12.13h5.66c.52,0,.89-.13,1.1-.38.22-.24.34-.63.34-1.16v-6.63c0-.08-.05-.13-.12-.13ZM84.98,76.69h-1.46c-.08,0-.12.04-.12.13v8.04c0,.08.04.13.12.13h1.46c.08,0,.12-.04.12-.13v-8.04c0-.08-.05-.13-.12-.13ZM91.69,81.07c-.14-.36-.34-.64-.58-.84-.24-.21-.52-.35-.85-.45-.33-.08-.67-.14-1.03-.14-.34,0-.68.05-1,.15-.32.1-.61.25-.85.48-.24.21-.45.5-.6.86-.15.35-.23.79-.23,1.31,0,.55.07.99.21,1.32.14.34.35.59.63.77.27.19.6.31.99.37.38.06.82.08,1.31.08h.52c0,.22-.03.41-.08.54-.06.13-.13.24-.23.31-.09.08-.21.12-.34.14-.13.02-.28.03-.44.03h-1.4c-.08,0-.12.05-.12.12v1.23c0,.08.04.12.12.12h1.77c.83,0,1.44-.18,1.83-.56.38-.37.57-.94.57-1.71v-2.84c0-.52-.07-.95-.21-1.3ZM90.2,83.51h-.94c-.31,0-.56-.08-.75-.23-.19-.15-.29-.45-.29-.9,0-.39.09-.7.26-.93.17-.23.42-.34.75-.34.64,0,.97.41.97,1.21v1.19ZM98.52,76.69h-1.22c-.08,0-.12.04-.12.13v1.19c0,.08.05.12.12.12h1.22c.08,0,.12-.04.12-.12v-1.19c0-.08-.04-.13-.12-.13ZM100.41,76.69h-1.22c-.08,0-.12.04-.12.13v1.19c0,.08.04.12.12.12h1.22c.08,0,.13-.04.13-.12v-1.19c0-.08-.05-.13-.13-.13ZM106.33,86.04h-1.22c-.08,0-.12.04-.12.12v1.19c0,.08.05.12.12.12h1.22c.08,0,.12-.04.12-.12v-1.19c0-.08-.04-.12-.12-.12ZM108.22,86.04h-1.24c-.08,0-.12.04-.12.12v1.19c0,.08.05.12.12.12h1.24c.08,0,.12-.04.12-.12v-1.19c0-.08-.03-.12-.12-.12ZM141.88,87.71h-1.22c-.1-.06-.17-.14-.25-.24-.08-.11-.12-.24-.12-.38,0-.16.05-.29.15-.39.1-.1.22-.15.37-.15.21,0,.41.1.57.29.04.03.08.03.13-.02l.36-.37s.04-.07.01-.11c-.1-.14-.26-.26-.44-.35-.19-.1-.42-.14-.68-.14-.23,0-.43.03-.6.1-.17.06-.3.17-.41.28-.1.12-.18.25-.23.4s-.08.3-.08.44.01.25.05.35c.03.11.07.2.12.3h-.46s-.07.03-.07.08v.55c0,.06.03.08.07.08h2.73c.05,0,.07-.03.07-.08v-.55c0-.06-.02-.08-.07-.08ZM144.72,76.69h-1.48c-.08,0-.12.04-.12.13v6.04c0,.24-.05.42-.14.51-.09.09-.24.14-.44.14h-1.11v-4.97c0-.08-.05-.12-.12-.12h-1.49c-.08,0-.12.04-.12.12v4.97h-1.94c-.08,0-.12.04-.12.12v1.22c0,.08.05.13.12.13h5.67c.52,0,.88-.13,1.1-.38.23-.24.34-.63.34-1.16v-6.63c0-.08-.04-.13-.13-.13Z"/>
    <path class="st1" d="M136.38,79.97v3.47c0,.53-.12.92-.34,1.16-.21.25-.59.38-1.1.38h-.67c-.31,0-.57-.06-.77-.18-.2-.12-.35-.28-.46-.47-.12.25-.29.43-.52.52-.23.08-.55.14-.95.14h-.47c-.32,0-.57-.06-.78-.18-.2-.12-.36-.28-.46-.47-.12.26-.29.44-.52.52-.23.08-.55.13-.96.13h-1.46s-.04,0-.06,0h-.06s-.04,0-.06,0h-1.57s-.08,0-.12,0c-.02,0-.05,0-.06,0-.3,0-.57-.04-.79-.12-.23-.07-.43-.24-.59-.5-.12.25-.3.41-.54.49-.23.08-.57.12-.99.12h-5.38c-.08,0-.12-.04-.12-.13v-1.22c0-.08.03-.12.12-.12h1.94v-4.97c0-.08.04-.12.12-.12h1.48c.08,0,.13.04.13.12v4.97h1.11c.21,0,.35-.05.44-.14.1-.09.14-.26.14-.51v-6.04c0-.08.05-.13.12-.13h1.49c.08,0,.12.04.12.13v6.1c.04.19.13.34.28.44.16.1.37.15.64.15h.28s.06,0,.09.01c.03-.01.06-.01.09-.01h1.57s.06,0,.09.01c.03-.01.06-.01.09-.01h.82c.24,0,.39-.06.45-.18.06-.12.1-.34.1-.65v-1.83c0-.08.04-.12.12-.12h1.48c.08,0,.12.03.12.12v2c0,.26.08.44.25.53.15.08.34.14.53.14.15,0,.28-.02.37-.05.1-.03.17-.08.2-.15.05-.06.07-.15.08-.26.02-.1.03-.24.03-.41v-1.79c0-.08.04-.12.12-.12h1.5c.08,0,.12.03.12.12v1.98c0,.28.08.46.24.55.17.08.36.13.57.13.15,0,.28-.02.35-.05.08-.03.14-.08.19-.15.03-.06.06-.15.07-.26,0-.12.01-.25.01-.41v-2.65c0-.08.04-.13.12-.13h1.49c.08,0,.12.05.12.13Z"/>
    <path class="st1" d="M115.26,81.08c-.15-.35-.35-.64-.59-.85-.25-.21-.53-.35-.86-.45-.33-.08-.67-.14-1.02-.14s-.68.04-1.01.12c-.33.08-.61.22-.86.42-.24.19-.45.45-.6.78-.15.33-.22.73-.22,1.21v.25c-.03.42-.11.7-.26.86-.16.15-.32.23-.5.23h-.35s-.06,0-.1.01c-.03-.01-.06-.01-.09-.01h-.28c-.28,0-.51-.06-.66-.18-.15-.12-.24-.28-.26-.48v-2.87c0-.08-.03-.13-.12-.13h-1.46c-.09,0-.12.05-.12.13v2.53c0,.37-.04.63-.1.78-.06.15-.23.23-.48.23h-.75s-.07,0-.1.01c0,0-.01,0-.02,0-.03-.01-.06-.01-.09-.01h-1.58c-.05,0-.1,0-.14.02-.05-.01-.09-.02-.14-.02h-.39c-.2,0-.35-.05-.44-.14-.1-.09-.14-.26-.14-.51v-3.74c0-.09-.04-.12-.12-.12h-1.48c-.09,0-.12.03-.12.12v.52h-1.23c-.3,0-.61.04-.9.12-.3.07-.56.21-.79.4-.23.19-.42.45-.56.77-.14.32-.21.72-.21,1.21,0,.43.06.8.19,1.1s.3.54.52.73c.22.19.48.32.76.41.3.08.59.14.92.14.26,0,.51-.04.74-.12.24-.07.44-.18.62-.32.08.35.23.58.45.71.22.13.53.19.93.19h1.27s.09,0,.13-.02c.05.01.09.02.14.02h1.58s.09,0,.13,0c.03,0,.05,0,.08,0h1.25c.44,0,.79-.04,1.05-.12.26-.07.44-.24.58-.5.15.26.34.43.57.5.23.07.5.12.81.12.03,0,.06,0,.1-.01.03.01.06.01.09.01.12,0,.24,0,.39-.01.14,0,.29-.04.45-.08.15-.05.3-.12.45-.2.15-.09.29-.21.4-.37.24.28.55.47.92.58s.75.16,1.19.16c.37,0,.74-.04,1.07-.13.33-.09.61-.24.85-.44.24-.21.43-.48.57-.82.14-.34.21-.76.21-1.25,0-.54-.08-.99-.22-1.34ZM99.79,81.96c0,.37-.1.65-.28.82-.18.17-.43.26-.73.26-.28,0-.52-.07-.7-.21-.19-.13-.28-.36-.28-.7,0-.39.09-.66.28-.81.19-.15.43-.23.74-.23h.97v.84ZM113.53,83.32c-.17.19-.41.28-.75.28s-.59-.09-.76-.28c-.17-.19-.25-.5-.25-.97,0-.82.34-1.24,1.01-1.24s1,.41,1,1.24c0,.46-.08.78-.24.97Z"/>
    <path class="st1" d="M66.42,81.08c-.15-.35-.35-.64-.6-.85-.24-.21-.53-.35-.86-.45-.32-.08-.66-.14-1.02-.14s-.68.05-1.01.14c-.33.1-.61.24-.87.45-.25.21-.46.49-.61.85-.15.35-.22.79-.22,1.32,0,.46.06.83.19,1.1h-.93c-.06,0-.11,0-.15.03-.03-.01-.06-.01-.1-.01h-1.57s-.07,0-.1.01c-.03-.01-.06-.01-.1-.01h-.32c-.21,0-.35-.05-.45-.14-.1-.09-.14-.26-.14-.51v-6.04c0-.08-.05-.13-.12-.13h-1.47c-.08,0-.12.04-.12.13v6.63c0,.53.12.92.33,1.16.23.25.59.38,1.09.38h1.21s.06,0,.08,0h.04s.05,0,.07,0h1.57c.05,0,.1,0,.14-.01.04,0,.08.01.12.01h3.44c.38,0,.73-.04,1.06-.13.34-.08.62-.22.86-.42.24-.2.43-.46.57-.79.14-.33.21-.74.21-1.23,0-.54-.07-.99-.21-1.34ZM64.68,83.29c-.16.17-.41.26-.74.26s-.59-.1-.75-.27c-.17-.18-.25-.5-.25-.97,0-.79.34-1.19,1-1.19s.99.41.99,1.23c0,.45-.09.77-.25.94Z"/>
    <path class="st1" d="M29.11,76.82v6.63c0,.53-.1.92-.33,1.16-.22.25-.58.38-1.1.38h-1.32s-.06,0-.08,0h-.03s-.04,0-.06,0h-1.58s-.04,0-.06,0h-.05s-.04,0-.06,0h-1.57s-.08,0-.12,0c-.02,0-.04,0-.06,0-.28,0-.5-.03-.7-.08-.19-.05-.36-.17-.5-.34v.2c0,.93-.18,1.61-.53,2.05-.36.44-.97.66-1.84.66h-.55c-.08,0-.13-.04-.13-.12v-1.23c0-.08.05-.12.13-.12h.26c.22,0,.39-.03.52-.1.12-.07.21-.17.28-.31.06-.14.09-.3.11-.49.02-.2.03-.42.03-.67v-4.47c0-.08.04-.13.12-.13h1.49c.08,0,.12.05.12.13v2.87c.01.21.1.37.26.48.15.12.37.18.66.18h.28s.06,0,.09.01c.03-.01.05-.01.08-.01h1.57s.06,0,.09.01c.03-.01.05-.01.08-.01h1.58s.06,0,.09.01c.03,0,.05-.01.08-.01h.43c.21,0,.35-.05.44-.14.1-.09.14-.26.14-.51v-6.04c0-.08.05-.13.13-.13h1.48c.09,0,.12.04.12.13Z"/>
    <path class="st1" d="M17.64,82.18v.72c0,.39-.05.73-.12,1-.07.26-.18.48-.34.63-.15.16-.34.27-.57.34-.23.08-.5.11-.81.11h-3.58s-.03,0-.05,0h0s-.07,0-.11,0h-1.55s-.06,0-.11,0c-.02,0-.05,0-.07,0h-2.15c-.5,0-.86-.13-1.08-.38-.21-.24-.32-.63-.32-1.16v-6.63c0-.08.05-.13.12-.13h1.44c.08,0,.12.04.12.13v6.04c0,.24.05.42.14.51.09.09.24.14.43.14h1.3s.03,0,.05,0c.06,0,.11,0,.14,0h1.55s.03,0,.05,0c.03,0,.08,0,.12,0h2.73c.19,0,.35-.01.47-.04.13-.02.22-.06.28-.13.06-.05.11-.14.13-.24.02-.1.03-.24.03-.4v-.57c0-.32-.08-.55-.26-.7-.17-.14-.45-.22-.84-.22h-1.83c-.08,0-.12-.04-.12-.12v-.99c0-.06.03-.12.1-.19s.12-.13.17-.19l2.59-3.06c.04-.06.1-.06.15-.04l1.01.86c.06.05.08.11.05.17l-1.84,2.12c.43.02.8.06,1.12.14.32.08.59.2.81.39.22.19.39.43.5.73.1.3.16.7.16,1.17Z"/>
    <path class="st1" d="M260.38,86.04h-1.23c-.08,0-.12.04-.12.12v1.19c0,.08.05.12.12.12h1.23c.08,0,.12-.04.12-.12v-1.19c0-.08-.05-.12-.12-.12ZM258.49,86.04h-1.22c-.09,0-.13.04-.13.12v1.19c0,.08.04.12.13.12h1.22c.08,0,.12-.04.12-.12v-1.19c0-.08-.05-.12-.12-.12ZM252.33,77.91h-1.28c-.09-.04-.17-.11-.24-.21-.07-.08-.11-.21-.11-.35,0-.15.05-.28.14-.37.09-.09.22-.13.39-.13.12,0,.24.02.34.07.09.05.18.11.27.19.04.05.08.05.11.03l.39-.41s.05-.08,0-.13c-.09-.14-.24-.25-.46-.35-.21-.1-.44-.15-.7-.15s-.46.03-.63.1c-.18.07-.32.15-.43.27s-.19.24-.24.39c-.06.14-.08.28-.08.43,0,.13.02.24.05.34.04.1.08.19.12.26h-.42c-.05,0-.08.03-.08.09v.57c0,.06.03.09.08.09h2.78s.07-.03.07-.09v-.57c0-.06-.03-.09-.07-.09ZM244.96,76.69h-1.23c-.08,0-.12.04-.12.13v1.19c0,.08.04.12.12.12h1.23c.08,0,.12-.04.12-.12v-1.19c0-.08-.05-.13-.12-.13ZM243.07,76.69h-1.22c-.09,0-.13.04-.13.13v1.19c0,.08.04.12.13.12h1.22c.08,0,.12-.04.12-.12v-1.19c0-.08-.05-.13-.12-.13ZM236.26,76.69h-1.46c-.09,0-.12.04-.12.13v8.04c0,.08.03.13.12.13h1.46c.08,0,.12-.04.12-.13v-8.04c0-.08-.04-.13-.12-.13ZM202.98,76.69h-1.23c-.08,0-.13.04-.13.13v1.19c0,.08.05.12.13.12h1.23c.08,0,.12-.04.12-.12v-1.19c0-.08-.03-.13-.12-.13ZM201.09,76.69h-1.22c-.08,0-.12.04-.12.13v1.19c0,.08.05.12.12.12h1.22c.09,0,.12-.04.12-.12v-1.19c0-.08-.03-.13-.12-.13ZM171.02,77.91h-1.28c-.1-.04-.17-.11-.25-.21-.07-.08-.11-.21-.11-.35,0-.15.05-.28.14-.37.1-.09.23-.13.38-.13.14,0,.24.02.34.07.1.05.18.11.27.19.05.05.08.05.11.03l.39-.41s.04-.08.01-.13c-.1-.14-.25-.25-.46-.35-.21-.1-.44-.15-.7-.15s-.45.03-.63.1c-.17.07-.31.15-.43.27-.11.12-.19.24-.24.39-.05.14-.08.28-.08.43,0,.13.01.24.05.34.03.1.07.19.12.26h-.43c-.05,0-.07.03-.07.09v.57c0,.06.02.09.07.09h2.78s.07-.03.07-.09v-.57c0-.06-.03-.09-.07-.09ZM165.27,81.07c-.14-.36-.34-.64-.58-.84-.24-.21-.53-.35-.85-.45-.33-.08-.67-.14-1.03-.14-.34,0-.68.05-1,.15-.32.1-.61.25-.85.48-.24.21-.45.5-.6.86-.15.35-.23.79-.23,1.31,0,.55.07.99.21,1.32.15.34.36.59.63.77.27.19.6.31.98.37.39.06.83.08,1.31.08h.52c0,.22-.03.41-.08.54-.06.13-.13.24-.23.31-.09.08-.21.12-.34.14s-.28.03-.44.03h-1.4c-.08,0-.12.05-.12.12v1.23c0,.08.04.12.12.12h1.77c.83,0,1.44-.18,1.83-.56.38-.37.57-.94.57-1.71v-2.84c0-.52-.07-.95-.21-1.3ZM163.78,83.51h-.94c-.31,0-.56-.08-.75-.23-.19-.15-.28-.45-.28-.9,0-.39.09-.7.26-.93.17-.23.42-.34.75-.34.64,0,.97.41.97,1.21v1.19ZM158.57,80.86h-1.46c-.08,0-.12.05-.12.13v3.66c0,.49-.11.86-.35,1.1-.24.24-.56.35-.97.35-.17,0-.34-.03-.51-.08-.17-.05-.32-.14-.46-.26-.13-.12-.24-.28-.32-.47-.08-.2-.12-.43-.12-.72,0-.37.05-.69.15-.97.09-.28.2-.54.32-.77.01-.04.02-.06.02-.1,0-.03-.03-.04-.07-.06l-1.32-.43c-.08-.03-.15-.01-.17.04-.22.34-.38.72-.5,1.15-.12.43-.17.85-.17,1.26,0,.51.08.95.24,1.32.17.37.39.67.67.91.28.23.62.4.99.5.39.12.78.17,1.21.17s.83-.06,1.21-.17c.37-.1.7-.28.98-.5.28-.24.49-.53.64-.89.16-.37.24-.8.24-1.31v-3.73c0-.08-.05-.13-.13-.13ZM156.63,78.5h-1.51c-.08,0-.12.04-.12.12v1.19c0,.08.03.12.12.12h1.51c.08,0,.12-.04.12-.12v-1.19c0-.08-.05-.12-.12-.12ZM148.07,76.69h-1.46c-.09,0-.12.04-.12.13v8.04c0,.08.03.13.12.13h1.46c.08,0,.12-.04.12-.13v-8.04c0-.08-.04-.13-.12-.13Z"/>
    <path class="st1" d="M280.53,76.69h-1.49c-.08,0-.12.04-.12.13v6.04c0,.24-.04.42-.14.51-.09.09-.23.14-.44.14h-.43s-.05,0-.08.01c-.03-.01-.06-.01-.1-.01h-4.04s-.06,0-.09.01c-.03-.01-.06-.01-.09-.01h-1.57s-.06,0-.08,0c-.03,0-.05,0-.08,0h-1.13c.1-.14.17-.35.24-.63.08-.27.12-.56.12-.84,0-.44-.08-.82-.23-1.13-.15-.3-.34-.55-.58-.74-.24-.19-.53-.32-.86-.41-.33-.08-.67-.12-1.04-.12-.32,0-.63.04-.95.13-.31.08-.59.24-.84.44-.25.21-.45.48-.61.82s-.23.79-.23,1.3v1.18h-1.03s-.06,0-.09.01c-.03-.01-.06-.01-.09-.01h-1.57s-.06,0-.09.01c-.03-.01-.06-.01-.09-.01h-1.57s-.06,0-.1.01h0s-.01,0-.02,0c-.03-.01-.05-.01-.07-.01h-.28c-.29,0-.51-.06-.67-.18-.16-.12-.24-.28-.26-.48v-2.87c0-.08-.05-.13-.12-.13h-1.47c-.08,0-.12.05-.12.13v2.53c0,.37-.03.63-.09.78-.07.15-.23.23-.5.23h-.75s-.07,0-.1.01c0,0-.01,0-.02,0-.03-.01-.06-.01-.1-.01h-1.57s-.06,0-.09.01c-.03-.01-.06-.01-.09-.01h-1.58s-.05,0-.06,0c-.02,0-.04,0-.06,0h-.28c-.28,0-.5-.06-.66-.18-.16-.12-.24-.28-.26-.48v-2.87c0-.08-.04-.13-.12-.13h-1.13c-.08,0-.19,0-.31.02-.12,0-.17.04-.17.11v2.56c0,.37-.04.63-.11.77-.06.14-.23.21-.48.21h-.41s-.08,0-.11.02c-.04-.01-.08-.02-.13-.02h-1.57c-.05,0-.1,0-.14.02-.05-.01-.09-.02-.14-.02h-.38c-.21,0-.35-.05-.45-.14-.09-.09-.14-.26-.14-.51v-3.74c0-.09-.04-.12-.12-.12h-1.5c-.08,0-.12.03-.12.12v.52h-1.22c-.31,0-.61.04-.91.12-.3.07-.56.21-.79.4-.23.19-.42.45-.56.77-.14.32-.21.72-.21,1.21,0,.43.06.8.19,1.1.13.3.3.54.52.73.22.19.47.32.76.41.29.08.59.14.91.14.26,0,.5-.04.74-.12.23-.07.45-.18.63-.32.07.35.23.58.44.71.22.13.53.19.93.19h1.27s.09,0,.13-.01c.04,0,.09.01.14.01h1.57s.07,0,.1,0h.02s.06,0,.1,0h.97c.44,0,.78-.04,1.02-.12.25-.08.44-.24.58-.49.15.26.34.43.57.5.23.07.5.12.81.12.01,0,.03,0,.05,0,.03,0,.05,0,.08,0h1.58s.05,0,.06,0h.05s.04,0,.06,0h1.57s.08,0,.12,0h0s.05,0,.08,0h1.26c.45,0,.79-.04,1.05-.12.25-.07.44-.24.57-.5.15.26.34.43.57.5.23.07.5.12.81.12.03,0,.05,0,.07,0h0s.07,0,.12,0h1.57s.05,0,.06,0h.05s.04,0,.06,0h1.57s.08,0,.12,0c.02,0,.04,0,.06,0h1.03v.72c0,.37.06.68.2.93.14.24.32.44.57.59.23.15.52.26.84.32.32.06.67.1,1.04.1s.7-.04,1.01-.1c.3-.06.57-.17.81-.32.23-.14.41-.33.54-.55.13-.23.19-.5.19-.82,0-.17-.02-.32-.06-.47s-.11-.28-.19-.39h1.15s.04,0,.05,0h0s.07,0,.11,0h1.57s.05,0,.06,0h.06s.04,0,.06,0h4.04s.04,0,.06,0c.02,0,.04,0,.06,0,.02,0,.04,0,.06,0h1.32c.52,0,.88-.13,1.1-.38.23-.24.33-.63.33-1.16v-6.63c0-.08-.05-.13-.12-.13ZM244.32,81.96c0,.37-.1.65-.27.82-.19.17-.43.26-.73.26s-.52-.07-.71-.21c-.19-.13-.28-.36-.28-.7,0-.39.09-.66.28-.81.19-.15.44-.23.74-.23h.97v.84ZM269.01,86.05c-.14.12-.36.16-.68.16s-.57-.05-.72-.17c-.15-.12-.23-.3-.23-.55v-.6h.84c.41,0,.68.06.8.18.13.13.19.3.19.51s-.06.36-.2.47ZM269.09,83.17c-.14.24-.37.36-.69.36h-1.02v-1.29c0-.39.08-.67.25-.85.17-.18.4-.28.68-.28.31,0,.56.1.73.29.17.18.26.47.26.86,0,.36-.08.66-.22.91Z"/>
    <path class="st1" d="M232.92,76.69h-1.49c-.08,0-.12.04-.12.13v6.04c0,.24-.05.42-.14.51-.09.09-.24.14-.44.14h-.43s-.05,0-.08.01c-.03-.01-.06-.01-.1-.01h-1.58s-.06,0-.09.01c-.03-.01-.06-.01-.09-.01h-1.56c-.09,0-.19,0-.28-.01.14-.1.28-.21.42-.35.14-.14.27-.29.39-.45.12-.17.21-.35.28-.54.06-.2.1-.41.1-.63,0-.26-.06-.51-.17-.75-.1-.23-.28-.43-.52-.6-.23-.17-.53-.3-.89-.4-.36-.09-.79-.14-1.29-.14-.34,0-.68.03-1.02.08-.34.06-.64.13-.92.22-.27.08-.49.17-.66.28-.17.1-.26.21-.26.31v.79c0,.12.01.21.04.29.03.07.07.12.14.17.3.21.57.45.82.72.26.28.44.59.55.93-.14.03-.29.06-.46.07-.15,0-.3.01-.44.01h-1.28s-.07,0-.1,0c-.03,0-.05,0-.08,0h-1.57s-.06,0-.09.01c-.03-.01-.06-.01-.09-.01h-1.58s-.06,0-.09.01c-.03-.01-.06-.01-.09-.01h-.33c-.21,0-.36-.05-.45-.14-.09-.09-.14-.26-.14-.51v-6.04c0-.08-.05-.13-.13-.13h-1.46c-.08,0-.12.04-.12.13v6.63c0,.53.1.92.32,1.16.22.25.58.38,1.1.38h1.21s.05,0,.07,0h.05s.04,0,.06,0h1.58s.05,0,.06,0h.06s.04,0,.06,0h1.57s.05,0,.06,0h.06s.04,0,.06,0h1.84c.24,0,.5-.03.8-.08.31-.05.59-.15.86-.3.23.15.48.25.75.3.26.06.54.08.84.08h1.93s.05,0,.06,0h0s.07,0,.11,0h1.58s.04,0,.06,0c.02,0,.04,0,.06,0,.02,0,.04,0,.06,0h1.31c.52,0,.88-.13,1.1-.38.23-.24.34-.63.34-1.16v-6.63c0-.08-.04-.13-.12-.13ZM225.66,82.62c-.19.23-.41.43-.68.6-.09-.36-.24-.7-.46-1.04-.22-.34-.5-.62-.82-.84.07-.05.21-.09.43-.15.21-.05.45-.08.73-.08.34,0,.61.06.8.19.19.12.28.32.28.57s-.08.51-.27.75Z"/>
    <path class="st1" d="M213.34,81.08c-.14-.35-.34-.64-.59-.85-.24-.21-.53-.35-.86-.45-.33-.08-.67-.14-1.03-.14s-.68.04-1.01.12c-.32.08-.61.22-.85.42-.25.19-.45.45-.6.78-.16.33-.23.73-.23,1.21v.25c-.01.42-.1.7-.26.86s-.32.23-.5.23h-.35s-.06,0-.09.01c-.03-.01-.06-.01-.09-.01h-1.57c-.05,0-.1,0-.14.02-.05-.01-.09-.02-.14-.02h-.37c-.2,0-.35-.05-.44-.14-.09-.09-.14-.26-.14-.51v-3.74c0-.09-.05-.12-.12-.12h-1.49c-.08,0-.12.03-.12.12v.52h-1.22c-.31,0-.61.04-.91.12-.3.07-.56.21-.79.4-.24.19-.43.45-.57.77-.14.32-.21.72-.21,1.21,0,.43.06.8.19,1.1.12.3.29.54.52.73.22.19.48.32.76.41.29.08.59.14.92.14.25,0,.5-.04.74-.12.23-.07.44-.18.62-.32.07.35.22.58.45.71.22.13.53.19.92.19h1.27c.05,0,.1,0,.14-.02.05.01.09.02.15.02h1.57s.08,0,.12,0c.02,0,.04,0,.06,0,.11,0,.24,0,.39-.01.15,0,.3-.04.45-.08.15-.05.31-.12.46-.2.15-.09.28-.21.4-.37.25.28.55.47.92.58.36.11.76.16,1.19.16.39,0,.74-.04,1.07-.13.33-.09.61-.24.86-.44.24-.21.43-.48.57-.82.14-.34.21-.76.21-1.25,0-.54-.07-.99-.23-1.34ZM202.34,81.96c0,.37-.09.65-.27.82-.19.17-.43.26-.73.26-.28,0-.52-.07-.7-.21-.19-.13-.28-.36-.28-.7,0-.39.09-.66.28-.81.18-.15.43-.23.73-.23h.97v.84ZM211.61,83.32c-.16.19-.41.28-.75.28s-.59-.09-.75-.28c-.17-.19-.26-.5-.26-.97,0-.82.34-1.24,1.01-1.24s1,.41,1,1.24c0,.46-.08.78-.24.97Z"/>
    <path class="st1" d="M194.3,76.69h-1.48c-.08,0-.12.04-.12.13v6.04c0,.24-.05.42-.14.51-.09.09-.24.14-.45.14h-.42s-.05,0-.08.01c-.03-.01-.06-.01-.09-.01h-.28c-.29,0-.51-.06-.67-.17-.15-.11-.24-.28-.25-.49v-6.03c0-.08-.05-.13-.12-.13h-1.49c-.08,0-.12.04-.12.13v5.58c0,.18,0,.34,0,.48-.02.14-.04.24-.07.34-.04.09-.1.16-.18.21-.08.05-.19.08-.33.08h-.43s-.05,0-.08.01c-.03-.01-.06-.01-.1-.01h-1.57s-.05,0-.08,0c-.02,0-.05,0-.07,0h-.28c-.28,0-.5-.06-.66-.18-.16-.12-.24-.28-.26-.48v-2.87c0-.08-.04-.13-.12-.13h-1.5c-.08,0-.12.05-.12.13v2.65c0,.16-.01.3-.02.41,0,.11-.03.2-.07.26-.04.07-.1.12-.18.15s-.2.05-.35.05c-.21,0-.41-.04-.57-.13-.17-.08-.25-.27-.25-.55v-1.98c0-.08-.05-.12-.12-.12h-1.49c-.08,0-.12.03-.12.12v1.79c0,.17,0,.3-.01.41-.01.12-.05.2-.08.26-.04.06-.11.12-.2.15-.1.03-.21.05-.37.05-.19,0-.37-.05-.53-.14-.16-.09-.24-.26-.24-.53v-2c0-.08-.05-.12-.12-.12h-1.49c-.09,0-.12.03-.12.12v1.83c0,.32-.04.53-.1.65-.06.12-.21.18-.44.18h-.82s-.07,0-.1.01c0,0-.01,0-.02,0-.03-.01-.06-.01-.1-.01h-1.57s-.06,0-.09,0c-.03,0-.05,0-.08,0h-.82v-1.14c0-.52-.07-.95-.21-1.3-.14-.36-.34-.64-.58-.84-.25-.21-.53-.35-.86-.45-.33-.08-.67-.14-1.02-.14s-.68.05-1,.15c-.32.1-.61.25-.86.48-.24.21-.44.5-.6.86-.15.35-.23.79-.23,1.31,0,.93.21,1.59.64,1.96.43.39,1.04.58,1.84.58h1.17c0,.21-.03.38-.08.52-.04.14-.11.24-.21.31-.08.07-.2.12-.34.15-.13.03-.28.04-.46.04h-1.39c-.09,0-.13.05-.13.12v1.23c0,.08.04.12.13.12h1.77c.82,0,1.43-.18,1.82-.56.39-.37.59-.94.59-1.71v-.23h.82s.06,0,.09,0c.03,0,.05,0,.08,0h1.57s.06,0,.1,0h.03s.06,0,.09,0h1.46c.42,0,.74-.04.97-.13.22-.08.39-.26.5-.52.11.19.26.35.46.47.21.12.46.18.79.18h.48c.39,0,.72-.05.94-.14.24-.09.41-.26.52-.52.1.19.26.35.46.47.2.12.45.18.77.18h.67c.28,0,.53-.04.75-.13s.39-.25.5-.48c.15.26.34.43.57.5.23.07.5.12.81.12.01,0,.03,0,.03,0h.02s.06,0,.1,0h1.57s.05,0,.06,0c.02,0,.04,0,.06,0,.02,0,.04,0,.06,0h1.1c.4,0,.72-.04.95-.13.23-.08.41-.25.53-.48.15.26.35.43.58.5.22.07.49.12.8.12.02,0,.03,0,.05,0h0s.07,0,.11,0h1.31c.51,0,.88-.13,1.1-.38.22-.24.33-.63.33-1.16v-6.63c0-.08-.04-.13-.12-.13ZM170.53,83.51h-.94c-.3,0-.55-.08-.75-.23-.19-.15-.28-.45-.28-.9,0-.39.08-.7.26-.93.17-.23.43-.34.75-.34.64,0,.96.41.96,1.21v1.19Z"/>
    <path class="st1" d="M283.87,76.69h-1.46c-.08,0-.12.04-.12.13v8.04c0,.08.04.13.12.13h1.46c.08,0,.13-.04.13-.13v-8.04c0-.08-.05-.13-.13-.13Z"/>
    <path class="st1" d="M2.9,95.37v-.68h2.45v2.15c-.38.29-.76.52-1.16.67-.4.16-.81.23-1.23.23-.57,0-1.08-.12-1.55-.36-.47-.24-.82-.6-1.06-1.06-.24-.46-.36-.98-.36-1.55s.12-1.08.36-1.58c.24-.49.57-.85,1.01-1.09.44-.24.96-.35,1.53-.35.41,0,.79.06,1.13.2.34.14.61.33.8.57.19.24.34.56.43.95l-.69.19c-.09-.29-.19-.53-.32-.69-.14-.17-.31-.31-.56-.41-.24-.1-.51-.16-.8-.16-.35,0-.65.06-.91.16s-.46.25-.62.42c-.16.18-.28.36-.36.58-.14.36-.22.74-.22,1.16,0,.52.09.96.27,1.3.18.34.43.61.77.77.34.17.7.26,1.08.26.33,0,.66-.06.97-.19.31-.13.56-.26.72-.41v-1.08h-1.7ZM6.86,97.64v-5.8h4.18v.68h-3.42v1.78h3.2v.68h-3.2v1.97h3.56v.68h-4.32ZM12.59,97.64v-5.8h.78l3.04,4.55v-4.55h.74v5.8h-.79l-3.04-4.55v4.55h-.73ZM18.8,97.64v-5.8h4.19v.68h-3.42v1.78h3.19v.68h-3.19v1.97h3.55v.68h-4.32ZM24.55,97.64v-5.8h2.57c.52,0,.91.06,1.18.16.27.11.48.29.65.55.16.26.24.56.24.88,0,.41-.13.76-.4,1.03-.26.29-.67.46-1.23.54.2.09.36.19.46.29.23.21.44.46.63.77l1.01,1.58h-.96l-.77-1.2c-.22-.35-.41-.62-.55-.81-.15-.19-.28-.31-.39-.39-.11-.07-.23-.12-.35-.15-.09-.02-.23-.03-.43-.03h-.88v2.57h-.77ZM25.32,94.41h1.65c.35,0,.62-.04.82-.11.19-.07.34-.19.44-.34.11-.16.16-.34.16-.52,0-.28-.1-.5-.3-.68-.19-.18-.51-.26-.93-.26h-1.83v1.92ZM30.1,97.64l2.22-5.8h.85l2.35,5.8h-.87l-.67-1.76h-2.44l-.63,1.76h-.81ZM31.76,95.26h1.97l-.6-1.6c-.19-.49-.32-.89-.42-1.21-.08.38-.19.75-.31,1.12l-.63,1.7ZM36.45,97.64v-5.8h.76v5.11h2.85v.68h-3.61ZM42.55,97.64l2.22-5.8h.84l2.36,5.8h-.88l-.67-1.76h-2.44l-.63,1.76h-.81ZM44.22,95.26h1.97l-.61-1.6c-.19-.49-.32-.89-.41-1.21-.08.38-.19.75-.32,1.12l-.63,1.7ZM52.73,91.85h.76v3.34c0,.58-.06,1.05-.19,1.39-.14.34-.37.62-.71.83-.34.21-.79.32-1.35.32s-.99-.09-1.33-.28-.59-.46-.73-.81c-.15-.36-.22-.84-.22-1.45v-3.34h.77v3.34c0,.51.04.88.14,1.11.09.24.26.43.48.56.22.13.5.19.83.19.56,0,.96-.13,1.2-.38.24-.26.36-.75.36-1.48v-3.34ZM56.6,97.64v-5.12h-1.91v-.68h4.59v.68h-1.91v5.12h-.77ZM60.46,97.64v-5.8h.76v2.39h2.99v-2.39h.77v5.8h-.77v-2.73h-2.99v2.73h-.76ZM66.38,94.82c0-.96.26-1.71.78-2.25.51-.54,1.18-.81,2-.81.53,0,1.02.13,1.45.38.43.26.76.61.98,1.07.22.46.34.98.34,1.55s-.11,1.11-.36,1.58c-.24.46-.57.81-1.01,1.05-.43.24-.91.36-1.4.36-.55,0-1.03-.13-1.47-.39-.43-.26-.75-.62-.97-1.08-.22-.46-.34-.94-.34-1.45h0ZM67.17,94.84c0,.7.19,1.25.56,1.65.38.4.85.6,1.41.6s1.05-.2,1.43-.61c.37-.41.56-.98.56-1.72,0-.47-.08-.88-.24-1.23-.16-.35-.39-.63-.7-.82-.31-.19-.66-.29-1.03-.29-.54,0-1.01.19-1.4.56-.39.37-.58.99-.58,1.86h0ZM73.28,97.64v-5.8h2.57c.52,0,.91.06,1.18.16.27.11.48.29.65.55.16.26.24.56.24.88,0,.41-.13.76-.4,1.03-.26.29-.67.46-1.23.54.2.09.36.19.46.29.22.21.43.46.63.77l1.01,1.58h-.96l-.77-1.2c-.22-.35-.41-.62-.55-.81-.15-.19-.28-.31-.39-.39-.11-.07-.23-.12-.35-.15-.09-.02-.23-.03-.43-.03h-.88v2.57h-.77ZM74.05,94.41h1.65c.35,0,.62-.04.82-.11.19-.07.34-.19.45-.34.1-.16.15-.34.15-.52,0-.28-.1-.5-.3-.68-.19-.18-.51-.26-.93-.26h-1.83v1.92ZM79.59,97.64v-5.8h.77v5.8h-.77ZM83.53,97.64v-5.12h-1.91v-.68h4.59v.68h-1.91v5.12h-.77ZM88.98,97.64v-2.46l-2.23-3.34h.92l1.15,1.75c.21.33.41.65.59.98.18-.31.39-.64.64-1.02l1.12-1.71h.9l-2.32,3.34v2.46h-.77ZM94.96,94.82c0-.96.26-1.71.78-2.25.52-.54,1.18-.81,2-.81.53,0,1.01.13,1.45.38.43.26.76.61.98,1.07.23.46.34.98.34,1.55s-.12,1.11-.36,1.58c-.24.46-.58.81-1.01,1.05-.43.24-.9.36-1.4.36-.55,0-1.03-.13-1.46-.39-.43-.26-.76-.62-.98-1.08-.22-.46-.34-.94-.34-1.45h0ZM95.76,94.84c0,.7.19,1.25.56,1.65.38.4.85.6,1.41.6s1.06-.2,1.43-.61c.37-.41.56-.98.56-1.72,0-.47-.08-.88-.24-1.23s-.39-.63-.7-.82c-.31-.19-.65-.29-1.03-.29-.54,0-1.01.19-1.4.56-.39.37-.58.99-.58,1.86h0ZM101.89,97.64v-5.8h3.91v.68h-3.14v1.81h2.72v.68h-2.72v2.63h-.77ZM109.52,97.64v-5.8h.77v5.8h-.77ZM111.74,95.78l.72-.06c.04.29.11.53.24.71.13.19.32.34.58.46.26.11.56.17.89.17.29,0,.55-.04.77-.13.23-.09.39-.21.5-.36s.16-.32.16-.5-.05-.34-.16-.47c-.11-.14-.28-.25-.52-.34-.16-.06-.5-.15-1.03-.28-.53-.13-.91-.25-1.12-.36-.27-.15-.48-.33-.61-.54s-.21-.46-.21-.72c0-.29.09-.57.25-.82.17-.26.41-.45.73-.58.32-.13.68-.19,1.06-.19.43,0,.81.06,1.14.21.33.14.58.34.76.61.17.27.27.58.29.91l-.74.06c-.04-.36-.17-.64-.4-.83-.23-.19-.56-.28-1.01-.28-.47,0-.81.09-1.02.26-.21.16-.31.37-.31.61,0,.21.07.38.22.51s.53.27,1.15.41c.63.14,1.06.26,1.28.37.34.15.58.35.75.58.16.24.24.51.24.82s-.09.6-.26.87c-.17.28-.43.48-.76.63-.33.16-.7.23-1.12.23-.52,0-.96-.08-1.31-.23-.36-.15-.63-.38-.83-.69-.2-.3-.31-.65-.31-1.03h0ZM117.71,97.64v-5.8h.77v5.11h2.84v.68h-3.61ZM121.96,97.64l2.22-5.8h.85l2.35,5.8h-.87l-.67-1.76h-2.44l-.63,1.76h-.81ZM123.62,95.26h1.97l-.6-1.6c-.19-.49-.32-.89-.42-1.21-.08.38-.19.75-.31,1.12l-.64,1.7ZM128.32,97.64v-5.8h1.15l1.37,4.1c.13.39.22.67.28.86.06-.21.17-.52.31-.93l1.4-4.03h1.03v5.8h-.73v-4.85l-1.7,4.85h-.68l-1.68-4.94v4.94h-.73ZM135.56,97.64v-5.8h.77v5.8h-.77ZM142.15,95.61l.77.19c-.16.63-.45,1.11-.86,1.44-.42.33-.93.49-1.53.49s-1.13-.13-1.52-.38c-.39-.26-.69-.62-.89-1.11-.21-.48-.31-1-.31-1.55,0-.6.11-1.13.34-1.58.24-.45.56-.79.98-1.02.43-.24.89-.35,1.4-.35.58,0,1.06.14,1.46.44.39.29.67.71.82,1.24l-.75.18c-.14-.42-.33-.73-.58-.92-.26-.19-.58-.29-.96-.29-.44,0-.81.11-1.11.32s-.51.5-.63.86c-.12.36-.19.73-.19,1.11,0,.49.07.92.21,1.29.14.36.36.64.67.82.3.19.63.27.98.27.43,0,.79-.12,1.09-.37.29-.24.49-.61.6-1.1h0ZM145.39,97.64l2.22-5.8h.84l2.36,5.8h-.88l-.67-1.76h-2.44l-.63,1.76h-.81ZM147.06,95.26h1.97l-.61-1.6c-.19-.49-.32-.89-.41-1.21-.08.38-.19.75-.32,1.12l-.63,1.7ZM151.82,97.64v-5.8h3.91v.68h-3.14v1.81h2.72v.68h-2.72v2.63h-.77ZM157.11,97.64v-5.8h3.91v.68h-3.14v1.81h2.72v.68h-2.72v2.63h-.76ZM161.28,97.64l2.22-5.8h.84l2.36,5.8h-.88l-.67-1.76h-2.44l-.63,1.76h-.81ZM162.95,95.26h1.97l-.61-1.6c-.19-.49-.32-.89-.41-1.21-.09.38-.19.75-.32,1.12l-.63,1.7ZM167.79,97.64v-5.8h.77v5.8h-.77ZM170.28,97.64v-5.8h2.57c.52,0,.91.06,1.18.16.27.11.48.29.65.55.16.26.24.56.24.88,0,.41-.13.76-.4,1.03-.26.29-.67.46-1.23.54.2.09.36.19.46.29.22.21.43.46.63.77l1.01,1.58h-.96l-.77-1.2c-.22-.35-.41-.62-.55-.81-.15-.19-.28-.31-.39-.39-.11-.07-.23-.12-.35-.15-.09-.02-.23-.03-.42-.03h-.89v2.57h-.77ZM171.05,94.41h1.65c.35,0,.62-.04.82-.11.19-.07.34-.19.45-.34.1-.16.15-.34.15-.52,0-.28-.1-.5-.29-.68-.2-.18-.51-.26-.94-.26h-1.83v1.92ZM176.21,95.78l.72-.06c.03.29.11.53.24.71.13.19.32.34.58.46.26.11.56.17.89.17.29,0,.55-.04.77-.13.22-.09.39-.21.5-.36.11-.15.16-.32.16-.5s-.05-.34-.16-.47c-.11-.14-.28-.25-.52-.34-.16-.06-.5-.15-1.03-.28-.53-.13-.91-.25-1.12-.36-.27-.15-.48-.33-.61-.54s-.21-.46-.21-.72c0-.29.09-.57.25-.82.17-.26.41-.45.73-.58.32-.13.68-.19,1.06-.19.43,0,.81.06,1.14.21.33.14.58.34.76.61.17.27.27.58.29.91l-.74.06c-.04-.36-.17-.64-.4-.83-.23-.19-.56-.28-1.01-.28s-.8.09-1.01.26c-.21.16-.31.37-.31.61,0,.21.07.38.22.51s.53.27,1.15.41c.63.14,1.06.26,1.28.37.34.15.58.35.75.58.16.24.24.51.24.82s-.09.6-.26.87c-.17.28-.43.48-.76.63-.33.16-.7.23-1.12.23-.52,0-.96-.08-1.31-.23-.36-.15-.63-.38-.83-.69-.2-.3-.31-.65-.31-1.03h0ZM184.48,97.64v-5.8h4.18v.68h-3.41v1.78h3.19v.68h-3.19v1.97h3.55v.68h-4.32ZM190.2,97.64v-5.8h.78l3.04,4.55v-4.55h.74v5.8h-.79l-3.04-4.55v4.55h-.73ZM196.4,97.64v-5.8h2c.45,0,.79.03,1.03.09.34.07.62.21.85.41.31.26.53.58.68.99.16.4.23.86.23,1.38,0,.44-.05.83-.15,1.17s-.24.62-.4.84c-.16.23-.34.4-.53.53-.19.13-.42.23-.68.29-.28.06-.58.1-.93.1h-2.09ZM197.17,96.96h1.24c.38,0,.68-.04.9-.11.21-.07.38-.17.51-.3.19-.18.33-.43.43-.73s.15-.68.15-1.12c0-.61-.1-1.07-.3-1.4-.19-.33-.43-.54-.72-.66-.21-.08-.53-.12-.99-.12h-1.22v4.43ZM202.36,94.82c0-.96.26-1.71.77-2.25.52-.54,1.18-.81,2-.81.53,0,1.01.13,1.45.38.43.26.76.61.98,1.07.23.46.34.98.34,1.55s-.12,1.11-.36,1.58c-.24.46-.57.81-1.01,1.05-.43.24-.91.36-1.41.36-.54,0-1.03-.13-1.46-.39-.43-.26-.76-.62-.98-1.08-.22-.46-.33-.94-.33-1.45h0ZM203.16,94.84c0,.7.19,1.25.56,1.65.37.4.84.6,1.41.6s1.05-.2,1.42-.61c.38-.41.56-.98.56-1.72,0-.47-.08-.88-.24-1.23-.16-.35-.39-.63-.7-.82-.31-.19-.65-.29-1.03-.29-.54,0-1.01.19-1.4.56-.39.37-.58.99-.58,1.86h0ZM210.24,97.64l-1.53-5.8h.8l.86,3.8c.1.4.18.79.25,1.18.16-.62.24-.98.27-1.07l1.09-3.91h.93l.83,2.93c.21.73.36,1.41.46,2.05.07-.36.17-.78.29-1.25l.91-3.73h.77l-1.58,5.8h-.75l-1.21-4.41c-.11-.37-.16-.6-.19-.68-.06.26-.12.49-.17.68l-1.22,4.42h-.8ZM217.21,97.64v-5.8h1.15l1.37,4.1c.13.39.22.67.28.86.06-.21.17-.52.31-.93l1.4-4.03h1.03v5.8h-.73v-4.85l-1.7,4.85h-.68l-1.68-4.94v4.94h-.73ZM224.34,97.64v-5.8h4.19v.68h-3.42v1.78h3.19v.68h-3.19v1.97h3.55v.68h-4.32ZM230.06,97.64v-5.8h.78l3.04,4.55v-4.55h.73v5.8h-.79l-3.04-4.55v4.55h-.73ZM237.74,97.64v-5.12h-1.91v-.68h4.58v.68h-1.91v5.12h-.76ZM241.31,95.78l.72-.06c.04.29.11.53.24.71.12.19.32.34.58.46.26.11.56.17.88.17.29,0,.55-.04.78-.13.22-.09.39-.21.5-.36.11-.15.16-.32.16-.5s-.06-.34-.16-.47c-.11-.14-.28-.25-.53-.34-.15-.06-.49-.15-1.03-.28-.53-.13-.91-.25-1.12-.36-.28-.15-.48-.33-.61-.54s-.21-.46-.21-.72c0-.29.09-.57.25-.82.16-.26.41-.45.73-.58.32-.13.67-.19,1.06-.19.43,0,.81.06,1.13.21.33.14.58.34.76.61.18.27.27.58.29.91l-.73.06c-.04-.36-.17-.64-.4-.83-.23-.19-.56-.28-1.01-.28s-.8.09-1.01.26c-.21.16-.32.37-.32.61,0,.21.08.38.23.51s.53.27,1.15.41,1.05.26,1.28.37c.34.15.58.35.74.58.16.24.24.51.24.82s-.09.6-.26.87c-.18.28-.43.48-.76.63-.34.16-.71.23-1.12.23-.52,0-.96-.08-1.31-.23-.36-.15-.63-.38-.83-.69-.2-.3-.31-.65-.32-1.03h0ZM252.78,96.95c-.24.26-.49.46-.77.58-.28.13-.58.19-.9.19-.59,0-1.06-.2-1.41-.6-.29-.33-.42-.69-.42-1.09,0-.36.11-.68.34-.96.23-.29.58-.54,1.03-.76-.26-.3-.44-.54-.53-.73-.09-.19-.13-.37-.13-.54,0-.35.14-.65.41-.91.27-.26.61-.38,1.03-.38.39,0,.72.12.97.36s.38.53.38.87c0,.56-.36,1.03-1.1,1.42l1.05,1.31c.11-.23.21-.5.28-.81l.73.16c-.13.51-.3.92-.51,1.24.26.35.56.65.91.89l-.48.56c-.29-.19-.58-.46-.88-.81h0ZM251.32,93.94c.31-.18.51-.34.61-.48.09-.14.14-.29.14-.46,0-.2-.06-.36-.19-.48-.12-.13-.28-.19-.47-.19s-.35.06-.48.19c-.13.13-.19.28-.19.46,0,.09.02.19.07.29.04.1.11.21.21.31l.31.37ZM252.33,96.4l-1.3-1.62c-.38.23-.65.44-.78.63-.14.2-.21.39-.21.58,0,.23.09.47.29.73.19.25.45.38.79.38.21,0,.43-.06.66-.2.23-.13.41-.3.55-.51h0ZM257.44,97.64v-.71l2.97-3.71c.21-.26.41-.5.61-.7h-3.23v-.68h4.14v.68l-3.26,4.02-.34.41h3.69v.68h-4.58ZM262.56,97.64l2.22-5.8h.84l2.36,5.8h-.88l-.67-1.76h-2.44l-.63,1.76h-.81ZM264.23,95.26h1.97l-.61-1.6c-.18-.49-.32-.89-.41-1.21-.08.38-.19.75-.32,1.12l-.63,1.7ZM268.91,97.64v-5.8h.77v2.87l2.87-2.87h1.04l-2.43,2.35,2.54,3.44h-1.01l-2.06-2.92-.95.91v2.01h-.77ZM274.06,97.64l2.22-5.8h.85l2.35,5.8h-.87l-.67-1.76h-2.44l-.63,1.76h-.81ZM275.73,95.26h1.97l-.6-1.6c-.19-.49-.32-.89-.42-1.21-.08.38-.19.75-.31,1.12l-.63,1.7ZM281.32,97.64v-5.12h-1.91v-.68h4.58v.68h-1.91v5.12h-.76Z"/>
    <path class="st1" d="M106.06,77.76,106.06,77.77c-.62.12-.89-.59-.89-.59l-.1-.86s.01-.05.04-.05l.56-.07s.05.01.05.04l.09.76c.01.1.05.16.12.19s.14.04.21.03c.06,0,.11-.02.14-.04s.06-.04.07-.06c.01-.03.02-.06.02-.1,0-.04,0-.09-.01-.16l-.08-.68s.01-.05.04-.05l.57-.07s.05.01.05.04l.09.76c.01.11.05.17.12.2.07.02.14.03.22.02.06,0,.1-.02.13-.03.03-.02.05-.04.06-.07s.02-.06.02-.11,0-.09-.01-.16l-.12-1.01s.01-.05.04-.05l.57-.07s.05,0,.05.04l.15,1.32c.02.2,0,.35-.07.46-.07.1-.21.17-.4.19l-.26.03c-.12.01-.22,0-.3-.03-.08-.04-.15-.09-.19-.16-.03.1-.09.17-.17.22-.08.04-.2.08-.35.09l-.18.02h-.26Z"/>
    <path class="st1" d="M182.34,98.02v.68c0,.23-.06.43-.17.6s-.29.29-.53.36v-.32c.11-.04.2-.11.27-.21s.1-.23.1-.37v-.03h-.38v-.7h.7Z"/>
    <path class="st0" d="M112.6,76.05s-.1-.05-.15-.08"/>
  </g>
  <g>
    <path class="st1" d="M180.88,75.27h-1.31c-.09,0-.13.04-.13.12v1.29c0,.08.04.13.13.13h1.31c.08,0,.13-.05.13-.13v-1.29c0-.08-.05-.12-.13-.12Z"/>
    <path class="st1" d="M181.89,77.14h-1.33c-.08,0-.12.04-.12.12v1.29c0,.08.04.13.12.13h1.33c.08,0,.13-.05.13-.13v-1.29c0-.08-.05-.12-.13-.12Z"/>
    <path class="st1" d="M179.87,77.14h-1.31c-.09,0-.14.04-.14.12v1.29c0,.08.05.13.14.13h1.31c.08,0,.12-.05.12-.13v-1.29c0-.08-.04-.12-.12-.12Z"/>
  </g>
  <g>
    <path class="st0" d="M132.8,6.11h0s0,.02.02.02v-.02ZM132.8,6.11h0s0,.02.02.02v-.02ZM132.8,6.11h0s0,.02.02.02v-.02ZM132.8,6.11h0s0,.02.02.02v-.02ZM132.8,6.11h0s0,.02.02.02v-.02ZM132.8,6.11h0s0,.02.02.02v-.02Z"/>
    <path class="st0" d="M132.81,6.13s0,0-.02-.02h0s0,.02,0,.02Z"/>
    <path class="st0" d="M132.81,6.13s0,0-.02-.02h0s0,.02,0,.02Z"/>
    <path class="st0" d="M169.14,34.62c-4.33-11.66-14.43-21.05-30.03-27.91-.03,0-1.72-.62-3.48-1.71h0c-.5-.49-.89-.94-.89-.94V1.82l-.93-.33-.12-.66h-1.64l-.12.66-.94.33v2.24c-.1.18-.28.39-.5.59t0,0c-1.33.84-2.65,1.51-2.67,1.52-16.27,7.15-26.72,17.13-31.04,29.66-5.97,17.31,1.96,33.9,2.88,35.72h1.73c-.35-.77-8.06-18.5-1.11-35.43,4.47-10.89,13.95-19.14,28.17-24.52.14-.04,3.28-.96,4.43-2.37,1.41,1.32,2.73,1.78,2.79,1.81,21.99,6.27,29.6,20.3,32.11,30.97,2.6,11.05.43,20.88.21,21.82l-.02.08.29.11.08-.18s.02-.04.02-.06c.81-1.85,6.07-14.91.78-29.15ZM168.08,41.94c-1.61-6.84-4.7-12.81-9.17-17.73-5.6-6.16-13.39-10.69-23.15-13.47-.01,0-1.39-.5-2.79-1.86l-.23.02c-.99,1.4-4.33,2.38-4.38,2.39-14.31,5.42-23.85,13.73-28.36,24.7-4.13,10.06-3.12,20.4-1.53,27.35-1.65-6.88-2.76-17.16,1.27-27.27,4.45-11.15,14.08-19.68,28.63-25.35.14-.05,3.32-1.09,4.51-2.51,1.55,1.5,3.27,2.11,3.34,2.14,22.31,6.99,29.76,21.16,32.08,31.82.76,3.49,1.03,6.83,1.05,9.81-.08-3.06-.42-6.49-1.26-10.05ZM169.65,52.2c0-3.05-.27-6.49-1.05-10.08-1.48-6.84-4.5-12.86-8.96-17.9-5.57-6.29-13.42-11.06-23.33-14.16-.02,0-1.81-.65-3.34-2.18l-.25.02c-1.05,1.41-4.43,2.52-4.47,2.53-14.64,5.71-24.33,14.29-28.81,25.53-4.06,10.18-2.94,20.53-1.28,27.46-1.72-6.86-2.93-17.16,1.03-27.38,4.42-11.41,14.21-20.21,29.08-26.17.14-.05,3.36-1.22,4.6-2.66,1.68,1.67,3.8,2.44,3.89,2.47,22.64,7.7,29.92,22.01,32.04,32.67.7,3.51.9,6.87.84,9.84ZM169.95,52.39c.07-3.03-.12-6.48-.84-10.08-1.36-6.84-4.29-12.92-8.73-18.07-5.54-6.43-13.45-11.43-23.51-14.85-.02,0-2.24-.81-3.87-2.5h-.26c-1.1,1.42-4.52,2.67-4.56,2.69-14.97,5.99-24.81,14.86-29.27,26.35-3.94,10.18-2.79,20.45-1.09,27.35-1.76-6.84-3.01-17.06.84-27.28,4.39-11.67,14.33-20.75,29.54-27,.14-.06,3.41-1.37,4.69-2.8,1.8,1.84,4.33,2.76,4.44,2.8,22.97,8.41,30.08,22.87,32,33.52.64,3.53.76,6.89.62,9.86ZM132.79,6.12h0s0,.02,0,.02c0,0,0,0-.02-.02ZM170.27,52.26c.13-2.95,0-6.27-.63-9.76-1.23-6.83-4.09-12.97-8.51-18.23-5.52-6.58-13.49-11.8-23.69-15.54-.03,0-2.66-.96-4.42-2.82h-.28c-1.17,1.43-4.62,2.81-4.65,2.83-15.3,6.28-25.29,15.42-29.71,27.18-3.82,10.16-2.65,20.31-.91,27.19-1.79-6.82-3.06-16.92.67-27.12,4.36-11.93,14.45-21.29,29.99-27.82.14-.06,3.44-1.5,4.77-2.95,1.93,2.02,4.87,3.08,4.99,3.13,14.66,5.74,24.51,14.2,29.27,25.15,2.93,6.73,3.45,13.4,3.11,18.76ZM170.52,53.05c.45-5.53.02-12.57-3.07-19.68-4.8-11.03-14.71-19.55-29.45-25.32-.03-.01-3.08-1.12-4.96-3.14h-.29c-1.22,1.42-4.71,2.95-4.74,2.96-15.62,6.57-25.77,15.99-30.16,28.01-3.72,10.19-2.5,20.28-.72,27.14-1.84-6.8-3.15-16.84.48-27.07,4.33-12.18,14.57-21.83,30.44-28.65.14-.07,3.49-1.64,4.86-3.09,2.06,2.19,5.51,3.45,5.54,3.46,15.08,6.27,25.04,15.17,29.58,26.45,2.78,6.91,3.05,13.63,2.5,18.94ZM168.3,34.01c-4.57-11.36-14.58-20.31-29.75-26.62-.04-.02-3.51-1.28-5.5-3.46h-.3c-1.29,1.43-4.81,3.08-4.84,3.1-15.95,6.86-26.24,16.56-30.6,28.83-3.64,10.25-2.34,20.33-.5,27.17-1.89-6.78-3.29-16.81.26-27.1,4.29-12.44,14.68-22.36,30.88-29.48.14-.07,3.53-1.78,4.95-3.23,2.18,2.36,6.06,3.78,6.09,3.79,15.51,6.82,25.55,16.15,29.86,27.73,2.54,6.84,2.63,13.4,1.95,18.56.58-5.37.34-12.23-2.5-19.28Z"/>
  </g>
  <g>
    <path class="st0" d="M189.43,70.72V14.48c0-.54-.52-.98-1.17-.98s-1.17.44-1.17.98v57.22h2.34v-.98Z"/>
    <path class="st1" d="M184.7,70.72V6.54c0-.54-.52-.98-1.17-.98s-1.17.44-1.17.98v65.16h2.36l-.02-.98Z"/>
    <path class="st0" d="M179.87,70.72V.98c0-.54-.52-.98-1.17-.98s-1.17.44-1.17.98v70.72h2.34v-.98Z"/>
  </g>
</svg>